<svg xmlns="http://www.w3.org/2000/svg" viewBox="0 0 124.04 114.27"><title>logo</title><g style="isolation:isolate"><g id="Layer_3" data-name="Layer 3"><polygon points="104.05 58.92 121.33 59.94 110.68 46.69 119.48 43.7 111.1 39.04 124.04 27.53 107.14 25.69 111.24 17.36 102.02 19.99 103.04 2.71 89.79 13.36 86.8 4.56 82.14 12.93 70.63 0 68.79 16.9 60.46 12.79 63.09 22.01 45.81 21 56.46 34.25 47.66 37.24 56.03 41.9 43.1 53.4 60 55.24 55.9 63.58 65.11 60.95 64.1 78.23 77.35 67.58 80.34 76.38 85 68 96.5 80.94 98.34 64.04 106.68 68.14 104.05 58.92" style="fill:#ebab44"/><polygon points="100.95 56.14 115.63 57 106.58 45.75 114.05 43.21 106.94 39.26 117.92 29.49 103.58 27.93 107.06 20.85 99.24 23.08 100.09 8.41 88.85 17.45 86.31 9.98 82.36 17.09 72.59 6.11 71.03 20.46 63.95 16.98 66.18 24.8 51.51 23.94 60.55 35.19 53.08 37.73 60.19 41.68 49.21 51.45 63.56 53.01 60.08 60.09 67.9 57.85 67.04 72.53 78.28 63.48 80.83 70.95 84.78 63.84 94.55 74.82 96.11 60.48 103.19 63.96 100.95 56.14" style="fill:#ebab44;opacity:0.30000000000000004;mix-blend-mode:multiply"/><circle cx="271.55" cy="85.98" r="21.45" transform="translate(-146.57 208.3) rotate(-53.67)" style="fill:#f6dc44"/><g style="opacity:0.5;mix-blend-mode:overlay"><path d="M263.16,68.76a17,17,0,0,1,8.44-2.13,19.56,19.56,0,0,1,15.5,7.85,16.74,16.74,0,0,1,3.28,8.07.72.72,0,0,1-1.33.43h0a29.58,29.58,0,0,0-4.65-6.19,23.84,23.84,0,0,0-6-4.35,23,23,0,0,0-7-2.27,28.19,28.19,0,0,0-7.74-.07h0a.71.71,0,0,1-.79-.63A.7.7,0,0,1,263.16,68.76Z" transform="translate(-187.98 -45.51)" style="fill:#fff"/></g><path d="M293,84.67a19.48,19.48,0,0,1-1.77,5,19.17,19.17,0,1,1-31-21.94A21.45,21.45,0,1,0,293,84.67Z" transform="translate(-187.98 -45.51)" style="fill:#f6dc44;opacity:0.5;mix-blend-mode:multiply"/><path d="M205.86,145.88a3.11,3.11,0,0,1-6.22,0c0-1.72,3.11-6.92,3.11-6.92S205.86,144.16,205.86,145.88Z" transform="translate(-187.98 -45.51)" style="fill:#d8e8ea"/><path d="M205.05,144.07a2.3,2.3,0,0,1-4.59,0c0-1.27,2.29-5.11,2.29-5.11S205.05,142.8,205.05,144.07Z" transform="translate(-187.98 -45.51)" style="fill:#d8e8ea;opacity:0.5;mix-blend-mode:multiply"/><path d="M226.42,145.88a3.11,3.11,0,1,1-6.21,0c0-1.72,3.11-6.92,3.11-6.92S226.42,144.16,226.42,145.88Z" transform="translate(-187.98 -45.51)" style="fill:#d8e8ea"/><path d="M225.61,144.07a2.3,2.3,0,0,1-4.59,0c0-1.27,2.3-5.11,2.3-5.11S225.61,142.8,225.61,144.07Z" transform="translate(-187.98 -45.51)" style="fill:#d8e8ea;opacity:0.5;mix-blend-mode:multiply"/><path d="M247,145.88a3.11,3.11,0,0,1-6.22,0c0-1.72,3.11-6.92,3.11-6.92S247,144.16,247,145.88Z" transform="translate(-187.98 -45.51)" style="fill:#d8e8ea"/><path d="M246.17,144.07a2.29,2.29,0,0,1-4.58,0c0-1.27,2.29-5.11,2.29-5.11S246.17,142.8,246.17,144.07Z" transform="translate(-187.98 -45.51)" style="fill:#d8e8ea;opacity:0.5;mix-blend-mode:multiply"/><path d="M267.55,145.88a3.11,3.11,0,1,1-6.21,0c0-1.72,3.11-6.92,3.11-6.92S267.55,144.16,267.55,145.88Z" transform="translate(-187.98 -45.51)" style="fill:#d8e8ea"/><path d="M266.74,144.07a2.3,2.3,0,0,1-4.59,0c0-1.27,2.3-5.11,2.3-5.11S266.74,142.8,266.74,144.07Z" transform="translate(-187.98 -45.51)" style="fill:#d8e8ea;opacity:0.5;mix-blend-mode:multiply"/><path d="M288.12,145.88a3.11,3.11,0,0,1-6.22,0c0-1.72,3.11-6.92,3.11-6.92S288.12,144.16,288.12,145.88Z" transform="translate(-187.98 -45.51)" style="fill:#d8e8ea"/><path d="M287.3,144.07a2.29,2.29,0,0,1-4.58,0c0-1.27,2.29-5.11,2.29-5.11S287.3,142.8,287.3,144.07Z" transform="translate(-187.98 -45.51)" style="fill:#d8e8ea;opacity:0.5;mix-blend-mode:multiply"/><path d="M216.14,156.67a3.11,3.11,0,1,1-6.22,0c0-1.72,3.11-6.92,3.11-6.92S216.14,155,216.14,156.67Z" transform="translate(-187.98 -45.51)" style="fill:#d8e8ea"/><path d="M215.33,154.86a2.3,2.3,0,0,1-4.59,0c0-1.27,2.29-5.11,2.29-5.11S215.33,153.59,215.33,154.86Z" transform="translate(-187.98 -45.51)" style="fill:#d8e8ea;opacity:0.5;mix-blend-mode:multiply"/><path d="M236.71,156.67a3.11,3.11,0,0,1-6.22,0c0-1.72,3.11-6.92,3.11-6.92S236.71,155,236.71,156.67Z" transform="translate(-187.98 -45.51)" style="fill:#d8e8ea"/><path d="M235.89,154.86a2.3,2.3,0,0,1-4.59,0c0-1.27,2.3-5.11,2.3-5.11S235.89,153.59,235.89,154.86Z" transform="translate(-187.98 -45.51)" style="fill:#d8e8ea;opacity:0.5;mix-blend-mode:multiply"/><path d="M257.27,156.67a3.11,3.11,0,0,1-6.22,0c0-1.72,3.11-6.92,3.11-6.92S257.27,155,257.27,156.67Z" transform="translate(-187.98 -45.51)" style="fill:#d8e8ea"/><path d="M256.46,154.86a2.3,2.3,0,0,1-4.59,0c0-1.27,2.29-5.11,2.29-5.11S256.46,153.59,256.46,154.86Z" transform="translate(-187.98 -45.51)" style="fill:#d8e8ea;opacity:0.5;mix-blend-mode:multiply"/><path d="M277.84,156.67a3.11,3.11,0,1,1-6.22,0c0-1.72,3.11-6.92,3.11-6.92S277.84,155,277.84,156.67Z" transform="translate(-187.98 -45.51)" style="fill:#d8e8ea"/><path d="M277,154.86a2.3,2.3,0,0,1-4.59,0c0-1.27,2.3-5.11,2.3-5.11S277,153.59,277,154.86Z" transform="translate(-187.98 -45.51)" style="fill:#d8e8ea;opacity:0.5;mix-blend-mode:multiply"/><path d="M294.43,131.81a23.7,23.7,0,0,0-27.17-34.7,32.09,32.09,0,0,0-63,8.62,32.72,32.72,0,0,0,.42,5.18l-.42,0A16.27,16.27,0,0,0,188,127.16a16.54,16.54,0,0,0,.68,4.65Z" transform="translate(-187.98 -45.51)" style="fill:#ade4ea"/><path d="M286.83,131.81a15,15,0,0,0,2.06-7.6c0-8.32-4.77-17.87-18.64-17.57a20.82,20.82,0,0,0-9.9,3.13c-2.39-8.6-10-17.64-22-17.64-8.3,0-15.88,4.07-18.93,15.16-1.66,6,.45,13.11.41,13.1-11.38-2.31-17.55-1.07-21.34,4.37a9.3,9.3,0,0,0-1.25,7Z" transform="translate(-187.98 -45.51)" style="fill:#ade4ea;opacity:0.5;mix-blend-mode:multiply"/><path d="M195.23,121.6s3.42-8.47,16-5.23c0,0-5.56-20.86,8.91-31.78s36.05-5.16,43.77,18.14c0,0,11.4-4.65,20.07,1.17s10.22,15.2,9.27,22.8" transform="translate(-187.98 -45.51)" style="fill:none;stroke:#fff;stroke-linecap:round;stroke-linejoin:round;stroke-width:1.5px;opacity:0.6000000000000001;mix-blend-mode:overlay"/></g></g></svg>