<svg id="Layer_1" data-name="Layer 1" xmlns="http://www.w3.org/2000/svg" viewBox="0 0 35.22 35.07"><title>113</title><path d="M501,511a10,10,0,1,1,9.94-9.81A10,10,0,0,1,501,511Zm-.21-3a7,7,0,1,0-6.82-7.16A7.3,7.3,0,0,0,500.83,508Z" transform="translate(-483.42 -483.49)" style="fill:#feb203"/><path d="M493.17,485.34a5,5,0,0,1,2.34,3.53c.31,1.36-1.68,1.8-1.9,1.56a10.21,10.21,0,0,1-2.28-3.73C491.1,486,492.24,485.51,493.17,485.34Z" transform="translate(-483.42 -483.49)" style="fill:#febd2a"/><path d="M510.77,487c-.78,1.21-.94,3.07-2.77,3.39-.64.12-1.85-.38-1.54-1.37.45-1.44.8-3.25,2.68-3.55A1.54,1.54,0,0,1,510.77,487Z" transform="translate(-483.42 -483.49)" style="fill:#febd2a"/><path d="M487.29,491.34c1.06.82,3,.93,3,2.71,0,1-.69,2.11-2,1.3-1.11-.71-3.18-.68-2.84-2.79A1.37,1.37,0,0,1,487.29,491.34Z" transform="translate(-483.42 -483.49)" style="fill:#febd2a"/><path d="M514.82,491.31a1.39,1.39,0,0,1,1.72,1.38c0,2.07-2,2.21-3.35,2.84-1,.48-1.51-.67-1.52-1.35C511.62,492.05,513.83,492.26,514.82,491.31Z" transform="translate(-483.42 -483.49)" style="fill:#febd29"/><path d="M490.49,508.36a5.59,5.59,0,0,1-3.62,2.31,1.45,1.45,0,0,1-1.42-2,4.57,4.57,0,0,1,3.69-2.18C490.06,506.43,490.2,507.57,490.49,508.36Z" transform="translate(-483.42 -483.49)" style="fill:#febe2b"/><path d="M516.68,509.17c-.47.72-.63,1.91-1.7,1.49-1.31-.52-3-.87-3.34-2.51-.15-.82.45-2.2,1.79-1.6S516.33,507.44,516.68,509.17Z" transform="translate(-483.42 -483.49)" style="fill:#febd2a"/><path d="M495.53,513.36c-.73,1.12-.84,2.95-2.53,3.21-.87.14-2.16-.54-1.61-1.8s.87-3,2.67-3A1.33,1.33,0,0,1,495.53,513.36Z" transform="translate(-483.42 -483.49)" style="fill:#febe2b"/><path d="M510.72,514.92a1.43,1.43,0,0,1-1.5,1.64c-1.83-.07-2.12-1.85-2.67-3.11s.78-2,1.62-1.8C509.81,512,510,513.77,510.72,514.92Z" transform="translate(-483.42 -483.49)" style="fill:#febd2a"/><path d="M502.36,486c-.14.92.11,2.19-1.37,2.12s-1.26-1.28-1.26-2.21c0-1.1-.15-2.62,1.57-2.36C502.48,483.69,502.33,485,502.36,486Z" transform="translate(-483.42 -483.49)" style="fill:#feb611"/><path d="M488.09,501.27c-.56,1.45-1.83,1.08-2.9,1.05s-2.17-.51-1.64-1.73,2-.89,3.08-.84C487.54,499.79,488.15,500.23,488.09,501.27Z" transform="translate(-483.42 -483.49)" style="fill:#feb611"/><path d="M518.64,500.92c-.14,1.41-1.23,1.39-2.19,1.41s-2.21.24-2.51-1,.77-1.62,1.82-1.62S518.13,499.42,518.64,500.92Z" transform="translate(-483.42 -483.49)" style="fill:#feb50e"/><path d="M502.37,516.36c-.15.93.05,2.27-1.33,2.2-1.69-.09-1.25-1.62-1.3-2.67s.14-2.15,1.52-1.92S502.27,515.42,502.37,516.36Z" transform="translate(-483.42 -483.49)" style="fill:#feb50e"/><path d="M500.83,508a7,7,0,1,1,7.16-6.82A7.28,7.28,0,0,1,500.83,508Z" transform="translate(-483.42 -483.49)" style="fill:#fef000"/></svg>