<svg id="Layer_2" data-name="Layer 2" xmlns="http://www.w3.org/2000/svg" viewBox="0 0 53.3 38"><title>116</title><path d="M-68.88,492.11c3.78-.32,6.44-3.76,10.72-3.27,5.31.61,10.9,4.29,11.94,9.52a8.28,8.28,0,0,0,2.77,4.91c3.05,2.79,3.36,6.69,1.93,10.12A8.71,8.71,0,0,1-49.7,519c-9.46,0-18.92.19-28.37,0-6.73-.16-9-5.59-5.8-13.11,1-.48,2.08-.76,2.61-1.87,2.12-5.07,6.71-7,11.34-8.8C-68.75,494.41-68.74,493.29-68.88,492.11ZM-64.07,516c4.49,0,9,0,13.47,0,2.86,0,5.37-1.15,6.36-3.94a5.59,5.59,0,0,0-2.32-7c-2-1.21-2.29-2.81-2.54-4.94-.64-5.5-6-9.88-11.08-7.79-5.93,2.45-11.14,6.66-16.53,10.32-1.52,1-.81,3.82-3.29,4.62A3.94,3.94,0,0,0-82.67,512a5.08,5.08,0,0,0,5.12,4C-73.06,516-68.57,516-64.07,516Z" transform="translate(93.99 -481.05)" style="fill:#d1d2d2"/><path d="M-68.88,492.11c.14,1.18.13,2.3-1,3-4.9-3.88-8.28-4.34-11.28-1.45-3.5,3.37-3.38,6.82-.06,10.25-.53,1.11-1.64,1.39-2.61,1.87-3.79-5.9-3.56-11.06.64-14.7C-79.2,487.62-74.2,488-68.88,492.11Z" transform="translate(93.99 -481.05)" style="fill:#feb408"/><path d="M-66.91,484.68c-.59,1.22-.86,2.87-2.45,3.29A1.3,1.3,0,0,1-71,486.28c.36-1.36.84-2.95,2.52-3.22C-67.69,482.92-67.07,483.7-66.91,484.68Z" transform="translate(93.99 -481.05)" style="fill:#fec137"/><path d="M-75,483.65c0,1.13.1,2.44-1.65,2.32S-78,484.41-78,483.39s-.24-2.48,1.58-2.33S-75.16,482.59-75,483.65Z" transform="translate(93.99 -481.05)" style="fill:#feb30a"/><path d="M-84.79,483.07c1.67.44,2.14,1.91,2.62,3.24a1.25,1.25,0,0,1-1.3,1.63c-1.83-.1-2.13-1.8-2.6-3.11C-86.4,483.94-85.61,483.4-84.79,483.07Z" transform="translate(93.99 -481.05)" style="fill:#feba1f"/><path d="M-89.28,499.09c-.28,1.36-1.62.86-2.63.91s-2.12.14-2.08-1.27c0-2,1.69-1.5,2.87-1.54S-89.18,497.46-89.28,499.09Z" transform="translate(93.99 -481.05)" style="fill:#feb000"/><path d="M-89,504.19a1.46,1.46,0,0,1,1.71,1.46c-.25,1.76-1.92,2.1-3.32,2.47A1.11,1.11,0,0,1-92,507C-91.94,505.07-90.12,505-89,504.19Z" transform="translate(93.99 -481.05)" style="fill:#feb819"/><path d="M-90.63,489.06c1.27.62,3,.9,3.37,2.53A1.37,1.37,0,0,1-88.92,493c-1.25-.33-2.65-.76-3.07-2.21C-92.25,489.85-91.66,489.24-90.63,489.06Z" transform="translate(93.99 -481.05)" style="fill:#feb612"/><path d="M-81.26,503.94c-3.32-3.43-3.44-6.88.06-10.25,3-2.89,6.38-2.43,11.28,1.45C-74.55,497-79.14,498.87-81.26,503.94Z" transform="translate(93.99 -481.05)" style="fill:#feee02"/></svg>