<svg id="Layer_3" data-name="Layer 3" xmlns="http://www.w3.org/2000/svg" viewBox="0 0 43.74 30.07"><title>119</title><path d="M-44,486.74c-4.09,0-8.19-.06-12.28,0-3.83.07-7-1.38-8.22-4.95-1.09-3.34.89-6,2.66-9.2,3.85-6.89,11.37-8.3,16.43-13.25,6-5.8,16.88-1.39,18.87,7.07A7.52,7.52,0,0,0-24.16,471c3.36,2.9,3.84,6.75,2.25,10.72-1.46,3.63-4.72,4.88-8.3,5C-34.79,486.88-39.38,486.74-44,486.74Zm.45-2.95c4.41,0,8.83,0,13.25,0,3.31,0,5.24-1.95,6.13-4.71a5,5,0,0,0-2.9-6.43c-1.74-.81-2.13-2.06-2.28-3.88-.48-5.87-5.81-10.39-11.15-8.34-5.79,2.22-10.26,7.14-15.91,10-1.68.85-1.22,3.9-3.43,5.09s-2.56,3.38-1.72,5.57,2.58,2.73,4.76,2.7C-52.35,483.75-47.94,483.79-43.52,483.79Z" transform="translate(64.78 -456.73)" style="fill:#d1d2d3"/></svg>