<svg id="Layer_4" data-name="Layer 4" xmlns="http://www.w3.org/2000/svg" viewBox="0 0 43.95 29.92"><title>122</title><path d="M-64.77,588c-4.42,0-8.85,0-13.28,0-3.45,0-6.19-1.59-7.3-4.82s.55-5.88,2.28-8.93c3.81-6.73,11.21-8.37,16.3-13.22,6.2-5.91,17-2.26,19.33,6.11a10.87,10.87,0,0,0,3.12,5.78c2.8,2.57,3.12,6.09,1.84,9.55-1.33,3.62-4.32,5.34-8,5.48C-55.25,588.12-60,588-64.77,588Zm.19-2.93c4.58,0,9.15,0,13.73,0,3.24,0,5.21-2,6-4.85a5,5,0,0,0-2.78-6.14c-2-.93-2.25-2.3-2.42-4.25-.51-5.88-6-10.3-11.34-8.06-5.68,2.36-10.2,7.11-15.77,10-1.65.87-1.1,4-3.54,4.93-2.21.87-2.35,3-1.87,5,.58,2.44,2.41,3.32,4.78,3.32Z" transform="translate(85.72 -558.11)" style="fill:#939598"/><path d="M-64.58,585.05H-77.81c-2.37,0-4.2-.88-4.78-3.32-.48-2-.34-4.15,1.87-5,2.44-1,1.89-4.06,3.54-4.93,5.57-2.94,10.09-7.69,15.77-10,5.36-2.24,10.83,2.18,11.34,8.06.17,2,.46,3.32,2.42,4.25a5,5,0,0,1,2.78,6.14c-.77,2.89-2.74,4.82-6,4.85C-55.43,585.08-60,585.05-64.58,585.05Z" transform="translate(85.72 -558.11)" style="fill:#e5e6e7"/></svg>