<svg id="_143" data-name="143" xmlns="http://www.w3.org/2000/svg" viewBox="0 0 43.74 39.87"><title>143</title><path d="M-72.17,679.05c-4.1,0-8.19-.06-12.29,0-3.83.07-7-1.39-8.21-5-1.09-3.33.88-6,2.65-9.19,3.85-6.89,11.37-8.3,16.44-13.25,5.94-5.8,16.87-1.4,18.86,7.07a7.49,7.49,0,0,0,2.36,4.52c3.35,2.9,3.84,6.74,2.24,10.72-1.45,3.63-4.71,4.88-8.3,5C-63,679.19-67.59,679.05-72.17,679.05Zm.37-3c4.59,0,9.18,0,13.78,0,3.07,0,4.84-2.08,5.68-4.66a4.81,4.81,0,0,0-2.5-6.19c-2.09-1-2.59-2.45-2.71-4.65-.28-4.84-4.44-9-9.17-8-7.51,1.6-13.11,7-18.78,11.85-1,.83-1,2.64-2.6,3.3-2.35,1-2.21,3.1-1.79,5.05.47,2.19,2.08,3.25,4.31,3.26C-81,676.1-76.39,676.09-71.8,676.09Z" transform="translate(92.99 -649.03)" style="fill:#d1d2d3"/><path d="M-71.45,688.9c-4.58,0-9.16,0-13.74,0-1.11,0-2.6.13-2.57-1.48s1.51-1.43,2.61-1.44q14,0,28,0c1,0,2.16-.06,2.3,1.24.18,1.71-1.23,1.65-2.35,1.66C-62,688.91-66.71,688.89-71.45,688.9Z" transform="translate(92.99 -649.03)" style="fill:#d1d2d3"/></svg>