<svg id="_176" data-name="176" xmlns="http://www.w3.org/2000/svg" viewBox="0 0 52.42 49.23"><title>176</title><path d="M-133.33,530.42c10.59-7.52,17.87-5.16,22.17,7.33.49,1.42,1.58,2,2.49,2.87a8.63,8.63,0,0,1,2,9.55,7.92,7.92,0,0,1-7.38,5.65c-9.83.21-19.68.39-29.49,0-6.06-.26-8.06-6.08-4.89-12.7l2-1.59a19.45,19.45,0,0,1,11.65-9Zm4.7,22.59c4.42,0,8.84.1,13.25,0s8-3.89,5.94-6.79c-3.29-4.68-4.15-10.55-8.06-14.71-1.78-1.9-4.54-3-6.73-2a59.53,59.53,0,0,0-18,12c-.81.82-.76,2.27-2.27,2.86a4,4,0,0,0-2.62,5.13,5,5,0,0,0,5.28,3.55C-137.45,553-133,553-128.63,553Z" transform="translate(158.44 -518.62)" style="fill:#939597"/><path d="M-133.33,530.42c-.48.68-.95,1.36-1.42,2.05-1.85-.89-2.85-3-5.3-3.13-2.78-.11-5,.48-6.81,2.75-2.72,3.37-1,6.34.46,9.4l-2,1.59c-3.93-6-3.61-11.2.89-14.79S-137.73,525.6-133.33,530.42Z" transform="translate(158.44 -518.62)" style="fill:#feb307"/><path d="M-128.85,559c-1.5,3-2.7,5.26-3.82,7.61a1.78,1.78,0,0,1-2.4,1.06c-1.42-.62-.46-1.71,0-2.35C-133.37,563.16-133.85,559-128.85,559Z" transform="translate(158.44 -518.62)" style="fill:#298de8"/><path d="M-122.86,558.76c-1.45,3-2.55,5.14-3.6,7.34-.54,1.13-1.3,2.13-2.6,1.6-1.91-.78-.35-2,.1-2.7C-127.52,562.82-127.63,559.14-122.86,558.76Z" transform="translate(158.44 -518.62)" style="fill:#2d8ee9"/><path d="M-131.86,522.41c-.66,1.12-.86,2.86-2.61,3.06a1.26,1.26,0,0,1-1.33-1.62c.42-1.36.81-3,2.55-3.21C-132.48,520.55-131.8,521.29-131.86,522.41Z" transform="translate(158.44 -518.62)" style="fill:#febd2b"/><path d="M-141.85,523.43c-1.5-.3-.75-1.86-.85-3s.17-2,1.54-1.82c1.69.17,1.34,1.5,1.36,2.54S-139.64,523.57-141.85,523.43Z" transform="translate(158.44 -518.62)" style="fill:#feb30a"/><path d="M-149.12,520.63a4.53,4.53,0,0,1,2.36,3.36,1.26,1.26,0,0,1-1.5,1.42c-1.67-.33-2.08-1.91-2.41-3.26C-150.86,521.38-150.1,520.74-149.12,520.63Z" transform="translate(158.44 -518.62)" style="fill:#feba1f"/><path d="M-155.92,537.32c-1-.18-2.46.44-2.51-1.31s1.27-1.52,2.37-1.51,2.38,0,2.29,1.61C-153.85,537.54-155.06,537.17-155.92,537.32Z" transform="translate(158.44 -518.62)" style="fill:#feb000"/><path d="M-151.75,542.88c-.58,1.61-2,2.08-3.4,2.39a1.09,1.09,0,0,1-1.31-1.12c.08-1.86,1.75-2.21,3-2.7C-152.45,541.1-152.16,542.18-151.75,542.88Z" transform="translate(158.44 -518.62)" style="fill:#feb819"/><path d="M-156.58,528c.23-.9.61-1.73,1.62-1.4,1.22.4,2.63.82,3.09,2.16a1.31,1.31,0,0,1-1.34,1.62C-154.62,530.15-156,529.6-156.58,528Z" transform="translate(158.44 -518.62)" style="fill:#feb612"/><path d="M-128.63,553c-4.41,0-8.82,0-13.24,0a5,5,0,0,1-5.28-3.55,4,4,0,0,1,2.62-5.13c1.51-.59,1.46-2,2.27-2.86a59.53,59.53,0,0,1,18-12c2.19-1,5,.12,6.73,2,3.91,4.16,4.77,10,8.06,14.71,2,2.9-1.62,6.65-5.94,6.79S-124.21,553-128.63,553Z" transform="translate(158.44 -518.62)" style="fill:#e5e6e7"/><path d="M-146.4,541.49c-1.45-3.06-3.18-6-.46-9.4,1.83-2.27,4-2.86,6.81-2.75,2.45.1,3.45,2.24,5.3,3.13A19.45,19.45,0,0,0-146.4,541.49Z" transform="translate(158.44 -518.62)" style="fill:#fdee01"/></svg>