<svg id="_179" data-name="179" xmlns="http://www.w3.org/2000/svg" viewBox="0 0 52.43 48.67"><title>179</title><path d="M-153.49,539.37c10.6-7.53,17.88-5.16,22.18,7.33.49,1.42,1.58,2,2.48,2.87a8.64,8.64,0,0,1,2,9.54,7.94,7.94,0,0,1-7.39,5.66c-9.82.21-19.67.39-29.48,0-6.06-.27-8.06-6.08-4.9-12.7l2-1.59a19.42,19.42,0,0,1,11.65-9Zm4.69,22.57c4.58,0,9.16.15,13.73,0,4-.17,7.44-4,5.49-6.75-3.33-4.66-4.19-10.53-8.06-14.71-1.77-1.91-4.53-3-6.73-2a59.59,59.59,0,0,0-18,12c-.82.81-.74,2.28-2.27,2.88a4,4,0,0,0-2.64,5.11A5,5,0,0,0-162,562C-157.63,561.91-153.21,562-148.8,561.94Z" transform="translate(178.6 -527.57)" style="fill:#939597"/><path d="M-166.55,550.44l-2,1.59c-3.92-6-3.61-11.21.89-14.79s9.79-2.69,14.18,2.13l-1.41,2c-1.85-.88-2.86-3-5.3-3.12-2.78-.11-5,.48-6.82,2.75C-169.74,544.41-168,547.38-166.55,550.44Z" transform="translate(178.6 -527.57)" style="fill:#feb307"/><path d="M-149.2,575.66c-3.7,1.22-3.08-2.48-4.62-3.29,1.41-1,.85-3.77,3.4-3.87,2.82-.12,5,1.22,5,3.83C-145.41,573.6-145.86,577.77-149.2,575.66Z" transform="translate(178.6 -527.57)" style="fill:#d4d5d6"/><path d="M-153.45,529.51c.87.29,1.7.82,1.4,1.71-.44,1.34-.85,3-2.58,3.2a1.27,1.27,0,0,1-1.33-1.64C-155.53,531.43-155.09,530-153.45,529.51Z" transform="translate(178.6 -527.57)" style="fill:#febd2b"/><path d="M-159.93,530c-.07,1.08.2,2.42-1.5,2.43s-1.43-1.39-1.43-2.43-.32-2.44,1.43-2.43S-160,528.92-159.93,530Z" transform="translate(178.6 -527.57)" style="fill:#feb30a"/><path d="M-169.63,529.57c1.76.33,2.15,1.85,2.67,3.12a1.22,1.22,0,0,1-1.21,1.65c-1.86,0-2.09-1.73-2.61-3C-171.14,530.48-170.37,530-169.63,529.57Z" transform="translate(178.6 -527.57)" style="fill:#feba1f"/><path d="M-176.2,546.27c-1-.15-2.46.34-2.4-1.44,0-1.27,1-1.43,2-1.38s2.41-.34,2.61,1.28C-173.72,546.57-175.23,546.08-176.2,546.27Z" transform="translate(178.6 -527.57)" style="fill:#feb000"/><path d="M-171.9,551.86c-.61,1.57-2,2.06-3.42,2.35a1.08,1.08,0,0,1-1.29-1.13c.11-1.84,1.76-2.22,3.06-2.69C-172.61,550.06-172.29,551.12-171.9,551.86Z" transform="translate(178.6 -527.57)" style="fill:#feb819"/><path d="M-171.95,538.13c-.43.74-.94,1.6-1.87,1.14-1.19-.6-3.11-.72-2.74-2.8a1.18,1.18,0,0,1,1.9-.78C-173.64,536.33-172.08,536.48-171.95,538.13Z" transform="translate(178.6 -527.57)" style="fill:#feb612"/><path d="M-148.8,562c-4.41,0-8.83,0-13.24,0a5,5,0,0,1-5.27-3.57,4,4,0,0,1,2.64-5.11c1.53-.6,1.45-2.07,2.27-2.88a59.59,59.59,0,0,1,18-12c2.2-1,5,.12,6.73,2,3.87,4.18,4.73,10,8.06,14.71,2,2.73-1.53,6.58-5.49,6.75C-139.64,562.09-144.22,561.94-148.8,562Z" transform="translate(178.6 -527.57)" style="fill:#e5e6e7"/><path d="M-166.55,550.44c-1.46-3.06-3.19-6-.47-9.4,1.83-2.27,4-2.86,6.82-2.75,2.44.1,3.45,2.24,5.3,3.12A19.47,19.47,0,0,0-166.55,550.44Z" transform="translate(178.6 -527.57)" style="fill:#fdee01"/></svg>