<svg id="_182" data-name="182" xmlns="http://www.w3.org/2000/svg" viewBox="0 0 52.42 49.22"><title>182</title><path d="M-159.6,585.52c10.6-7.52,17.87-5.16,22.17,7.33.5,1.42,1.59,2,2.49,2.88a8.64,8.64,0,0,1,2,9.54,8,8,0,0,1-7.39,5.65c-9.83.22-19.68.4-29.49,0-6.05-.26-8.05-6.08-4.89-12.7l2-1.59a19.49,19.49,0,0,1,11.65-9Zm4.72,22.59c4.41,0,8.83.1,13.24,0s8-3.91,5.94-6.79c-3.32-4.68-4.14-10.56-8.07-14.72-1.79-1.89-4.55-3-6.74-2-6.6,3-12.87,6.77-18,12-.8.83-.77,2.26-2.28,2.86a4,4,0,0,0-2.61,5.13,5.05,5.05,0,0,0,5.3,3.55C-163.71,608.06-159.3,608.11-154.88,608.11Z" transform="translate(184.7 -573.73)" style="fill:#939597"/><path d="M-172.67,596.59l-2,1.59c-3.92-6-3.61-11.2.89-14.79s9.79-2.68,14.18,2.13c-.47.69-1,1.37-1.42,2.05-1.84-.89-2.85-3-5.3-3.13-2.77-.11-5,.49-6.81,2.75C-175.85,590.56-174.12,593.53-172.67,596.59Z" transform="translate(184.7 -573.73)" style="fill:#feb307"/><path d="M-149.6,621.81c-3.48,1.34-2.78-2.38-4.37-3,.78-1.66,1.09-3.63,3.47-4,2.89-.51,4.86,1.06,4.81,3.41C-145.71,619.58-145.76,624-149.6,621.81Z" transform="translate(184.7 -573.73)" style="fill:#d4d5d6"/><path d="M-161,614c-1.61,3.18-2.83,5.66-4.11,8.11a1.7,1.7,0,0,1-2.14.7c-1.2-.39-.71-1.37-.26-1.92C-165.61,618.66-166.18,614.29-161,614Z" transform="translate(184.7 -573.73)" style="fill:#298de8"/><path d="M-155.15,614.11c-1.34,2.72-2.44,4.9-3.49,7.1-.54,1.13-1.31,2.13-2.6,1.59-1.89-.79-.36-2.07.11-2.7C-159.57,618-160,614-155.15,614.11Z" transform="translate(184.7 -573.73)" style="fill:#2d8ee9"/><path d="M-162.08,578.8c.57-1.1.8-2.8,2.51-3.07a1.32,1.32,0,0,1,1.42,1.58c-.39,1.37-.86,3-2.53,3.28C-161.45,580.72-162.17,580-162.08,578.8Z" transform="translate(184.7 -573.73)" style="fill:#febd2b"/><path d="M-166,576c-.1,1,.32,2.4-1.39,2.53s-1.55-1.24-1.53-2.3-.44-2.42,1.31-2.53S-166.1,574.93-166,576Z" transform="translate(184.7 -573.73)" style="fill:#feb30a"/><path d="M-175.6,575.72c1.61.43,2.07,1.88,2.54,3.18a1.23,1.23,0,0,1-1.28,1.61c-1.8-.1-2.1-1.78-2.56-3.06C-177.21,576.58-176.47,576-175.6,575.72Z" transform="translate(184.7 -573.73)" style="fill:#feba1f"/><path d="M-182.09,592.44c-1.08-.2-2.55.42-2.61-1.32s1.27-1.53,2.37-1.52,2.39-.05,2.29,1.61C-180.12,592.63-181.34,592.23-182.09,592.44Z" transform="translate(184.7 -573.73)" style="fill:#feb000"/><path d="M-177.81,598.23c-1.34,1.28-2.42,2.3-4,2.06a1.06,1.06,0,0,1-.86-1.47,3.68,3.68,0,0,1,3.46-2.23C-178.77,596.59-178.28,597.66-177.81,598.23Z" transform="translate(184.7 -573.73)" style="fill:#feb819"/><path d="M-181.06,581.73c1,.74,2.91.69,2.9,2.58a1.28,1.28,0,0,1-1.79,1.12c-1.16-.49-2.67-.81-2.83-2.37C-182.86,582.26-182.3,581.5-181.06,581.73Z" transform="translate(184.7 -573.73)" style="fill:#feb612"/><path d="M-154.88,608.11c-4.42,0-8.83-.05-13.24,0a5.05,5.05,0,0,1-5.3-3.55,4,4,0,0,1,2.61-5.13c1.51-.6,1.48-2,2.28-2.86,5.15-5.26,11.42-9,18-12,2.19-1,4.95.12,6.74,2,3.93,4.16,4.75,10,8.07,14.72,2,2.88-1.63,6.65-5.94,6.79S-150.47,608.11-154.88,608.11Z" transform="translate(184.7 -573.73)" style="fill:#e5e6e7"/><path d="M-172.67,596.59c-1.45-3.06-3.18-6-.46-9.4,1.83-2.26,4-2.86,6.81-2.75,2.45.1,3.46,2.24,5.3,3.13A19.49,19.49,0,0,0-172.67,596.59Z" transform="translate(184.7 -573.73)" style="fill:#fdee01"/></svg>