<svg id="_185" data-name="185" xmlns="http://www.w3.org/2000/svg" viewBox="0 0 43.95 39.67"><title>185</title><path d="M-118,793.08c-4.42,0-8.85,0-13.28,0-3.45,0-6.19-1.59-7.3-4.82s.55-5.87,2.28-8.93c3.81-6.72,11.21-8.37,16.3-13.21,6.2-5.92,17-2.27,19.33,6.1A10.94,10.94,0,0,0-97.51,778c2.8,2.57,3.12,6.09,1.84,9.56s-4.32,5.33-8,5.48C-108.44,793.22-113.2,793.08-118,793.08Zm.24-2.93c4.57,0,9.14,0,13.72,0,3.24,0,5.2-2,6-4.89a5,5,0,0,0-2.83-6.11c-2-.93-2.22-2.35-2.38-4.28-.45-5.39-5-9.78-9.93-8.11-6.83,2.29-12.89,6.66-18.09,11.86-.84.83-.78,2.38-2.25,3-2.43,1-2.81,3.07-2.24,5.31.68,2.69,2.79,3.32,5.3,3.29C-126.22,790.13-122,790.16-117.72,790.15Z" transform="translate(138.91 -763.21)" style="fill:#939598"/><path d="M-122.53,802.87c-1-.19-1.37-.76-1-1.69.58-1.28,1-2.81,2.74-3,.92-.09,1.63.42,1.25,1.42C-120,801.1-120.51,802.75-122.53,802.87Z" transform="translate(138.91 -763.21)" style="fill:#dfdfdf"/><path d="M-113.56,799.66c-.67,1.34-1,3.13-3,3.18-1,0-1.43-.66-1-1.6.56-1.3,1-2.82,2.69-3C-114,798.11-113.38,798.55-113.56,799.66Z" transform="translate(138.91 -763.21)" style="fill:#dfdfdf"/><path d="M-110.64,802.88c-1-.17-1.47-.67-1-1.63.56-1.29,1-2.81,2.69-3,.92-.11,1.67.37,1.33,1.35C-108.18,801-108.66,802.69-110.64,802.88Z" transform="translate(138.91 -763.21)" style="fill:#dfdfdf"/><path d="M-129.21,798.47c1.28-.56,2.88-.9,3.57.16.88,1.35-.36,2.6-1.53,3.83A5.34,5.34,0,0,1-129.21,798.47Z" transform="translate(138.91 -763.21)" style="fill:#e0e0e0"/><path d="M-117.72,790.16c-4.25,0-8.5,0-12.75,0-2.51,0-4.62-.6-5.3-3.29-.57-2.24-.19-4.34,2.24-5.31,1.47-.59,1.41-2.14,2.25-3,5.2-5.2,11.26-9.57,18.09-11.86,5-1.67,9.48,2.72,9.93,8.11.16,1.93.39,3.35,2.38,4.28A5,5,0,0,1-98,785.25c-.75,2.9-2.71,4.85-6,4.89C-108.58,790.19-113.15,790.15-117.72,790.16Z" transform="translate(138.91 -763.21)" style="fill:#e5e6e7"/></svg>