<svg id="_200" data-name="200" xmlns="http://www.w3.org/2000/svg" viewBox="0 0 52.42 49.04"><title>200</title><path d="M-89.22,737.08c9.69-7.51,18.81-4.69,21.92,6.94.46,1.7,1.63,2.3,2.6,3.31a8.7,8.7,0,0,1,2,9.54,8.27,8.27,0,0,1-7.86,5.69c-3.43.15-6.88,0-10.32,0,.28-.92.55-1.84.83-2.76,3,0,5.91,0,8.85-.14,2.64-.14,4.87-1.32,5.72-3.92s.25-5.32-2.33-6.89c-1.73-1.06-2.25-2.31-2.45-4.31-.6-5.84-5.77-10.28-10.94-8.19-5.84,2.36-11,6.54-16.26,10.12-1.52,1-.79,3.74-3.19,4.61a3.89,3.89,0,0,0-2.53,5.16,5.12,5.12,0,0,0,5.37,3.48c3.93-.08,7.87,0,11.8,0l-.91,2.76c-3.27,0-6.53.13-9.79.12-8.62,0-11.63-5-7.75-12.82l2-1.58a19.88,19.88,0,0,1,11.68-9.08Z" transform="translate(114.48 -725.32)" style="fill:#353534"/><path d="M-102.49,748.2l-2,1.58c-3.9-6-3.58-11.27.91-14.83s9.56-2.69,14.32,2.13l-1.59,2c-1.86-.86-2.86-3-5.31-3.1-2.78-.11-5,.5-6.8,2.76C-105.66,742.15-103.85,745.12-102.49,748.2Z" transform="translate(114.48 -725.32)" style="fill:#fdb307"/><path d="M-86.91,762.48l.91-2.76c.88-1.49,1.8-3,2.63-4.5.61-1.12,1.48-1.9,2.64-1.18s0,1.65-.25,2.46c-.37,1.31-2.26,3,.94,3.29-.28.92-.55,1.84-.83,2.76-.87,3.05.84,6.54-1.88,9.35-1.07,1.11-1.28,3.13-4,2.25,2.84-3.21-.83-7.25,1.74-10.71C-84.62,762.87-86.25,762.81-86.91,762.48Z" transform="translate(114.48 -725.32)" style="fill:#fcb209"/><path d="M-87.88,729c-.64,1.18-.9,2.88-2.6,3.16a1.28,1.28,0,0,1-1.38-1.59c.39-1.38.82-3,2.52-3.27C-88.58,727.18-87.9,728-87.88,729Z" transform="translate(114.48 -725.32)" style="fill:#febd2b"/><path d="M-96.92,725.34c1.65.31,1,1.85,1.06,3s-.29,2-1.59,1.81c-2-.26-1.18-1.91-1.3-3S-98.6,725.17-96.92,725.34Z" transform="translate(114.48 -725.32)" style="fill:#feb30a"/><path d="M-102.77,730.5c0,1-.66,1.72-1.47,1.61-1.71-.25-2.09-1.87-2.47-3.2a1.29,1.29,0,0,1,1.38-1.56C-103.72,727.68-103.4,729.31-102.77,730.5Z" transform="translate(114.48 -725.32)" style="fill:#feba1f"/><path d="M-109.81,742.9c-.26,1.48-1.58,1-2.58,1.06s-2.09.19-2.09-1.2c0-2,1.61-1.52,2.78-1.56S-109.78,741.42-109.81,742.9Z" transform="translate(114.48 -725.32)" style="fill:#feb000"/><path d="M-109.62,748.1a1.43,1.43,0,0,1,1.71,1.41c-.22,1.75-1.89,2.06-3.25,2.45a1.1,1.1,0,0,1-1.35-1.08C-112.5,749-110.68,748.87-109.62,748.1Z" transform="translate(114.48 -725.32)" style="fill:#feb819"/><path d="M-107.85,735.88c-.44.75-1,1.59-1.88,1.12-1.19-.61-3.12-.73-2.72-2.82a1.18,1.18,0,0,1,1.91-.75C-109.53,734.07-107.95,734.21-107.85,735.88Z" transform="translate(114.48 -725.32)" style="fill:#feb612"/><path d="M-80,759.79c-3.2-.28-1.31-2-.94-3.29.23-.81,1.43-1.73.25-2.46s-2,.06-2.64,1.18c-.83,1.53-1.75,3-2.63,4.5-3.93,0-7.87-.09-11.8,0a5.12,5.12,0,0,1-5.37-3.48,3.89,3.89,0,0,1,2.53-5.16c2.4-.87,1.67-3.59,3.19-4.61,5.31-3.58,10.42-7.76,16.26-10.12,5.17-2.09,10.34,2.35,10.94,8.19.2,2,.72,3.25,2.45,4.31,2.58,1.57,3.22,4.17,2.33,6.89s-3.08,3.78-5.72,3.92C-74.13,759.8-77.09,759.75-80,759.79Z" transform="translate(114.48 -725.32)" style="fill:#7f8184"/><path d="M-102.49,748.2c-1.36-3.08-3.17-6.05-.43-9.42,1.83-2.26,4-2.87,6.8-2.76,2.45.09,3.45,2.24,5.31,3.1A19.88,19.88,0,0,0-102.49,748.2Z" transform="translate(114.48 -725.32)" style="fill:#fded00"/></svg>