<svg id="_227" data-name="227" xmlns="http://www.w3.org/2000/svg" viewBox="0 0 43.95 41.22"><title>227</title><path d="M-114.41,652.06c-4.42,0-8.85,0-13.28,0-3.45,0-6.19-1.58-7.3-4.81s.55-5.88,2.28-8.93c3.81-6.73,11.21-8.37,16.3-13.22,6.2-5.92,17-2.26,19.33,6.11A10.84,10.84,0,0,0-94,637c2.8,2.57,3.11,6.1,1.84,9.56-1.33,3.62-4.32,5.34-8,5.48C-104.89,652.19-109.65,652.06-114.41,652.06Zm.36-2.94c4.58,0,9.15,0,13.72,0,3-.05,4.86-1.86,5.72-4.54A4.92,4.92,0,0,0-97,638.31c-2-1.07-2.54-2.43-2.71-4.6-.44-5.64-5.67-9.91-11-8-6,2.18-10.42,7.31-16.17,10.25-1.53.78-.94,3.72-3.17,4.62-2.44,1-2.7,3.16-2.1,5.36.65,2.41,2.55,3.18,4.91,3.16C-122.87,649.11-118.46,649.14-114,649.12Z" transform="translate(135.36 -622.18)" style="fill:#939598"/><path d="M-120.42,655.84c3.36-.68,2.69,2.85,4.34,3.83-2,.58-1.09,3.89-4.52,3.73-3.21-.15-2.79-2.65-4.23-3.81C-123.54,658.06-123.69,654.77-120.42,655.84Z" transform="translate(135.36 -622.18)" style="fill:#d6d7d8"/><path d="M-106,656c2.12.88,6-1.32,6.14,1.76.08,2.31-3.91,1.24-6,1.13s-6,1.62-6.08-1.47C-112,654.84-108,656.82-106,656Z" transform="translate(135.36 -622.18)" style="fill:#d0d1d2"/><path d="M-102.32,661.75c-3.2,1.44-6.42,1.46-10.74.45C-108.82,660.17-105.55,661.22-102.32,661.75Z" transform="translate(135.36 -622.18)" style="fill:#d0d1d2"/><path d="M-114,649.13c-4.41,0-8.82,0-13.23,0-2.36,0-4.26-.75-4.91-3.16-.6-2.2-.34-4.38,2.1-5.36,2.23-.9,1.64-3.84,3.17-4.62,5.75-2.94,10.22-8.07,16.17-10.25,5.34-2,10.57,2.32,11,8,.17,2.17.68,3.53,2.71,4.6a4.92,4.92,0,0,1,2.42,6.26c-.86,2.68-2.71,4.49-5.72,4.54C-104.9,649.17-109.47,649.12-114,649.13Z" transform="translate(135.36 -622.18)" style="fill:#e5e6e7"/></svg>