<svg id="_230" data-name="230" xmlns="http://www.w3.org/2000/svg" viewBox="0 0 43.95 41.31"><title>230</title><path d="M-87.19,732.83c-4.42,0-8.85,0-13.28,0-3.45,0-6.19-1.58-7.3-4.81s.55-5.88,2.28-8.93c3.81-6.73,11.21-8.37,16.3-13.22,6.2-5.92,17-2.26,19.33,6.11a10.84,10.84,0,0,0,3.12,5.77c2.8,2.57,3.12,6.1,1.84,9.56-1.33,3.61-4.32,5.34-8,5.48C-77.67,733-82.43,732.83-87.19,732.83Zm.44-2.94c4.58,0,9.15.06,13.72,0,3-.06,4.86-1.92,5.66-4.61A5,5,0,0,0-69.86,719a4.44,4.44,0,0,1-2.64-4.13c-.48-6.08-5.67-10.53-11.08-8.32C-89.4,709-94.5,713.15-99.74,716.8c-1.47,1-1,3.73-3.19,4.63-2.45,1-2.64,3.22-2,5.4.69,2.39,2.62,3.11,5,3.09C-95.57,729.88-91.16,729.9-86.75,729.89Z" transform="translate(108.14 -702.95)" style="fill:#939598"/><path d="M-99.06,743.93c-3.41.87-4-2.24-4.13-3.89-.07-1.19,1-3.47,4.06-3.66,3.64-.22,2.34,3.42,4.42,3.89C-96.81,740.72-95.5,745.27-99.06,743.93Z" transform="translate(108.14 -702.95)" style="fill:#d6d7d8"/><path d="M-87.51,744.07c-2.89,1-2.87-2.26-4.21-3.77,1.47-1.12,1-3.64,4.13-3.92,3.52-.32,2.77,2.92,4.61,3.64C-84.3,741.35-84.21,744.15-87.51,744.07Z" transform="translate(108.14 -702.95)" style="fill:#d6d7d8"/><path d="M-72.85,739.89c-2-.9-5.9,1.34-6-1.74C-78.88,735.69-75,737-73,737c2.22,0,6.3-1.28,6.31,1.24C-66.69,741.12-70.71,739-72.85,739.89Z" transform="translate(108.14 -702.95)" style="fill:#d0d1d2"/><path d="M-78.87,742.61c3.25-1,6.48-1.35,9.64.32C-72.47,743.6-75.71,744.24-78.87,742.61Z" transform="translate(108.14 -702.95)" style="fill:#d0d1d2"/><path d="M-86.75,729.9c-4.41,0-8.82,0-13.23,0-2.35,0-4.28-.7-5-3.09-.62-2.18-.43-4.41,2-5.4,2.23-.9,1.72-3.61,3.19-4.63,5.24-3.65,10.34-7.85,16.16-10.23,5.41-2.21,10.6,2.24,11.08,8.32A4.44,4.44,0,0,0-69.86,719a5,5,0,0,1,2.49,6.24c-.8,2.69-2.65,4.55-5.66,4.61C-77.6,730-82.17,729.89-86.75,729.9Z" transform="translate(108.14 -702.95)" style="fill:#e5e6e7"/></svg>