<svg id="_248" data-name="248" xmlns="http://www.w3.org/2000/svg" viewBox="0 0 43.75 39.84"><title>248</title><path d="M-146.53,552.39c-4.42,0-8.85.08-13.26,0-3.43-.08-6.25-1.77-7.21-5s.55-5.84,2.39-8.89c4.05-6.73,11.5-8.62,16.75-13.56,5.89-5.54,16.68-1.44,18.75,6.71a9.59,9.59,0,0,0,2.84,5.32c3,2.69,3.28,6.3,2,9.94s-4.49,5.18-8,5.39C-137,552.6-141.78,552.39-146.53,552.39Zm.4-2.94c4.43,0,8.85-.05,13.28,0,3.32,0,5.29-1.9,6.19-4.67a5,5,0,0,0-2.86-6.47c-1.74-.8-2.16-2-2.31-3.87-.48-5.92-5.39-10.57-10.52-8.3-6.41,2.82-13,6.27-17.63,12.06-.77,1-1.07,2.28-2.39,2.88-2.55,1.18-2.31,3.48-1.7,5.52s2.44,2.88,4.65,2.85C-155,549.41-150.56,549.45-146.13,549.45Z" transform="translate(167.3 -522.42)" style="fill:#d1d2d3"/><path d="M-145.45,554.41c4.58,0,9.16,0,13.74,0,1.11,0,2.6-.12,2.57,1.49s-1.52,1.42-2.62,1.42q-14,0-28,0c-1,0-2.16.06-2.3-1.24-.17-1.71,1.23-1.65,2.35-1.66C-154.94,554.39-150.19,554.41-145.45,554.41Z" transform="translate(167.3 -522.42)" style="fill:#d2d2d3"/><path d="M-145.59,562.25c-4.58,0-9.16,0-13.74,0-1.08,0-2.57.27-2.71-1.33s1.35-1.57,2.44-1.57q14,0,28,0c1.09,0,2.59-.13,2.47,1.55s-1.6,1.35-2.69,1.36C-136.42,562.27-141,562.25-145.59,562.25Z" transform="translate(167.3 -522.42)" style="fill:#d1d2d3"/></svg>