<svg id="_260" data-name="260" xmlns="http://www.w3.org/2000/svg" viewBox="0 0 43.75 39.89"><title>260</title><path d="M-124.74,697.26c-4.42,0-8.84.08-13.26,0-3.42-.08-6.24-1.77-7.21-5s.55-5.84,2.39-8.89c4.06-6.73,11.51-8.62,16.75-13.56,5.89-5.54,16.69-1.44,18.75,6.71a9.6,9.6,0,0,0,2.85,5.32c2.94,2.69,3.28,6.3,2,9.95s-4.5,5.17-8,5.38C-115.23,697.47-120,697.26-124.74,697.26Zm.4-2.94c4.43,0,8.86,0,13.29,0,3.32,0,5.28-1.9,6.19-4.67a5,5,0,0,0-2.86-6.47c-1.74-.8-2.16-2-2.31-3.87-.49-5.91-5.39-10.57-10.53-8.3-6.41,2.83-13,6.27-17.62,12.07-.78,1-1.08,2.27-2.4,2.88-2.55,1.17-2.31,3.47-1.7,5.51s2.45,2.88,4.65,2.85C-133.2,694.28-128.77,694.32-124.34,694.32Z" transform="translate(145.51 -667.29)" style="fill:#d1d2d3"/><path d="M-120.71,707.13c-3.26,0-6.52,0-9.78,0-.83,0-2.17.52-2.28-1a1.73,1.73,0,0,1,1.83-1.87q11-.06,22,0c.88,0,1.67.46,1.62,1.43-.07,1.27-1.14,1.42-2.15,1.43-3.75,0-7.5,0-11.25,0Z" transform="translate(145.51 -667.29)" style="fill:#d1d2d3"/><path d="M-119.12,702.19c-3.11,0-6.21,0-9.31,0-.79,0-1.77,0-1.77-1.14a1.58,1.58,0,0,1,1.55-1.59c6.69-.07,13.37-.07,20.06-.05a1.23,1.23,0,0,1,1.26,1.23c0,1.34-1,1.54-2,1.55C-112.6,702.21-115.86,702.19-119.12,702.19Z" transform="translate(145.51 -667.29)" style="fill:#d2d3d4"/><path d="M-136.93,707c-1.43-2.58-3.9-4.89-2.78-7.07.82-1.62,4-.69,6.51-.37A25.11,25.11,0,0,1-136.93,707Z" transform="translate(145.51 -667.29)" style="fill:#d4d5d6"/></svg>