<svg id="_263" data-name="263" xmlns="http://www.w3.org/2000/svg" viewBox="0 0 43.94 39.88"><title>263</title><path d="M-144.94,607.49c-4.27,0-8.53,0-12.79,0-3.65,0-6.57-1.45-7.75-4.9-1.12-3.29.64-5.86,2.34-8.91,3.8-6.76,11.23-8.35,16.31-13.2,6.37-6.08,17.28-2.06,19.41,6.67a8.72,8.72,0,0,0,2.69,4.92c3,2.7,3.47,6.28,2.11,9.93s-4.35,5.3-8.06,5.43C-135.43,607.61-140.19,607.48-144.94,607.49Zm.51-2.94c4.57,0,9.15.06,13.72,0,3,0,4.86-1.92,5.65-4.61a5,5,0,0,0-2.5-6.24,4.43,4.43,0,0,1-2.63-4.13c-.48-6.08-5.68-10.52-11.09-8.31-5.82,2.38-10.92,6.58-16.16,10.23-1.46,1-1,3.73-3.19,4.63-2.45,1-2.63,3.23-2,5.4.69,2.39,2.63,3.11,5,3.08C-153.26,604.53-148.84,604.56-144.43,604.55Z" transform="translate(165.83 -577.58)" style="fill:#939598"/><path d="M-154.86,617.46c-1.54-.17-2.15-.55-1.53-1.56.79-1.28.81-3.27,2.9-3.42.8-.05,1.81.14,1.27,1.26C-152.93,615.22-153.22,617.2-154.86,617.46Z" transform="translate(165.83 -577.58)" style="fill:#3492e9"/><path d="M-151,617.06c1.15-1.85.88-4.48,3.76-4.57.75,0,1.35.46.94,1.15C-147.22,615.24-147.24,618-151,617.06Z" transform="translate(165.83 -577.58)" style="fill:#3492e9"/><path d="M-145,616.88c1.09-1.66.8-4.38,3.71-4.37,1.16,0,1.21.77.72,1.61C-141.51,615.76-141.81,618.46-145,616.88Z" transform="translate(165.83 -577.58)" style="fill:#3492e9"/><path d="M-134.43,613.71c-1,1.24-.81,3.55-3.15,3.67-.83,0-1.78-.25-1.14-1.35.82-1.4.83-3.65,3.29-3.55C-134.72,612.51-134.23,612.78-134.43,613.71Z" transform="translate(165.83 -577.58)" style="fill:#3492e9"/><path d="M-144.43,604.55c-4.41,0-8.83,0-13.24,0-2.34,0-4.28-.69-5-3.08-.62-2.17-.44-4.41,2-5.4,2.23-.9,1.73-3.6,3.19-4.63,5.24-3.65,10.34-7.85,16.16-10.23,5.41-2.21,10.61,2.23,11.09,8.31a4.43,4.43,0,0,0,2.63,4.13,5,5,0,0,1,2.5,6.24c-.79,2.69-2.65,4.56-5.65,4.61C-135.28,604.61-139.86,604.55-144.43,604.55Z" transform="translate(165.83 -577.58)" style="fill:#e5e6e7"/></svg>