<svg id="_266" data-name="266" xmlns="http://www.w3.org/2000/svg" viewBox="0 0 43.94 39.88"><title>266</title><path d="M-356.07,540.51c-4.26,0-8.52,0-12.79,0-3.64,0-6.57-1.45-7.75-4.9-1.12-3.29.64-5.86,2.35-8.91,3.79-6.76,11.22-8.35,16.31-13.2,6.37-6.08,17.28-2.06,19.4,6.67a8.73,8.73,0,0,0,2.7,4.92c3,2.7,3.46,6.28,2.11,9.93s-4.36,5.3-8.06,5.43C-346.55,540.63-351.31,540.5-356.07,540.51Zm.51-2.94c4.58,0,9.15.06,13.72,0,3-.06,4.86-1.92,5.66-4.61a5,5,0,0,0-2.51-6.24,4.44,4.44,0,0,1-2.63-4.14c-.47-6.07-5.67-10.52-11.09-8.3-5.81,2.38-10.92,6.58-16.15,10.23-1.47,1-1,3.73-3.2,4.63-2.44,1-2.63,3.22-2,5.4.69,2.39,2.62,3.1,5,3.08C-364.38,537.55-360,537.58-355.56,537.57Z" transform="translate(376.96 -510.6)" style="fill:#939598"/><path d="M-366,550.47c-1.54-.16-2.16-.54-1.54-1.55.79-1.28.81-3.28,2.9-3.42.81,0,1.82.14,1.28,1.26C-364,548.24-364.34,550.22-366,550.47Z" transform="translate(376.96 -510.6)" style="fill:#3492e9"/><path d="M-362.1,550.08c1.15-1.85.89-4.48,3.77-4.57.75,0,1.34.46.94,1.15C-358.34,548.25-358.36,551.05-362.1,550.08Z" transform="translate(376.96 -510.6)" style="fill:#3492e9"/><path d="M-356.11,549.9c1.1-1.66.8-4.38,3.71-4.37,1.16,0,1.21.77.72,1.61C-352.64,548.78-352.94,551.48-356.11,549.9Z" transform="translate(376.96 -510.6)" style="fill:#3492e9"/><path d="M-345.55,546.73c-1,1.24-.81,3.55-3.16,3.67-.82,0-1.77-.25-1.13-1.35.82-1.4.82-3.65,3.28-3.55C-345.85,545.53-345.36,545.8-345.55,546.73Z" transform="translate(376.96 -510.6)" style="fill:#3492e9"/><path d="M-355.56,537.57c-4.41,0-8.82,0-13.23,0-2.35,0-4.28-.69-5-3.08-.63-2.18-.44-4.41,2-5.4,2.24-.9,1.73-3.6,3.2-4.63,5.23-3.65,10.34-7.85,16.15-10.23,5.42-2.22,10.62,2.23,11.09,8.3a4.44,4.44,0,0,0,2.63,4.14,5,5,0,0,1,2.51,6.24c-.8,2.69-2.65,4.55-5.66,4.61C-346.41,537.63-351,537.57-355.56,537.57Z" transform="translate(376.96 -510.6)" style="fill:#e5e6e7"/></svg>