<svg id="_281" data-name="281" xmlns="http://www.w3.org/2000/svg" viewBox="0 0 43.95 39.67"><title>281</title><path d="M-482.22,550.81c-4.42,0-8.85,0-13.28,0-3.45,0-6.19-1.59-7.3-4.82s.55-5.87,2.28-8.93c3.81-6.72,11.21-8.37,16.3-13.21,6.2-5.92,17-2.27,19.33,6.11a11,11,0,0,0,3.12,5.77c2.8,2.57,3.12,6.1,1.84,9.56-1.33,3.61-4.32,5.34-8,5.48C-472.7,550.94-477.46,550.8-482.22,550.81Zm.24-2.94c4.57,0,9.14,0,13.72,0,3.24,0,5.2-2,5.95-4.89a5,5,0,0,0-2.83-6.11c-2-.93-2.22-2.35-2.38-4.28-.45-5.39-5-9.78-9.93-8.11-6.83,2.29-12.89,6.66-18.09,11.86-.84.83-.78,2.38-2.25,3-2.43,1-2.81,3.07-2.24,5.31.68,2.69,2.79,3.32,5.3,3.29C-490.48,547.85-486.23,547.88-482,547.87Z" transform="translate(503.17 -520.93)" style="fill:#939598"/><path d="M-486.79,560.6c-1-.2-1.37-.77-1-1.69.58-1.29,1-2.82,2.74-3,.92-.08,1.63.42,1.25,1.42C-484.31,558.82-484.77,560.47-486.79,560.6Z" transform="translate(503.17 -520.93)" style="fill:#dfdfdf"/><path d="M-477.82,557.38c-.67,1.34-1,3.13-3,3.18-1,0-1.43-.65-1-1.6.56-1.29,1-2.82,2.69-3C-478.23,555.84-477.64,556.27-477.82,557.38Z" transform="translate(503.17 -520.93)" style="fill:#dfdfdf"/><path d="M-474.9,560.6c-1-.16-1.47-.67-1.05-1.63.56-1.29.95-2.81,2.69-3,.92-.11,1.67.37,1.33,1.36C-472.44,558.77-472.92,560.41-474.9,560.6Z" transform="translate(503.17 -520.93)" style="fill:#dfdfdf"/><path d="M-493.47,556.19c1.28-.56,2.88-.9,3.57.16.88,1.35-.36,2.6-1.53,3.83A5.34,5.34,0,0,1-493.47,556.19Z" transform="translate(503.17 -520.93)" style="fill:#e0e0e0"/><path d="M-482,547.88c-4.25,0-8.5,0-12.75,0-2.51,0-4.62-.6-5.3-3.29-.57-2.24-.19-4.34,2.24-5.31,1.47-.59,1.41-2.14,2.25-3,5.2-5.2,11.26-9.57,18.09-11.86,5-1.67,9.48,2.72,9.93,8.11.16,1.93.39,3.35,2.38,4.28a5,5,0,0,1,2.83,6.11c-.75,2.9-2.71,4.85-5.95,4.89C-472.84,547.91-477.41,547.87-482,547.88Z" transform="translate(503.17 -520.93)" style="fill:#e5e6e7"/></svg>