<svg id="_284" data-name="284" xmlns="http://www.w3.org/2000/svg" viewBox="0 0 43.94 39.7"><title>284</title><path d="M-462.66,624.37c-4.26,0-8.53,0-12.79,0-3.64,0-6.57-1.45-7.75-4.9-1.12-3.29.64-5.86,2.35-8.91,3.79-6.76,11.22-8.35,16.31-13.21,6.37-6.07,17.28-2.05,19.4,6.68a8.73,8.73,0,0,0,2.7,4.92c3,2.7,3.46,6.28,2.11,9.93s-4.36,5.3-8.06,5.43C-453.14,624.49-457.9,624.36-462.66,624.37Zm.59-2.93v0c4.58,0,9.15.08,13.72,0,3-.07,4.85-2,5.6-4.68a5,5,0,0,0-2.6-6.2c-1.84-.94-2.4-2.14-2.56-4.18-.43-5.69-5-10-10.22-8.31-6.61,2.12-12.07,6.88-17.52,11.25-1,.83-.66,2.82-2.35,3.49-2.65,1-3.07,3.3-2.33,5.69.81,2.64,3.06,3,5.52,3C-470.56,621.39-466.32,621.44-462.07,621.44Z" transform="translate(483.55 -594.46)" style="fill:#939598"/><path d="M-471.82,629.52c1.35-.09,2.1.3,1.79,1.29-.4,1.33-.86,2.81-2.47,3.26-.84.22-1.82,0-1.64-1C-473.86,631.48-473.18,630-471.82,629.52Z" transform="translate(483.55 -594.46)" style="fill:#dfdfdf"/><path d="M-464,630.67c-.63,1.4-.91,3.14-2.85,3.44-.92.14-1.66-.36-1.33-1.35.44-1.33.88-2.82,2.52-3.22C-464.83,629.32-464.14,629.58-464,630.67Z" transform="translate(483.55 -594.46)" style="fill:#dfdfdf"/><path d="M-461.27,634.15c-1-.2-1.36-.76-1-1.69.58-1.29,1-2.81,2.74-3,.92-.08,1.62.42,1.24,1.43C-458.78,632.38-459.25,634-461.27,634.15Z" transform="translate(483.55 -594.46)" style="fill:#dfdfdf"/><path d="M-453.61,629.46c1,.08,1.66.47,1.28,1.49-.5,1.31-.91,2.8-2.59,3.14-.92.19-1.78-.24-1.5-1.19C-456,631.41-455.48,629.78-453.61,629.46Z" transform="translate(483.55 -594.46)" style="fill:#dfdfdf"/><path d="M-446.31,630.67c-.63,1.4-.91,3.14-2.84,3.44-.92.14-1.66-.36-1.33-1.35.44-1.33.87-2.82,2.51-3.22C-447.1,629.32-446.42,629.58-446.31,630.67Z" transform="translate(483.55 -594.46)" style="fill:#dfdfdf"/><path d="M-477.73,634.1c-1-1.69-2.68-2.86-1.56-4.46a2.18,2.18,0,0,1,3,.18C-475.16,631.57-476.93,632.52-477.73,634.1Z" transform="translate(483.55 -594.46)" style="fill:#e0e0e0"/><path d="M-462.07,621.44c-4.25,0-8.49-.05-12.74,0-2.46,0-4.71-.37-5.52-3-.74-2.39-.32-4.64,2.33-5.69,1.69-.67,1.31-2.66,2.35-3.49,5.45-4.37,10.91-9.13,17.52-11.25,5.23-1.68,9.79,2.62,10.22,8.31.16,2,.72,3.24,2.56,4.18a5,5,0,0,1,2.6,6.2c-.75,2.7-2.6,4.61-5.6,4.68-4.57.11-9.14,0-13.72,0Z" transform="translate(483.55 -594.46)" style="fill:#e5e6e7"/></svg>