<svg id="_293" data-name="293" xmlns="http://www.w3.org/2000/svg" viewBox="0 0 52.42 48.92"><title>293</title><path d="M-364.39,500c10.6-7.53,17.87-5.16,22.17,7.32.49,1.43,1.58,2,2.49,2.88a8.64,8.64,0,0,1,2,9.54,8,8,0,0,1-7.39,5.66c-9.83.21-19.68.39-29.49,0-6.05-.27-8.05-6.08-4.89-12.7l2-1.59a19.5,19.5,0,0,1,11.65-9Zm5,22.58c4.41,0,8.83,0,13.24,0a5.63,5.63,0,0,0,5.67-3.89c.87-2.44.55-5.09-1.85-6.56-2.22-1.38-2.68-3.11-3-5.55-.75-5.84-7.54-9.91-12.55-7-4.66,2.75-8.48,6.91-13.8,8.8-.83.3-1.3,1.81-1.75,2.85s-.62,2.07-2,2.56c-2.26.82-3.49,2.76-2.87,5,.7,2.59,2.77,3.84,5.62,3.77C-368.24,522.55-363.82,522.62-359.41,522.61Z" transform="translate(389.49 -488.25)" style="fill:#939597"/><path d="M-364.39,500l-1.42,2c-1.84-.88-2.85-3-5.3-3.12-2.77-.11-5,.48-6.81,2.75-2.72,3.37-1,6.34.46,9.4l-2,1.59c-3.92-6-3.61-11.21.89-14.79S-368.78,495.21-364.39,500Z" transform="translate(389.49 -488.25)" style="fill:#feb307"/><path d="M-366.62,537.06c1.77-2.94,1.13-7.78,7.14-8.78C-362.35,531.77-361.92,536.44-366.62,537.06Z" transform="translate(389.49 -488.25)" style="fill:#298de8"/><path d="M-360.59,537.17c1.41-3.23,1.41-7.59,5.85-8.41C-356.32,531.86-356.2,536.3-360.59,537.17Z" transform="translate(389.49 -488.25)" style="fill:#2d8ee9"/><path d="M-365.62,495.12c-.92-.33-1.58-.95-1.2-1.82.54-1.26.76-3.05,2.66-3A1.27,1.27,0,0,1-363,492C-363.52,493.3-363.83,494.91-365.62,495.12Z" transform="translate(389.49 -488.25)" style="fill:#febd2b"/><path d="M-371.92,488.27c1.64.31,1,1.85,1.05,3s-.29,2-1.59,1.8c-2-.26-1.18-1.9-1.29-3S-373.61,488.09-371.92,488.27Z" transform="translate(389.49 -488.25)" style="fill:#feb30a"/><path d="M-377.74,493.56c-.18.94-.75,1.65-1.61,1.46-1.65-.37-2.07-1.94-2.38-3.29a1.28,1.28,0,0,1,1.51-1.43C-378.67,490.74-378.34,492.33-377.74,493.56Z" transform="translate(389.49 -488.25)" style="fill:#feba1f"/><path d="M-387,506.92c-1-.17-2.45.45-2.51-1.3s1.27-1.52,2.37-1.51,2.38-.06,2.29,1.61C-384.91,507.15-386.11,506.78-387,506.92Z" transform="translate(389.49 -488.25)" style="fill:#feb000"/><path d="M-384.6,511a1.43,1.43,0,0,1,1.68,1.44c-.25,1.73-1.89,2.06-3.27,2.42a1.09,1.09,0,0,1-1.33-1.1C-387.47,511.88-385.68,511.77-384.6,511Z" transform="translate(389.49 -488.25)" style="fill:#feb819"/><path d="M-382.77,498.57c-.36.77-.82,1.71-1.72,1.4-1.3-.44-3-.71-3.05-2.62a1.11,1.11,0,0,1,1.28-1.17A4.83,4.83,0,0,1-382.77,498.57Z" transform="translate(389.49 -488.25)" style="fill:#feb612"/><path d="M-359.41,522.61c-4.41,0-8.83-.06-13.24,0-2.85.07-4.92-1.18-5.62-3.77-.62-2.25.61-4.19,2.87-5,1.34-.49,1.51-1.52,2-2.56s.92-2.55,1.75-2.85c5.32-1.89,9.14-6.05,13.8-8.8,5-2.94,11.8,1.13,12.55,7,.31,2.44.77,4.17,3,5.55,2.4,1.47,2.72,4.12,1.85,6.56a5.63,5.63,0,0,1-5.67,3.89C-350.58,522.6-355,522.61-359.41,522.61Z" transform="translate(389.49 -488.25)" style="fill:#e5e6e7"/><path d="M-377.46,511.1c-1.45-3.06-3.18-6-.46-9.4,1.83-2.27,4-2.86,6.81-2.75,2.45.1,3.46,2.24,5.3,3.12A19.5,19.5,0,0,0-377.46,511.1Z" transform="translate(389.49 -488.25)" style="fill:#fdee01"/></svg>