<svg id="_296" data-name="296" xmlns="http://www.w3.org/2000/svg" viewBox="0 0 43.94 41.86"><title>296</title><path d="M-483.55,572.41c-4.27,0-8.53,0-12.79,0-3.65,0-6.57-1.44-7.75-4.89-1.12-3.29.63-5.86,2.34-8.91,3.8-6.76,11.23-8.36,16.31-13.21,6.37-6.07,17.28-2,19.41,6.67a8.77,8.77,0,0,0,2.69,4.93c3,2.7,3.47,6.28,2.11,9.93s-4.35,5.29-8.06,5.43C-474,572.54-478.8,572.41-483.55,572.41Zm.48-2.94c4.58,0,9.15.06,13.73,0,3-.05,4.86-1.9,5.66-4.6a5,5,0,0,0-2.48-6.23c-2.1-1-2.48-2.49-2.66-4.63-.46-5.6-5.85-10-11.05-7.84-5.81,2.41-10.93,6.57-16.17,10.22-1.47,1-1,3.73-3.19,4.64-2.44,1-2.64,3.21-2,5.39.67,2.39,2.6,3.12,4.95,3.1C-491.89,569.46-487.48,569.49-483.07,569.47Z" transform="translate(504.45 -542.5)" style="fill:#939598"/><path d="M-483.21,575.36c-1.56,3.09-2.79,5.51-4,7.93a1.77,1.77,0,0,1-2.46.87c-1.41-.68-.29-1.75.13-2.34C-488,579.6-488.31,575.63-483.21,575.36Z" transform="translate(504.45 -542.5)" style="fill:#3392e9"/><path d="M-477.84,576.8c-1.34,2.3-2.68,4.85-4.3,7.21-.36.52-2.45.55-2.11-.52.9-2.85,2-5.81,4.29-7.9C-479.46,575.14-478.09,575-477.84,576.8Z" transform="translate(504.45 -542.5)" style="fill:#3392e9"/><path d="M-483.07,569.48c-4.41,0-8.82,0-13.23,0-2.35,0-4.28-.71-4.95-3.1-.62-2.18-.42-4.4,2-5.39,2.23-.91,1.72-3.61,3.19-4.64,5.24-3.65,10.36-7.81,16.17-10.22,5.2-2.16,10.59,2.24,11.05,7.84.18,2.14.56,3.59,2.66,4.63a5,5,0,0,1,2.48,6.23c-.8,2.7-2.66,4.55-5.66,4.6C-473.92,569.53-478.49,569.47-483.07,569.48Z" transform="translate(504.45 -542.5)" style="fill:#e5e6e7"/></svg>