<svg id="_299" data-name="299" xmlns="http://www.w3.org/2000/svg" viewBox="0 0 52.42 49.23"><title>299</title><path d="M-538.32,559.18c10.6-7.53,17.87-5.16,22.17,7.32.5,1.43,1.59,2,2.49,2.88a8.64,8.64,0,0,1,2,9.54,8,8,0,0,1-7.39,5.66c-9.83.21-19.68.39-29.49,0-6-.27-8-6.09-4.89-12.7l2-1.59a19.5,19.5,0,0,1,11.65-9Zm4.71,22.58c4.41,0,8.83.11,13.24,0s8-3.88,6-6.78c-3.3-4.68-4.15-10.55-8.07-14.72-1.78-1.89-4.54-3-6.73-2-6.61,3-12.87,6.77-18,12-.81.82-.76,2.27-2.28,2.86a4,4,0,0,0-2.62,5.12,5,5,0,0,0,5.29,3.56C-542.44,581.72-538,581.76-533.61,581.76Z" transform="translate(563.42 -547.37)" style="fill:#939597"/><path d="M-538.32,559.18l-1.42,2c-1.84-.88-2.85-3-5.3-3.12-2.77-.12-5,.48-6.81,2.75-2.72,3.37-1,6.33.46,9.4l-2,1.59c-3.92-6-3.61-11.21.89-14.8S-542.71,554.36-538.32,559.18Z" transform="translate(563.42 -547.37)" style="fill:#feb307"/><path d="M-533.84,587.77c-1.49,3-2.7,5.26-3.82,7.6a1.78,1.78,0,0,1-2.4,1.07c-1.41-.63-.46-1.71,0-2.35C-538.36,591.92-538.84,587.77-533.84,587.77Z" transform="translate(563.42 -547.37)" style="fill:#298de8"/><path d="M-527.84,587.52c-1.46,3-2.56,5.13-3.61,7.34-.54,1.12-1.3,2.13-2.59,1.6-1.92-.79-.35-2,.09-2.7C-532.51,591.57-532.62,587.9-527.84,587.52Z" transform="translate(563.42 -547.37)" style="fill:#2d8ee9"/><path d="M-536.85,551.17c-.65,1.11-.86,2.86-2.61,3.06a1.27,1.27,0,0,1-1.33-1.63c.43-1.35.82-3,2.56-3.2C-537.46,549.3-536.78,550-536.85,551.17Z" transform="translate(563.42 -547.37)" style="fill:#febd2b"/><path d="M-546.83,552.18c-1.51-.29-.76-1.85-.86-3s.17-2,1.54-1.82c1.69.17,1.35,1.49,1.36,2.54S-544.63,552.33-546.83,552.18Z" transform="translate(563.42 -547.37)" style="fill:#feb30a"/><path d="M-554.11,549.39a4.5,4.5,0,0,1,2.36,3.36,1.26,1.26,0,0,1-1.5,1.42c-1.66-.33-2.08-1.92-2.41-3.26C-555.85,550.14-555.09,549.5-554.11,549.39Z" transform="translate(563.42 -547.37)" style="fill:#feba1f"/><path d="M-560.91,566.07c-1-.17-2.45.45-2.51-1.3s1.27-1.52,2.37-1.51,2.38-.06,2.29,1.61C-558.84,566.3-560,565.93-560.91,566.07Z" transform="translate(563.42 -547.37)" style="fill:#feb000"/><path d="M-556.73,571.64c-.58,1.61-2,2.08-3.4,2.39a1.1,1.1,0,0,1-1.32-1.12c.09-1.86,1.75-2.22,3.05-2.7C-557.44,569.85-557.15,570.94-556.73,571.64Z" transform="translate(563.42 -547.37)" style="fill:#feb819"/><path d="M-561.57,556.78c.23-.9.61-1.74,1.63-1.4,1.21.4,2.62.81,3.08,2.16a1.3,1.3,0,0,1-1.34,1.62C-559.61,558.91-561,558.36-561.57,556.78Z" transform="translate(563.42 -547.37)" style="fill:#feb612"/><path d="M-533.61,581.76c-4.42,0-8.83,0-13.24,0a5,5,0,0,1-5.29-3.56,4,4,0,0,1,2.62-5.12c1.52-.59,1.47-2,2.28-2.86,5.15-5.25,11.41-9,18-12,2.19-1,5,.12,6.73,2,3.92,4.17,4.77,10,8.07,14.72,2,2.9-1.63,6.65-6,6.78S-529.2,581.76-533.61,581.76Z" transform="translate(563.42 -547.37)" style="fill:#e5e6e7"/><path d="M-551.39,570.25c-1.45-3.07-3.18-6-.46-9.4,1.83-2.27,4-2.87,6.81-2.75,2.45.1,3.46,2.24,5.3,3.12A19.5,19.5,0,0,0-551.39,570.25Z" transform="translate(563.42 -547.37)" style="fill:#fdee01"/></svg>