<svg id="_302" data-name="302" xmlns="http://www.w3.org/2000/svg" viewBox="0 0 43.95 41.83"><title>302</title><path d="M-426.87,550.81c-4.43,0-8.86,0-13.29,0-3.45,0-6.19-1.59-7.3-4.82s.55-5.87,2.28-8.93c3.81-6.72,11.21-8.37,16.3-13.21,6.21-5.92,17-2.27,19.33,6.11a11,11,0,0,0,3.12,5.77c2.8,2.57,3.12,6.1,1.84,9.56-1.33,3.61-4.32,5.34-8,5.48C-417.36,550.94-422.12,550.8-426.87,550.81Zm.43-2.94c4.58,0,9.15.06,13.73,0,3-.06,4.86-1.92,5.65-4.61a5,5,0,0,0-2.49-6.24,4.46,4.46,0,0,1-2.64-4.13c-.47-6.09-5.66-10.53-11.08-8.32-5.82,2.38-10.92,6.58-16.16,10.23-1.47,1-1,3.72-3.19,4.63-2.45,1-2.64,3.22-2,5.39.68,2.4,2.61,3.12,5,3.09C-435.26,547.85-430.85,547.88-426.44,547.87Z" transform="translate(447.83 -520.93)" style="fill:#939598"/><path d="M-432.27,562.68c-.57-.1-1.66,0-1.35-.8,1.14-2.8,2.05-5.78,4.35-7.91a1.42,1.42,0,0,1,2.08.46C-426.67,555.39-431.18,562.6-432.27,562.68Z" transform="translate(447.83 -520.93)" style="fill:#3392e9"/><path d="M-420.53,553.46l-4.18,8.23a1.79,1.79,0,0,1-2.47.87c-1.4-.68-.28-1.73.13-2.35C-425.53,557.92-425.57,554.22-420.53,553.46Z" transform="translate(447.83 -520.93)" style="fill:#3392e9"/><path d="M-426.44,547.88c-4.41,0-8.82,0-13.23,0-2.35,0-4.28-.69-5-3.09-.63-2.17-.44-4.4,2-5.39,2.23-.91,1.72-3.61,3.19-4.63,5.24-3.65,10.34-7.85,16.16-10.23,5.42-2.21,10.61,2.23,11.08,8.32a4.46,4.46,0,0,0,2.64,4.13,5,5,0,0,1,2.49,6.24c-.79,2.69-2.65,4.55-5.65,4.61C-417.29,547.93-421.86,547.87-426.44,547.88Z" transform="translate(447.83 -520.93)" style="fill:#e5e6e7"/></svg>