<svg id="_305" data-name="305" xmlns="http://www.w3.org/2000/svg" viewBox="0 0 52.46 49.22"><title>305</title><path d="M-485.24,530c10.6-7.53,17.88-5.16,22.18,7.32.49,1.43,1.58,2,2.48,2.88a8.64,8.64,0,0,1,2,9.54,8,8,0,0,1-7.39,5.66c-9.82.21-19.67.39-29.49,0-6.05-.27-8.05-6.08-4.89-12.7l2-1.59a19.47,19.47,0,0,1,11.65-9Zm4.69,22.57c4.58,0,9.16.15,13.73,0,3.95-.17,7.44-4,5.49-6.75-3.33-4.66-4.19-10.53-8.06-14.71-1.77-1.91-4.53-3-6.73-2a59.64,59.64,0,0,0-18,12c-.81.81-.73,2.28-2.26,2.87a4,4,0,0,0-2.65,5.12,5,5,0,0,0,5.28,3.57C-489.38,552.5-485,552.54-480.55,552.53Z" transform="translate(510.38 -518.16)" style="fill:#939597"/><path d="M-498.3,541l-2,1.59c-3.92-6-3.61-11.21.89-14.79s9.79-2.69,14.18,2.13l-1.41,2c-1.85-.88-2.86-3-5.3-3.12-2.78-.12-5,.48-6.82,2.75C-501.49,535-499.76,538-498.3,541Z" transform="translate(510.38 -518.16)" style="fill:#feb307"/><path d="M-486.56,558.35c-1.62,3.2-2.81,5.51-3.95,7.85a1.77,1.77,0,0,1-2.42,1c-1.36-.67-.37-1.71.11-2.38C-491.24,562.59-491.48,558.65-486.56,558.35Z" transform="translate(510.38 -518.16)" style="fill:#298de8"/><path d="M-480.79,558.55c-1.34,2.72-2.44,4.89-3.49,7.1-.54,1.13-1.31,2.12-2.6,1.59-1.89-.79-.36-2.07.12-2.7C-485.21,562.45-485.69,558.45-480.79,558.55Z" transform="translate(510.38 -518.16)" style="fill:#2d8ee9"/><path d="M-480.76,567.36c-.27-.19-1-.57-.92-.69,1.05-2.88,2-5.84,4.31-8a2.24,2.24,0,0,1,1.76.14c.35,1.88-1,3.25-1.77,4.73S-478.21,567.19-480.76,567.36Z" transform="translate(510.38 -518.16)" style="fill:#2d8ee9"/><path d="M-475.51,567.11c1.38-3.25,1.4-7.58,5.82-8.43C-471.24,561.8-471.16,566.21-475.51,567.11Z" transform="translate(510.38 -518.16)" style="fill:#2d8ee9"/><path d="M-483.77,522c-.76,1.08-.84,2.94-2.72,3a1.24,1.24,0,0,1-1.19-1.71c.51-1.29.77-3,2.63-3.06C-484.21,520.2-483.67,521-483.77,522Z" transform="translate(510.38 -518.16)" style="fill:#febd2b"/><path d="M-491.68,520.47c-.05,1.38.08,2.66-1.64,2.54s-1.26-1.54-1.29-2.55-.24-2.43,1.55-2.29S-491.86,519.72-491.68,520.47Z" transform="translate(510.38 -518.16)" style="fill:#feb30a"/><path d="M-498.7,523c.16,1.31-.42,2-1.25,2-1.83,0-2.09-1.75-2.58-3a1.25,1.25,0,0,1,1.22-1.67C-499.45,520.29-499.59,522.29-498.7,523Z" transform="translate(510.38 -518.16)" style="fill:#feba1f"/><path d="M-505.71,536c-.83,1.3-2.19.73-3.36.76-1,0-1.51-.59-1.24-1.52.61-2,2.3-1.16,3.58-1.1C-505.78,534.22-505.57,535.07-505.71,536Z" transform="translate(510.38 -518.16)" style="fill:#feb000"/><path d="M-503.76,543c-1,1-2.11,2-3.73,1.77a1.08,1.08,0,0,1-.86-1.48,3.7,3.7,0,0,1,3.46-2.24C-504.11,541-503.62,541.93-503.76,543Z" transform="translate(510.38 -518.16)" style="fill:#feb819"/><path d="M-503.61,528.5c-.37.77-.83,1.71-1.73,1.4-1.3-.44-3-.71-3-2.63a1.1,1.1,0,0,1,1.28-1.16A4.85,4.85,0,0,1-503.61,528.5Z" transform="translate(510.38 -518.16)" style="fill:#feb612"/><path d="M-480.55,552.54c-4.41,0-8.83,0-13.24,0a5,5,0,0,1-5.28-3.57,4,4,0,0,1,2.65-5.12c1.53-.59,1.45-2.06,2.26-2.87a59.64,59.64,0,0,1,18-12c2.2-1,5,.12,6.73,2,3.87,4.18,4.73,10.05,8.06,14.71,1.95,2.73-1.54,6.58-5.49,6.75C-471.39,552.68-476,552.53-480.55,552.54Z" transform="translate(510.38 -518.16)" style="fill:#e5e6e7"/><path d="M-498.3,541c-1.46-3.06-3.19-6-.47-9.4,1.83-2.27,4-2.87,6.82-2.75,2.44.1,3.45,2.24,5.3,3.12A19.47,19.47,0,0,0-498.3,541Z" transform="translate(510.38 -518.16)" style="fill:#fdee01"/></svg>