<svg id="_308" data-name="308" xmlns="http://www.w3.org/2000/svg" viewBox="0 0 43.95 41.83"><title>308</title><path d="M-489.7,584.69c-4.43,0-8.86,0-13.28,0-3.45,0-6.19-1.58-7.3-4.81s.55-5.88,2.28-8.93c3.8-6.73,11.21-8.37,16.29-13.22,6.21-5.92,17-2.26,19.33,6.11a11,11,0,0,0,3.12,5.77c2.8,2.57,3.12,6.1,1.85,9.56-1.33,3.61-4.32,5.34-8,5.48C-480.18,584.82-484.95,584.69-489.7,584.69Zm.39-2.94c4.57,0,9.14.06,13.72,0,3,0,4.87-1.87,5.69-4.56s0-5-2.44-6.25c-2.07-1-2.52-2.45-2.69-4.61-.45-5.63-5.72-9.91-11-7.92-5.93,2.21-10.45,7.27-16.16,10.26-1.52.8-.95,3.71-3.18,4.61-2.44,1-2.67,3.19-2.06,5.38.66,2.4,2.57,3.15,4.92,3.13C-498.14,581.74-493.73,581.76-489.31,581.75Z" transform="translate(510.65 -554.81)" style="fill:#939598"/><path d="M-495.87,589.07c-1.33,2.31-2.68,4.86-4.3,7.22-.35.52-2.45.55-2.11-.52.9-2.85,2-5.81,4.29-7.91C-497.49,587.42-496.12,587.3-495.87,589.07Z" transform="translate(510.65 -554.81)" style="fill:#3392e9"/><path d="M-489.55,587.89l-3.86,7.63a1.82,1.82,0,0,1-2.45.94c-1.49-.65-.37-1.75.06-2.3C-494.09,592-494.67,587.54-489.55,587.89Z" transform="translate(510.65 -554.81)" style="fill:#3392e9"/><path d="M-489.15,596.56c-.59-.07-1.29.09-1.46-.79s3.9-7.94,4.81-8a2.13,2.13,0,0,1,1.67.52C-483.55,589.14-488.1,596.46-489.15,596.56Z" transform="translate(510.65 -554.81)" style="fill:#3392e9"/><path d="M-485.16,596.38c1.42-2.8,2.64-5.2,3.85-7.61a1.82,1.82,0,0,1,2.43-1c1.53.62.42,1.73,0,2.28C-480.61,592.28-480,596.7-485.16,596.38Z" transform="translate(510.65 -554.81)" style="fill:#3392e9"/><path d="M-489.31,581.76c-4.42,0-8.83,0-13.24,0-2.35,0-4.26-.73-4.92-3.13-.61-2.19-.38-4.39,2.06-5.38,2.23-.9,1.66-3.81,3.18-4.61,5.71-3,10.23-8,16.16-10.26,5.32-2,10.59,2.29,11,7.92.17,2.16.62,3.56,2.69,4.61,2.46,1.25,3.22,3.67,2.44,6.25s-2.68,4.52-5.69,4.56C-480.17,581.81-484.74,581.75-489.31,581.76Z" transform="translate(510.65 -554.81)" style="fill:#e5e6e7"/></svg>