<svg id="_311" data-name="311" xmlns="http://www.w3.org/2000/svg" viewBox="0 0 43.95 41.84"><title>311</title><path d="M-547.87,533.86c-4.42,0-8.85,0-13.28,0-3.45,0-6.19-1.59-7.3-4.82s.55-5.87,2.28-8.93c3.81-6.72,11.21-8.37,16.3-13.21,6.2-5.92,17-2.27,19.33,6.11a10.88,10.88,0,0,0,3.12,5.77c2.8,2.57,3.12,6.09,1.84,9.56s-4.32,5.33-8,5.48C-538.35,534-543.11,533.86-547.87,533.86Zm.44-2.93c4.58,0,9.15.06,13.72,0,3,0,4.86-1.91,5.66-4.6a5,5,0,0,0-2.49-6.25,4.42,4.42,0,0,1-2.64-4.13c-.48-6.08-5.67-10.52-11.08-8.31-5.82,2.37-10.92,6.58-16.16,10.23-1.47,1-1,3.72-3.19,4.63-2.45,1-2.64,3.22-2,5.39.69,2.4,2.62,3.11,5,3.09C-556.25,530.91-551.84,530.94-547.43,530.93Z" transform="translate(568.82 -503.99)" style="fill:#939598"/><path d="M-554.52,537.16c-.5,3.06-2.42,5.31-3.74,8.67l-4.16-8.58A21.69,21.69,0,0,1-554.52,537.16Z" transform="translate(568.82 -503.99)" style="fill:#ddd"/><path d="M-553.12,545.68c-1.23-.23-1.8-.83-1.26-1.7,1.47-2.37,1.54-5.74,4.66-6.92a1,1,0,0,1,1.28,1.34C-549.84,541-550.11,544.34-553.12,545.68Z" transform="translate(568.82 -503.99)" style="fill:#dfdfdf"/><path d="M-547.21,545.67c-1.23-.22-1.79-.82-1.25-1.69,1.46-2.37,1.53-5.74,4.65-6.92a1,1,0,0,1,1.28,1.34C-543.93,541-544.2,544.34-547.21,545.67Z" transform="translate(568.82 -503.99)" style="fill:#dfdfdf"/><path d="M-536.49,538.3c-1.26,2.31-1.85,5.1-4,7-.71.62-2.4.61-2.13-.58.64-2.77,1.7-5.55,4-7.43C-537.8,536.62-536.69,536.78-536.49,538.3Z" transform="translate(568.82 -503.99)" style="fill:#dfdfdf"/><path d="M-547.43,530.93c-4.41,0-8.82,0-13.23,0-2.35,0-4.28-.69-5-3.09-.62-2.17-.43-4.4,2-5.39,2.23-.91,1.72-3.61,3.19-4.63,5.24-3.65,10.34-7.86,16.16-10.23,5.41-2.21,10.6,2.23,11.08,8.31a4.42,4.42,0,0,0,2.64,4.13A5,5,0,0,1-528,526.3c-.8,2.69-2.65,4.55-5.66,4.6C-538.28,531-542.85,530.93-547.43,530.93Z" transform="translate(568.82 -503.99)" style="fill:#e5e6e7"/></svg>