<svg id="_314" data-name="314" xmlns="http://www.w3.org/2000/svg" viewBox="0 0 43.94 41.72"><title>314</title><path d="M-536.63,540.22c-4.27,0-8.53,0-12.8,0-3.64,0-6.57-1.45-7.74-4.9-1.13-3.29.63-5.86,2.34-8.91,3.79-6.76,11.22-8.36,16.31-13.21,6.37-6.07,17.28-2.05,19.41,6.68a8.72,8.72,0,0,0,2.69,4.92c3,2.7,3.46,6.28,2.11,9.93s-4.36,5.3-8.06,5.43C-527.12,540.35-531.88,540.22-536.63,540.22Zm.46-2.94c4.58,0,9.15.06,13.72,0,3,0,4.87-1.88,5.68-4.57s0-5-2.46-6.24c-2.08-1.05-2.5-2.48-2.67-4.63-.46-5.62-5.74-9.9-11.06-7.89-5.91,2.24-10.46,7.25-16.15,10.27-1.51.8-.95,3.7-3.18,4.61-2.44,1-2.66,3.19-2.05,5.38.67,2.4,2.59,3.14,4.94,3.12C-545,537.27-540.58,537.3-536.17,537.28Z" transform="translate(557.53 -510.31)" style="fill:#939598"/><path d="M-543.2,543.53c-.65,3-2.29,5.39-3.88,8.44l-4.06-8.38A22.11,22.11,0,0,1-543.2,543.53Z" transform="translate(557.53 -510.31)" style="fill:#ddd"/><path d="M-537,544.66c-1.26,2.31-1.86,5.1-4,7-.71.62-2.4.61-2.13-.58.63-2.77,1.7-5.55,4-7.43C-538.33,543-537.22,543.14-537,544.66Z" transform="translate(557.53 -510.31)" style="fill:#dfdfdf"/><path d="M-535.92,552c-1.23-.22-1.79-.82-1.25-1.7,1.47-2.37,1.54-5.74,4.66-6.91a1,1,0,0,1,1.27,1.34C-532.64,547.32-532.91,550.7-535.92,552Z" transform="translate(557.53 -510.31)" style="fill:#dfdfdf"/><path d="M-530,552c-1.23-.22-1.8-.82-1.25-1.7,1.46-2.37,1.53-5.74,4.65-6.91a1,1,0,0,1,1.28,1.34C-526.73,547.32-527,550.69-530,552Z" transform="translate(557.53 -510.31)" style="fill:#dfdfdf"/><path d="M-536.17,537.29c-4.41,0-8.82,0-13.23,0-2.35,0-4.27-.72-4.94-3.12-.61-2.19-.39-4.4,2.05-5.38,2.23-.91,1.67-3.81,3.18-4.61,5.69-3,10.24-8,16.15-10.27,5.32-2,10.6,2.27,11.06,7.89.17,2.15.59,3.58,2.67,4.63,2.47,1.24,3.24,3.66,2.46,6.24s-2.67,4.52-5.68,4.57C-527,537.34-531.59,537.28-536.17,537.29Z" transform="translate(557.53 -510.31)" style="fill:#e5e6e7"/></svg>