<svg id="_317" data-name="317" xmlns="http://www.w3.org/2000/svg" viewBox="0 0 43.95 42.02"><title>317</title><path d="M-559,532.74c-4.43,0-8.86,0-13.29,0-3.45,0-6.19-1.59-7.3-4.82s.55-5.87,2.28-8.93c3.81-6.72,11.21-8.37,16.3-13.21,6.2-5.92,17-2.27,19.33,6.11a11,11,0,0,0,3.12,5.77c2.8,2.57,3.12,6.1,1.84,9.56s-4.32,5.34-8,5.48C-549.5,532.87-554.26,532.73-559,532.74Zm.21-2.94c4.57,0,9.15,0,13.72,0,3.25,0,5.21-2,6-4.87a5,5,0,0,0-2.8-6.13c-2-.92-2.23-2.33-2.4-4.26-.51-5.86-6-10.26-11.37-8-5.69,2.35-10.17,7.15-15.75,10.08-1.64.86-1.12,3.95-3.55,4.91-2.21.88-2.32,3-1.84,5a4.06,4.06,0,0,0,4.31,3.26C-567.95,529.83-563.37,529.8-558.8,529.8Z" transform="translate(579.97 -502.86)" style="fill:#939598"/><path d="M-553.54,536.46c3.5-.29,3.23,2.72,4.65,3.95-1.94.58-1,4-4.59,3.67-3.13-.3-2.73-2.72-4.16-3.88C-556.08,539-556.68,535-553.54,536.46Z" transform="translate(579.97 -502.86)" style="fill:#d6d7d8"/><path d="M-572.2,544.43c1.42-2.81,2.64-5.2,3.85-7.61a1.82,1.82,0,0,1,2.44-1c1.52.62.41,1.72,0,2.28C-567.65,540.32-567.07,544.75-572.2,544.43Z" transform="translate(579.97 -502.86)" style="fill:#3392e9"/><path d="M-566.5,544.88c1.6-3.2,2.76-5.49,3.89-7.8.59-1.21,1.64-1.76,2.75-1.17,1.32.7.18,1.75-.23,2.38C-561.6,540.56-561.54,544.3-566.5,544.88Z" transform="translate(579.97 -502.86)" style="fill:#3392e9"/><path d="M-558.8,529.8c-4.57,0-9.15,0-13.72,0a4.06,4.06,0,0,1-4.31-3.26c-.48-2-.37-4.16,1.84-5,2.43-1,1.91-4.05,3.55-4.91,5.58-2.93,10.06-7.73,15.75-10.08,5.36-2.22,10.86,2.18,11.37,8,.17,1.93.42,3.34,2.4,4.26a5,5,0,0,1,2.8,6.13c-.75,2.89-2.71,4.84-6,4.87C-549.65,529.84-554.23,529.8-558.8,529.8Z" transform="translate(579.97 -502.86)" style="fill:#e5e6e7"/></svg>