<svg id="_320" data-name="320" xmlns="http://www.w3.org/2000/svg" viewBox="0 0 43.95 41.8"><title>320</title><path d="M-489.7,594.85c-4.43,0-8.86,0-13.28,0-3.45,0-6.19-1.59-7.3-4.82s.55-5.87,2.28-8.93c3.8-6.73,11.21-8.37,16.29-13.22,6.21-5.91,17-2.26,19.33,6.11a11,11,0,0,0,3.12,5.78c2.8,2.57,3.12,6.09,1.85,9.55-1.33,3.62-4.32,5.34-8,5.49C-480.18,595-484.95,594.85-489.7,594.85Zm.21-2.93c4.58,0,9.15,0,13.73,0,3.24,0,5.2-2,6-4.88a5,5,0,0,0-2.81-6.12c-2-.93-2.23-2.33-2.4-4.27-.51-5.85-6-10.26-11.36-8-5.69,2.36-10.18,7.15-15.75,10.08-1.64.87-1.12,4-3.56,4.92-2.21.87-2.31,3-1.84,5a4.06,4.06,0,0,0,4.31,3.26C-498.64,591.94-494.06,591.91-489.49,591.92Z" transform="translate(510.65 -564.98)" style="fill:#939598"/><path d="M-484.23,598.57c3.5-.28,3.23,2.73,4.65,4-1.93.58-1,4-4.59,3.66-3.12-.3-2.72-2.71-4.16-3.87C-486.77,601.1-487.37,597.14-484.23,598.57Z" transform="translate(510.65 -564.98)" style="fill:#d6d7d8"/><path d="M-503,606.78c1.53-3,2.76-5.44,4-7.84a1.83,1.83,0,0,1,2.44-1c1.52.63.4,1.71,0,2.29C-498.26,602.51-498,606.68-503,606.78Z" transform="translate(510.65 -564.98)" style="fill:#3392e9"/><path d="M-497,606.73c1.46-2.94,2.62-5.23,3.75-7.53.59-1.21,1.64-1.76,2.75-1.17,1.32.7.2,1.76-.23,2.37C-492.35,602.62-492.06,606.57-497,606.73Z" transform="translate(510.65 -564.98)" style="fill:#3392e9"/><path d="M-489.49,591.92c-4.57,0-9.15,0-13.72,0a4.06,4.06,0,0,1-4.31-3.26c-.47-2-.37-4.17,1.84-5,2.44-1,1.92-4.05,3.56-4.92,5.57-2.93,10.06-7.72,15.75-10.08,5.36-2.22,10.85,2.19,11.36,8,.17,1.94.42,3.34,2.4,4.27A5,5,0,0,1-469.8,587c-.76,2.9-2.72,4.85-6,4.88C-480.34,592-484.91,591.92-489.49,591.92Z" transform="translate(510.65 -564.98)" style="fill:#e5e6e7"/></svg>