<svg id="_323" data-name="323" xmlns="http://www.w3.org/2000/svg" viewBox="0 0 52.43 48.67"><title>323</title><path d="M-563.59,529.25c10.6-7.53,17.88-5.16,22.18,7.32.49,1.43,1.58,2,2.48,2.88a8.64,8.64,0,0,1,2,9.54,8,8,0,0,1-7.39,5.66c-9.82.21-19.67.39-29.49,0-6.05-.27-8.05-6.09-4.89-12.7l2-1.59a19.47,19.47,0,0,1,11.65-9Zm4.69,22.57c4.58,0,9.16.15,13.73,0,4-.17,7.44-4,5.49-6.75-3.33-4.66-4.19-10.53-8.06-14.71-1.77-1.91-4.53-3-6.73-2a59.59,59.59,0,0,0-18,12c-.82.81-.74,2.28-2.27,2.87a4,4,0,0,0-2.64,5.12,5,5,0,0,0,5.27,3.57C-567.73,551.79-563.31,551.83-558.9,551.82Z" transform="translate(588.7 -517.45)" style="fill:#939597"/><path d="M-576.65,540.32l-2,1.59c-3.92-6-3.61-11.21.89-14.79s9.79-2.69,14.18,2.13l-1.41,2c-1.85-.88-2.86-3-5.3-3.12-2.78-.11-5,.48-6.82,2.75C-579.84,534.29-578.11,537.25-576.65,540.32Z" transform="translate(588.7 -517.45)" style="fill:#feb307"/><path d="M-559.3,565.54c-3.7,1.22-3.08-2.49-4.62-3.3,1.41-1,.85-3.76,3.4-3.86,2.82-.12,5,1.22,5,3.83C-555.51,563.48-556,567.65-559.3,565.54Z" transform="translate(588.7 -517.45)" style="fill:#d4d5d6"/><path d="M-563.55,519.39c.87.29,1.7.82,1.4,1.71-.44,1.34-.85,3-2.58,3.2a1.27,1.27,0,0,1-1.33-1.64C-565.63,521.31-565.19,519.83-563.55,519.39Z" transform="translate(588.7 -517.45)" style="fill:#febd2b"/><path d="M-570,519.88c-.07,1.08.2,2.42-1.5,2.43s-1.43-1.39-1.43-2.43-.32-2.44,1.43-2.43S-570.1,518.8-570,519.88Z" transform="translate(588.7 -517.45)" style="fill:#feb30a"/><path d="M-579.73,519.45c1.76.33,2.15,1.85,2.67,3.11a1.22,1.22,0,0,1-1.21,1.66c-1.86,0-2.09-1.73-2.61-3C-581.24,520.36-580.47,519.83-579.73,519.45Z" transform="translate(588.7 -517.45)" style="fill:#feba1f"/><path d="M-586.3,536.15c-1-.15-2.46.33-2.4-1.44.05-1.27,1.05-1.43,2.05-1.38s2.41-.34,2.61,1.28C-583.82,536.45-585.33,536-586.3,536.15Z" transform="translate(588.7 -517.45)" style="fill:#feb000"/><path d="M-582,541.74c-.61,1.57-2,2.06-3.42,2.35a1.09,1.09,0,0,1-1.29-1.14c.11-1.84,1.76-2.21,3.06-2.68C-582.71,539.94-582.39,541-582,541.74Z" transform="translate(588.7 -517.45)" style="fill:#feb819"/><path d="M-582,527.88c-.51.87-1,1.73-1.95,1.27-1.19-.6-3.11-.73-2.74-2.8a1.18,1.18,0,0,1,1.9-.78C-583.7,526.16-582.29,526.48-582,527.88Z" transform="translate(588.7 -517.45)" style="fill:#feb612"/><path d="M-558.9,551.83c-4.41,0-8.83,0-13.24,0a5,5,0,0,1-5.27-3.57,4,4,0,0,1,2.64-5.12c1.53-.59,1.45-2.06,2.27-2.87a59.59,59.59,0,0,1,18-12c2.2-1,5,.12,6.73,2,3.87,4.18,4.73,10,8.06,14.71,1.95,2.73-1.53,6.58-5.49,6.75C-549.74,552-554.32,551.82-558.9,551.83Z" transform="translate(588.7 -517.45)" style="fill:#e5e6e7"/><path d="M-576.65,540.32c-1.46-3.07-3.19-6-.47-9.4,1.83-2.27,4-2.86,6.82-2.75,2.44.1,3.45,2.24,5.3,3.12A19.47,19.47,0,0,0-576.65,540.32Z" transform="translate(588.7 -517.45)" style="fill:#fdee01"/></svg>