<svg id="_326" data-name="326" xmlns="http://www.w3.org/2000/svg" viewBox="0 0 43.95 41.2"><title>326</title><path d="M-559.72,492.08c-4.43,0-8.86,0-13.29,0-3.45,0-6.19-1.58-7.3-4.82s.55-5.87,2.28-8.93c3.81-6.72,11.21-8.36,16.3-13.21,6.2-5.92,17-2.26,19.33,6.11a10.91,10.91,0,0,0,3.12,5.77c2.8,2.57,3.12,6.1,1.84,9.56s-4.32,5.34-8,5.48C-550.21,492.21-555,492.07-559.72,492.08Zm.43-2.94c4.58,0,9.15.06,13.72,0,3-.06,4.87-1.92,5.66-4.61a5,5,0,0,0-2.49-6.24,4.46,4.46,0,0,1-2.64-4.13c-.47-6.09-5.67-10.53-11.08-8.32-5.82,2.38-10.92,6.58-16.16,10.23-1.47,1-1,3.73-3.19,4.63-2.45,1-2.64,3.22-2,5.4.68,2.39,2.61,3.11,5,3.08C-568.11,489.12-563.7,489.15-559.29,489.14Z" transform="translate(580.68 -462.2)" style="fill:#939598"/><path d="M-559.79,503.17c-3.42,1-4-2.21-4.13-3.88-.12-1,.85-3.54,4-3.66,3.53-.13,2.4,3.37,4.45,3.86C-557.49,500-556.21,504.46-559.79,503.17Z" transform="translate(580.68 -462.2)" style="fill:#d6d7d8"/><path d="M-559.29,489.15c-4.41,0-8.82,0-13.23,0-2.35,0-4.28-.69-5-3.08-.63-2.18-.44-4.41,2-5.4,2.23-.9,1.72-3.61,3.19-4.63,5.24-3.65,10.34-7.85,16.16-10.23,5.41-2.21,10.61,2.23,11.08,8.32a4.46,4.46,0,0,0,2.64,4.13,5,5,0,0,1,2.49,6.24c-.79,2.69-2.65,4.55-5.66,4.61C-550.14,489.2-554.71,489.14-559.29,489.15Z" transform="translate(580.68 -462.2)" style="fill:#e5e6e7"/></svg>