<svg id="_329" data-name="329" xmlns="http://www.w3.org/2000/svg" viewBox="0 0 52.43 48.67"><title>329</title><path d="M-505,539.41c10.59-7.52,17.87-5.15,22.17,7.33.49,1.42,1.58,2,2.49,2.88a8.64,8.64,0,0,1,2,9.54,7.93,7.93,0,0,1-7.39,5.65c-9.83.22-19.68.4-29.49,0-6.06-.26-8.06-6.08-4.89-12.7l2-1.59a19.52,19.52,0,0,1,11.65-9Zm4.69,22.58c4.57,0,9.16.15,13.73,0,3.95-.16,7.43-4,5.49-6.74-3.33-4.67-4.19-10.53-8.07-14.72-1.76-1.91-4.53-3-6.73-2a60,60,0,0,0-18,12c-.81.82-.74,2.29-2.26,2.88a4,4,0,0,0-2.65,5.11,5,5,0,0,0,5.27,3.58C-509.14,562-504.73,562-500.31,562Z" transform="translate(530.11 -527.62)" style="fill:#939597"/><path d="M-518.07,550.48l-2,1.59c-3.93-6-3.61-11.2.89-14.79s9.78-2.68,14.18,2.13c-.47.69-.95,1.37-1.42,2.05-1.85-.89-2.85-3-5.3-3.13-2.78-.11-5,.49-6.81,2.75C-521.25,544.45-519.52,547.42-518.07,550.48Z" transform="translate(530.11 -527.62)" style="fill:#feb307"/><path d="M-500.72,575.7c-3.7,1.23-3.08-2.48-4.62-3.29,1.42-1,.85-3.76,3.41-3.87,2.81-.12,5,1.22,5,3.83C-496.92,573.65-497.38,577.81-500.72,575.7Z" transform="translate(530.11 -527.62)" style="fill:#d4d5d6"/><path d="M-505,529.55c.88.3,1.7.82,1.41,1.71-.44,1.35-.85,3-2.59,3.2a1.26,1.26,0,0,1-1.32-1.63C-507,531.47-506.61,530-505,529.55Z" transform="translate(530.11 -527.62)" style="fill:#febd2b"/><path d="M-511.45,530.05c-.07,1.08.2,2.42-1.5,2.42s-1.43-1.39-1.43-2.43-.32-2.44,1.43-2.42S-511.51,529-511.45,530.05Z" transform="translate(530.11 -527.62)" style="fill:#feb30a"/><path d="M-521.14,529.61c1.76.33,2.14,1.85,2.66,3.12a1.22,1.22,0,0,1-1.2,1.66c-1.87,0-2.09-1.74-2.61-3C-522.66,530.52-521.88,530-521.14,529.61Z" transform="translate(530.11 -527.62)" style="fill:#feba1f"/><path d="M-527.71,546.31c-1-.14-2.46.34-2.4-1.44,0-1.27,1-1.42,2-1.37s2.42-.34,2.61,1.28C-525.24,546.61-526.75,546.12-527.71,546.31Z" transform="translate(530.11 -527.62)" style="fill:#feb000"/><path d="M-523.42,551.91c-.6,1.57-2,2.06-3.41,2.35a1.1,1.1,0,0,1-1.3-1.14c.12-1.84,1.76-2.22,3.07-2.68C-524.12,550.1-523.8,551.16-523.42,551.91Z" transform="translate(530.11 -527.62)" style="fill:#feb819"/><path d="M-523.46,538.18c-.44.74-.95,1.6-1.87,1.14-1.2-.6-3.11-.73-2.75-2.81a1.17,1.17,0,0,1,1.9-.77C-525.15,536.37-523.59,536.52-523.46,538.18Z" transform="translate(530.11 -527.62)" style="fill:#feb612"/><path d="M-500.31,562c-4.42,0-8.83,0-13.25,0a5,5,0,0,1-5.27-3.58,4,4,0,0,1,2.65-5.11c1.52-.59,1.45-2.06,2.26-2.88a60,60,0,0,1,18-12c2.2-1,5,.12,6.73,2,3.88,4.19,4.74,10,8.07,14.72,1.94,2.73-1.54,6.58-5.49,6.74C-491.15,562.14-495.74,562-500.31,562Z" transform="translate(530.11 -527.62)" style="fill:#e5e6e7"/><path d="M-518.07,550.48c-1.45-3.06-3.18-6-.46-9.4,1.83-2.26,4-2.86,6.81-2.75,2.45.1,3.45,2.24,5.3,3.13A19.52,19.52,0,0,0-518.07,550.48Z" transform="translate(530.11 -527.62)" style="fill:#fdee01"/></svg>