<svg id="_332" data-name="332" xmlns="http://www.w3.org/2000/svg" viewBox="0 0 43.94 41.21"><title>332</title><path d="M-520.11,542.48c-4.27,0-8.53,0-12.8,0-3.64,0-6.57-1.44-7.74-4.89-1.13-3.29.63-5.86,2.34-8.91,3.79-6.76,11.22-8.36,16.31-13.21,6.37-6.07,17.28-2.05,19.41,6.67a8.71,8.71,0,0,0,2.69,4.93c3,2.7,3.47,6.28,2.11,9.93s-4.35,5.29-8.06,5.43C-510.6,542.61-515.36,542.48-520.11,542.48Zm.19-2.93c4.57,0,9.15,0,13.72,0,3.25,0,5.22-1.9,6-4.8a5,5,0,0,0-2.7-6.16c-1.91-.93-2.31-2.24-2.48-4.22-.54-6.29-6.68-10.63-12.23-8-5,2.41-8.63,7.32-14.26,9-.69.21-1.14,1.54-1.51,2.43-.56,1.37-1,2.6-2.6,3.3-2.42,1.1-2.47,3.36-1.8,5.48s2.42,2.92,4.6,2.91C-528.75,539.54-524.33,539.55-519.92,539.55Z" transform="translate(541.01 -512.57)" style="fill:#939598"/><path d="M-520.22,553.56c-3.22,1.07-4.14-2.35-4-3.43.16-1.68.74-4.07,4.17-4s2.49,3.13,4.31,3.91C-517.78,550.53-516.79,554.79-520.22,553.56Z" transform="translate(541.01 -512.57)" style="fill:#d6d7d8"/><path d="M-519.92,539.55c-4.41,0-8.83,0-13.24,0-2.18,0-3.94-.8-4.6-2.91s-.62-4.38,1.8-5.48c1.55-.7,2-1.93,2.6-3.3.37-.89.82-2.22,1.51-2.43,5.63-1.71,9.25-6.62,14.26-9,5.55-2.68,11.69,1.66,12.23,8,.17,2,.57,3.29,2.48,4.22a5,5,0,0,1,2.7,6.16c-.8,2.9-2.77,4.79-6,4.8C-510.77,539.57-515.35,539.55-519.92,539.55Z" transform="translate(541.01 -512.57)" style="fill:#e5e6e7"/></svg>