<svg id="_335" data-name="335" xmlns="http://www.w3.org/2000/svg" viewBox="0 0 52.46 48.62"><title>335</title><path d="M-535.5,511.89c10.6-7.53,17.88-5.16,22.18,7.32.49,1.43,1.58,2,2.49,2.88a8.65,8.65,0,0,1,2,9.54,8,8,0,0,1-7.39,5.66c-9.82.21-19.67.39-29.48,0-6.06-.27-8.06-6.09-4.9-12.7l2-1.59a19.47,19.47,0,0,1,11.65-9Zm4.69,22.57c4.58,0,9.16.15,13.73,0,4-.17,7.44-4,5.49-6.75-3.33-4.66-4.19-10.53-8.06-14.71-1.77-1.91-4.53-3-6.73-2a59.59,59.59,0,0,0-18,12c-.82.81-.74,2.28-2.27,2.87a4,4,0,0,0-2.64,5.12,5,5,0,0,0,5.27,3.57C-539.64,534.43-535.22,534.47-530.81,534.46Z" transform="translate(560.64 -500.09)" style="fill:#939597"/><path d="M-548.56,523l-2,1.59c-3.92-6-3.61-11.21.89-14.8s9.79-2.68,14.18,2.14l-1.41,2c-1.85-.88-2.86-3-5.3-3.12-2.78-.12-5,.48-6.82,2.75C-551.75,516.92-550,519.89-548.56,523Z" transform="translate(560.64 -500.09)" style="fill:#feb307"/><path d="M-537.23,548.13c-3.33,2.08-2.94-2-4.48-3.1,1.16-1.3.88-3.63,3.6-3.87,3-.26,4.38,1.25,4.75,3.57C-533.29,545.2-533.31,549.64-537.23,548.13Z" transform="translate(560.64 -500.09)" style="fill:#d4d5d6"/><path d="M-525.38,548.14c-3.64,1.5-2.91-2.48-4.53-3.19,1.25-1.21.94-3.84,3.34-3.94,2.63-.1,5,1.06,5,3.76C-521.53,545.71-521.75,550.3-525.38,548.14Z" transform="translate(560.64 -500.09)" style="fill:#d4d5d6"/><path d="M-534,503.9c-.71,1.11-.86,2.9-2.66,3a1.25,1.25,0,0,1-1.27-1.67c.46-1.33.79-3,2.59-3.14C-534.55,502.07-533.95,502.83-534,503.9Z" transform="translate(560.64 -500.09)" style="fill:#febd2b"/><path d="M-543,504.9c-1.74.2-2-.74-1.88-1.77s-.73-2.76,1.29-3c1.29-.17,1.68.72,1.59,1.8S-541.38,504.6-543,504.9Z" transform="translate(560.64 -500.09)" style="fill:#feb30a"/><path d="M-548.95,505c.19,1-.29,1.75-1.15,1.8-1.94.12-2.1-1.68-2.66-2.89a1.23,1.23,0,0,1,1.08-1.75C-549.8,502.13-549.75,504-548.95,505Z" transform="translate(560.64 -500.09)" style="fill:#feba1f"/><path d="M-555.94,517.92c-.86,1.34-2.22.77-3.39.8-1,0-1.51-.59-1.24-1.52.61-2,2.3-1.16,3.58-1.1C-556,516.15-555.86,517-555.94,517.92Z" transform="translate(560.64 -500.09)" style="fill:#feb000"/><path d="M-556.86,526.7c-1.19.18-1.89-.42-1.79-1.29.18-1.51,1.67-1.9,2.81-2.44a1.23,1.23,0,0,1,1.75,1.13C-553.9,526.14-555.94,526-556.86,526.7Z" transform="translate(560.64 -500.09)" style="fill:#feb819"/><path d="M-558.78,509.65c.26-1.06.64-1.9,1.66-1.56,1.22.4,2.63.81,3.09,2.16a1.31,1.31,0,0,1-1.35,1.62A4.46,4.46,0,0,1-558.78,509.65Z" transform="translate(560.64 -500.09)" style="fill:#feb612"/><path d="M-530.81,534.47c-4.41,0-8.83,0-13.24,0a5,5,0,0,1-5.27-3.57,4,4,0,0,1,2.64-5.12c1.53-.59,1.45-2.06,2.27-2.87a59.59,59.59,0,0,1,18-12c2.2-1,5,.12,6.73,2,3.87,4.18,4.73,10,8.06,14.71,1.95,2.73-1.53,6.58-5.49,6.75C-521.65,534.61-526.23,534.46-530.81,534.47Z" transform="translate(560.64 -500.09)" style="fill:#e5e6e7"/><path d="M-548.56,523c-1.46-3.07-3.19-6-.47-9.4,1.83-2.27,4-2.87,6.82-2.75,2.44.1,3.45,2.24,5.3,3.12A19.47,19.47,0,0,0-548.56,523Z" transform="translate(560.64 -500.09)" style="fill:#fdee01"/></svg>