<svg id="_338" data-name="338" xmlns="http://www.w3.org/2000/svg" viewBox="0 0 43.95 41.22"><title>338</title><path d="M-520.76,536.69c-4.43,0-8.86,0-13.28,0-3.45,0-6.19-1.58-7.3-4.81s.55-5.88,2.28-8.94c3.81-6.72,11.21-8.37,16.29-13.21,6.21-5.91,17-2.26,19.33,6.11a11,11,0,0,0,3.12,5.77c2.8,2.57,3.12,6.1,1.85,9.56-1.33,3.61-4.32,5.34-8,5.48C-511.24,536.82-516,536.69-520.76,536.69Zm.32-2.94c4.6,0,9.19,0,13.78,0,3,0,4.89-1.88,5.71-4.58a5,5,0,0,0-2.49-6.27,4.46,4.46,0,0,1-2.64-4.15c-.45-5.92-5.39-10.39-10.66-8.32-6,2.36-11.27,6.65-16.65,10.39-1.43,1-1.11,3.6-3.24,4.64s-2.63,3.34-1.82,5.54,2.55,2.82,4.73,2.8C-529.29,533.74-524.86,533.76-520.44,533.75Z" transform="translate(541.71 -506.81)" style="fill:#939598"/><path d="M-526.72,547.79c-3.42.87-4-2.23-4.14-3.89-.06-1.19,1-3.47,4.06-3.66,3.65-.22,2.35,3.43,4.43,3.89C-524.47,544.58-523.17,549.13-526.72,547.79Z" transform="translate(541.71 -506.81)" style="fill:#d6d7d8"/><path d="M-514.92,540.49c3.45-1,2.49,3,4.33,3.75-1.91.65-1.07,3.89-4.48,3.78a3.78,3.78,0,0,1-4-3.72C-518.91,542.58-518.24,539.51-514.92,540.49Z" transform="translate(541.71 -506.81)" style="fill:#d6d7d8"/><path d="M-520.44,533.76c-4.42,0-8.85,0-13.28,0-2.18,0-4-.72-4.73-2.8s-.39-4.46,1.82-5.54,1.81-3.64,3.24-4.64c5.38-3.74,10.65-8,16.65-10.39,5.27-2.07,10.21,2.4,10.66,8.32a4.46,4.46,0,0,0,2.64,4.15,5,5,0,0,1,2.49,6.27c-.82,2.7-2.69,4.54-5.71,4.58C-511.25,533.8-515.84,533.75-520.44,533.76Z" transform="translate(541.71 -506.81)" style="fill:#e5e6e7"/></svg>