<svg id="_350" data-name="350" xmlns="http://www.w3.org/2000/svg" viewBox="0 0 43.94 40.7"><title>350</title><path d="M-532,539.66c-4.27,0-8.53,0-12.79,0-3.65,0-6.57-1.45-7.75-4.9-1.12-3.29.63-5.86,2.34-8.9,3.8-6.77,11.23-8.36,16.31-13.21,6.37-6.08,17.28-2.06,19.41,6.67a8.72,8.72,0,0,0,2.69,4.92c3,2.7,3.47,6.29,2.11,9.93s-4.35,5.3-8.06,5.43C-522.46,539.78-527.22,539.66-532,539.66Zm.46-2.94c4.58,0,9.15.06,13.73,0,3-.05,4.86-1.89,5.68-4.58a4.94,4.94,0,0,0-2.47-6.24c-2.08-1-2.49-2.47-2.67-4.62-.45-5.62-5.74-9.91-11-7.9-5.92,2.24-10.47,7.25-16.15,10.27-1.52.81-1,3.71-3.19,4.61-2.44,1-2.66,3.19-2,5.38.67,2.4,2.59,3.14,4.94,3.12C-540.33,536.71-535.92,536.73-531.51,536.72Z" transform="translate(552.86 -509.75)" style="fill:#939598"/><path d="M-529.06,547.24c0,1.85-.83,3.14-2.81,3.21-2.25.08-3.16-1.27-3.15-3.36,0-1.8.63-3.34,2.69-3.23S-529,545-529.06,547.24Z" transform="translate(552.86 -509.75)" style="fill:#d3d4d5"/><path d="M-531.51,536.73c-4.41,0-8.82,0-13.23,0-2.35,0-4.27-.72-4.94-3.12-.61-2.19-.39-4.39,2-5.38,2.23-.9,1.67-3.8,3.19-4.61,5.68-3,10.23-8,16.15-10.27,5.31-2,10.6,2.28,11,7.9.18,2.15.59,3.57,2.67,4.62a4.94,4.94,0,0,1,2.47,6.24c-.82,2.69-2.68,4.53-5.68,4.58C-522.36,536.78-526.93,536.72-531.51,536.73Z" transform="translate(552.86 -509.75)" style="fill:#e5e6e7"/></svg>