<svg id="_353" data-name="353" xmlns="http://www.w3.org/2000/svg" viewBox="0 0 52.42 49.23"><title>353</title><path d="M-485.66,544.5c10.6-7.53,17.88-5.16,22.18,7.32.49,1.43,1.58,2,2.48,2.88a8.64,8.64,0,0,1,2,9.54,7.93,7.93,0,0,1-7.39,5.65c-9.82.22-19.67.4-29.49,0-6.05-.27-8.05-6.09-4.89-12.71l2-1.58a19.48,19.48,0,0,1,11.64-9Zm4.71,22.58c4.41,0,8.83.11,13.24,0s8-3.89,5.95-6.78c-3.3-4.68-4.15-10.55-8.07-14.72-1.78-1.9-4.54-3-6.73-2-6.61,3-12.87,6.77-18,12-.81.82-.76,2.27-2.27,2.87a4,4,0,0,0-2.63,5.12,5,5,0,0,0,5.29,3.56C-489.78,567-485.36,567.08-480.95,567.08Z" transform="translate(510.76 -532.69)" style="fill:#939597"/><path d="M-485.66,544.5l-1.42,2c-1.84-.89-2.85-3-5.29-3.12-2.78-.12-5,.48-6.82,2.75-2.72,3.36-1,6.33.47,9.4l-2,1.58c-3.92-6-3.61-11.2.89-14.79S-490,539.68-485.66,544.5Z" transform="translate(510.76 -532.69)" style="fill:#feb307"/><path d="M-481.06,572.84c-1.61,3.2-2.82,5.51-3.94,7.85a1.78,1.78,0,0,1-2.39,1.07c-1.42-.63-.45-1.69,0-2.36C-485.77,577.17-486,573.25-481.06,572.84Z" transform="translate(510.76 -532.69)" style="fill:#298de8"/><path d="M-475.3,573.08c-1.34,2.71-2.44,4.89-3.49,7.1-.54,1.12-1.3,2.12-2.59,1.6-1.91-.79-.37-2.07.1-2.7C-479.73,577-480.2,573-475.3,573.08Z" transform="translate(510.76 -532.69)" style="fill:#2d8ee9"/><path d="M-484.17,536.46c-.67,1.14-.88,2.88-2.62,3.09a1.27,1.27,0,0,1-1.34-1.63c.43-1.35.82-3,2.56-3.21C-484.79,534.62-484.13,535.37-484.17,536.46Z" transform="translate(510.76 -532.69)" style="fill:#febd2b"/><path d="M-493.94,537.55c-1.74-.34-1-1.9-1.08-3s.16-2,1.53-1.82c1.7.16,1.34,1.49,1.36,2.54S-492,537.62-493.94,537.55Z" transform="translate(510.76 -532.69)" style="fill:#feb30a"/><path d="M-501.41,534.72a4.53,4.53,0,0,1,2.33,3.35,1.26,1.26,0,0,1-1.51,1.42c-1.66-.33-2.08-1.92-2.41-3.26C-503.18,535.46-502.45,534.79-501.41,534.72Z" transform="translate(510.76 -532.69)" style="fill:#feba1f"/><path d="M-508.14,551.41c-1.09-.19-2.56.42-2.62-1.32s1.27-1.52,2.37-1.52,2.39-.05,2.29,1.62C-506.18,551.6-507.4,551.2-508.14,551.41Z" transform="translate(510.76 -532.69)" style="fill:#feb000"/><path d="M-504.07,557c-.58,1.61-2,2.07-3.4,2.38a1.09,1.09,0,0,1-1.32-1.12c.09-1.86,1.76-2.21,3.05-2.69C-504.78,555.17-504.48,556.25-504.07,557Z" transform="translate(510.76 -532.69)" style="fill:#feb819"/><path d="M-508.9,542.1c.22-.9.6-1.74,1.62-1.4,1.22.4,2.63.81,3.09,2.16a1.3,1.3,0,0,1-1.34,1.61C-506.94,544.23-508.37,543.67-508.9,542.1Z" transform="translate(510.76 -532.69)" style="fill:#feb612"/><path d="M-480.95,567.08c-4.41,0-8.83-.05-13.24,0a5,5,0,0,1-5.29-3.56,4,4,0,0,1,2.63-5.12c1.51-.6,1.46-2,2.27-2.87,5.15-5.24,11.41-9,18-12,2.19-1,4.95.11,6.73,2,3.92,4.17,4.77,10,8.07,14.72,2,2.89-1.63,6.65-5.95,6.78S-476.54,567.08-480.95,567.08Z" transform="translate(510.76 -532.69)" style="fill:#e5e6e7"/><path d="M-498.72,555.57c-1.46-3.07-3.19-6-.47-9.4,1.83-2.27,4-2.87,6.82-2.75,2.44.1,3.45,2.23,5.29,3.12A19.48,19.48,0,0,0-498.72,555.57Z" transform="translate(510.76 -532.69)" style="fill:#fdee01"/></svg>