<svg id="_356" data-name="356" xmlns="http://www.w3.org/2000/svg" viewBox="0 0 52.43 49.23"><title>356</title><path d="M-438.37,587.41c10.6-7.52,17.88-5.15,22.18,7.33.49,1.42,1.58,2,2.48,2.88a8.64,8.64,0,0,1,2,9.54,8,8,0,0,1-7.39,5.65c-9.82.22-19.67.4-29.48,0-6.06-.26-8.06-6.08-4.9-12.7l2-1.59a19.5,19.5,0,0,1,11.65-9Zm4.61,22.59c4.42,0,8.83,0,13.25,0,3,0,5.15-1.3,6.07-4s.27-5.41-2.35-6.83c-2.15-1.16-2.19-2.81-2.44-4.81-.65-5.09-5.2-9.38-9.92-7.79-6.82,2.32-12.88,6.65-18.11,11.81-.82.8-.66,2.34-2.22,2.92a4,4,0,0,0-2.74,5.07c.79,2.58,2.89,3.74,5.71,3.66C-442.26,609.92-438,610-433.76,610Z" transform="translate(463.48 -575.63)" style="fill:#939597"/><path d="M-451.43,598.48l-2,1.59c-3.92-6-3.61-11.2.89-14.79s9.79-2.68,14.18,2.13l-1.41,2.05c-1.85-.89-2.86-3-5.3-3.13-2.78-.11-5,.49-6.82,2.75C-454.62,592.45-452.89,595.42-451.43,598.48Z" transform="translate(463.48 -575.63)" style="fill:#feb307"/><path d="M-439.81,616c-1.5,3-2.69,5.28-3.83,7.61a1.75,1.75,0,0,1-2.42,1c-1.36-.66-.39-1.73.11-2.37C-444.29,620.12-444.79,615.94-439.81,616Z" transform="translate(463.48 -575.63)" style="fill:#298de8"/><path d="M-433.9,616c-1.29,2.62-2.35,4.75-3.38,6.9-.6,1.26-1.44,2.55-2.91,1.75s-.1-2.12.38-2.82C-438.35,619.69-438.59,615.81-433.9,616Z" transform="translate(463.48 -575.63)" style="fill:#2d8ee9"/><path d="M-428,616c-1.5,3-2.7,5.31-3.85,7.64a1.74,1.74,0,0,1-2.42,1c-1.35-.68-.37-1.75.12-2.39C-432.47,620.1-433,615.9-428,616Z" transform="translate(463.48 -575.63)" style="fill:#2d8ee9"/><path d="M-422.07,616c-1.49,3-2.7,5.27-3.82,7.62a1.79,1.79,0,0,1-2.41,1c-1.41-.63-.46-1.72,0-2.37C-426.59,620.15-427.08,616-422.07,616Z" transform="translate(463.48 -575.63)" style="fill:#2d8ee9"/><path d="M-436.88,579.38c-.67,1.14-.88,2.88-2.62,3.09a1.27,1.27,0,0,1-1.34-1.63c.43-1.35.82-3,2.56-3.21C-437.5,577.54-436.84,578.29-436.88,579.38Z" transform="translate(463.48 -575.63)" style="fill:#febd2b"/><path d="M-446.71,575.64c1.59-.11,2,.72,1.86,1.8s.65,2.74-1.34,3c-1.38.19-1.63-.79-1.54-1.8S-448.39,576-446.71,575.64Z" transform="translate(463.48 -575.63)" style="fill:#feb30a"/><path d="M-451.78,580.73c.07,1.09-.59,1.76-1.38,1.69-1.74-.18-2.1-1.82-2.52-3.13a1.27,1.27,0,0,1,1.31-1.61C-452.69,577.91-452.44,579.6-451.78,580.73Z" transform="translate(463.48 -575.63)" style="fill:#feba1f"/><path d="M-461.08,594.31c-1-.14-2.46.34-2.4-1.44.05-1.27,1.05-1.42,2.05-1.37s2.41-.34,2.61,1.28C-458.6,594.61-460.11,594.12-461.08,594.31Z" transform="translate(463.48 -575.63)" style="fill:#feb000"/><path d="M-456.76,599.89c-.59,1.59-2,2.05-3.41,2.37a1.1,1.1,0,0,1-1.32-1.12c.09-1.87,1.76-2.22,3.05-2.7C-457.48,598.08-457.18,599.17-456.76,599.89Z" transform="translate(463.48 -575.63)" style="fill:#feb819"/><path d="M-459.82,583.62c1,.74,2.91.7,2.89,2.59a1.29,1.29,0,0,1-1.8,1.11c-1.16-.49-2.67-.82-2.82-2.37C-461.63,584.15-461.06,583.39-459.82,583.62Z" transform="translate(463.48 -575.63)" style="fill:#feb612"/><path d="M-433.76,610c-4.25,0-8.5-.08-12.75,0-2.82.08-4.92-1.08-5.71-3.66a4,4,0,0,1,2.74-5.07c1.56-.58,1.4-2.12,2.22-2.92,5.23-5.16,11.29-9.49,18.11-11.81,4.72-1.59,9.27,2.7,9.92,7.79.25,2,.29,3.65,2.44,4.81,2.62,1.42,3.27,4.13,2.35,6.83s-3.08,4.06-6.07,4C-424.93,610-429.34,610-433.76,610Z" transform="translate(463.48 -575.63)" style="fill:#e5e6e7"/><path d="M-451.43,598.48c-1.46-3.06-3.19-6-.47-9.4,1.83-2.26,4-2.86,6.82-2.75,2.44.1,3.45,2.24,5.3,3.13A19.5,19.5,0,0,0-451.43,598.48Z" transform="translate(463.48 -575.63)" style="fill:#fdee01"/></svg>