<svg id="_359" data-name="359" xmlns="http://www.w3.org/2000/svg" viewBox="0 0 52.43 49.54"><title>359</title><path d="M-376.51,578.35c9.7-7.51,18.79-4.7,21.93,7,.46,1.7,1.65,2.29,2.61,3.3a8.74,8.74,0,0,1,2,9.56,8.16,8.16,0,0,1-7.88,5.66c-9.34.13-18.69.23-28,0-6.89-.18-9.32-5.79-5.84-12.77l2-1.58a20,20,0,0,1,11.69-9.08Zm4.05,22.6c4.59,0,9.19.09,13.78,0,2.83-.07,5.17-1.29,6-4.19.73-2.57.15-5.05-2.25-6.48-1.95-1.15-2.38-2.61-2.62-4.74-.73-6.27-7.25-10.41-12.65-7.53-4.64,2.48-8.11,6.95-13.47,8.56-.94.28-1.56,2-2.07,3.2s-.74,2-2,2.51c-2.23.88-3.44,2.81-2.75,5.09a5,5,0,0,0,5.26,3.64C-381,600.92-376.73,601-372.46,601Z" transform="translate(401.77 -566.57)" style="fill:#353535"/><path d="M-376.51,578.35l-1.58,2c-1.86-.85-2.86-3-5.31-3.1-2.78-.1-5,.51-6.81,2.77-2.73,3.36-.92,6.34.43,9.41l-2,1.58c-3.91-6-3.58-11.27.91-14.82S-381.26,573.54-376.51,578.35Z" transform="translate(401.77 -566.57)" style="fill:#fdb306"/><path d="M-384.15,607.07c-1.19,2.45-2.23,4.58-3.25,6.73-.59,1.25-1.41,2.56-2.89,1.78s-.13-2.15.37-2.8C-388.37,610.76-388.86,606.67-384.15,607.07Z" transform="translate(401.77 -566.57)" style="fill:#298de8"/><path d="M-378.09,607c-1.5,3-2.71,5.28-3.84,7.63a1.77,1.77,0,0,1-2.41,1c-1.39-.64-.44-1.72.06-2.37C-382.61,611.1-383.1,606.92-378.09,607Z" transform="translate(401.77 -566.57)" style="fill:#2d8ee9"/><path d="M-372.27,607c-1.2,2.48-2.19,4.54-3.2,6.57-.58,1.17-1.22,2.76-2.78,2-1.92-.87-.29-2.35.24-3.08C-376.57,610.57-377,606.74-372.27,607Z" transform="translate(401.77 -566.57)" style="fill:#2d8ee9"/><path d="M-366.28,607c-1.51,3-2.7,5.29-3.85,7.63a1.75,1.75,0,0,1-2.42,1c-1.36-.66-.4-1.73.1-2.38C-370.78,611.08-371.29,606.89-366.28,607Z" transform="translate(401.77 -566.57)" style="fill:#2d8ee9"/><path d="M-360.47,607.09c-1.21,2.46-2.27,4.59-3.3,6.74-.6,1.25-1.43,2.55-2.91,1.75s-.12-2.17.39-2.82C-364.73,610.74-365.23,606.62-360.47,607.09Z" transform="translate(401.77 -566.57)" style="fill:#2d8ee9"/><path d="M-354.37,607.34c-2.6,3.08-2.34,7.39-6.72,8.77C-359.79,609.45-358.3,607.45-354.37,607.34Z" transform="translate(401.77 -566.57)" style="fill:#2d8ee9"/><path d="M-375.14,570.18c-.61,1.2-.87,2.87-2.52,3.25a1.28,1.28,0,0,1-1.5-1.48c.32-1.39.78-3,2.43-3.35C-375.9,568.41-375.29,569.18-375.14,570.18Z" transform="translate(401.77 -566.57)" style="fill:#febd2b"/><path d="M-384.95,571.43c-1.74-.34-1-1.9-1.09-3s.17-2,1.54-1.82c1.69.17,1.34,1.49,1.36,2.54S-383,571.5-384.95,571.43Z" transform="translate(401.77 -566.57)" style="fill:#feb30a"/><path d="M-390.1,571.62c.13,1.07-.46,1.76-1.28,1.74-1.83,0-2.09-1.75-2.58-3a1.24,1.24,0,0,1,1.21-1.67C-391,568.77-390.83,570.55-390.1,571.62Z" transform="translate(401.77 -566.57)" style="fill:#feba1f"/><path d="M-397.11,584.25c-.3,1.43-1.62.94-2.61,1s-2.09.13-2-1.25c.06-2,1.66-1.48,2.83-1.52S-397,582.74-397.11,584.25Z" transform="translate(401.77 -566.57)" style="fill:#feb000"/><path d="M-398.1,593.31c-1.27-.13-1.95-.68-1.69-1.61.39-1.4,1.77-1.88,3-2.28a1.3,1.3,0,0,1,1.62,1.36C-395.32,592.66-397.31,592.47-398.1,593.31Z" transform="translate(401.77 -566.57)" style="fill:#feb819"/><path d="M-395.13,577.14c-.44.74-.95,1.6-1.87,1.14-1.19-.6-3.11-.73-2.74-2.81a1.17,1.17,0,0,1,1.9-.77C-396.82,575.34-395.26,575.48-395.13,577.14Z" transform="translate(401.77 -566.57)" style="fill:#feb612"/><path d="M-372.46,601c-4.27,0-8.53,0-12.8,0a5,5,0,0,1-5.26-3.64c-.69-2.28.52-4.21,2.75-5.09,1.29-.51,1.57-1.44,2-2.51s1.13-2.92,2.07-3.2c5.36-1.61,8.83-6.08,13.47-8.56,5.4-2.88,11.92,1.26,12.65,7.53.24,2.13.67,3.59,2.62,4.74,2.4,1.43,3,3.91,2.25,6.48-.83,2.9-3.17,4.12-6,4.19C-363.27,601-367.87,601-372.46,601Z" transform="translate(401.77 -566.57)" style="fill:#7f8184"/><path d="M-389.78,589.47c-1.35-3.07-3.16-6.05-.43-9.41,1.83-2.26,4-2.87,6.81-2.77,2.45.1,3.45,2.25,5.31,3.1A20,20,0,0,0-389.78,589.47Z" transform="translate(401.77 -566.57)" style="fill:#fded00"/></svg>