<svg id="_362" data-name="362" xmlns="http://www.w3.org/2000/svg" viewBox="0 0 52.42 49.22"><title>362</title><path d="M-420.72,568.21c10.6-7.52,17.88-5.15,22.18,7.33.49,1.42,1.58,2,2.49,2.88a8.65,8.65,0,0,1,2,9.54,7.92,7.92,0,0,1-7.39,5.65c-9.82.22-19.67.4-29.49,0-6.05-.26-8.05-6.08-4.89-12.7l2-1.59a19.46,19.46,0,0,1,11.65-9ZM-416,590.8c4.42,0,8.83.1,13.24,0s8-3.91,5.94-6.79c-3.32-4.68-4.14-10.56-8.07-14.72-1.79-1.89-4.55-3-6.74-2-6.6,3-12.87,6.77-18,12-.81.83-.78,2.26-2.28,2.86-2.19.87-3.38,2.82-2.61,5.13a5,5,0,0,0,5.29,3.55C-424.83,590.75-420.41,590.8-416,590.8Z" transform="translate(445.82 -556.42)" style="fill:#939597"/><path d="M-433.78,579.28l-2,1.59c-3.92-6-3.61-11.2.89-14.79s9.79-2.68,14.18,2.13l-1.41,2c-1.85-.89-2.86-3-5.3-3.13-2.78-.11-5,.49-6.82,2.75C-437,573.25-435.24,576.22-433.78,579.28Z" transform="translate(445.82 -556.42)" style="fill:#feb307"/><path d="M-410.72,604.5c-3.48,1.34-2.78-2.38-4.36-3,.77-1.66,1.08-3.63,3.46-4,2.89-.51,4.86,1.06,4.82,3.41C-406.83,602.27-406.88,606.72-410.72,604.5Z" transform="translate(445.82 -556.42)" style="fill:#d4d5d6"/><path d="M-422.09,596.69c-1.6,3.18-2.83,5.66-4.11,8.11a1.7,1.7,0,0,1-2.14.7c-1.2-.39-.71-1.37-.25-1.92C-426.73,601.35-427.3,597-422.09,596.69Z" transform="translate(445.82 -556.42)" style="fill:#298de8"/><path d="M-416.27,596.8c-1.34,2.72-2.44,4.9-3.49,7.1-.54,1.13-1.31,2.13-2.6,1.59-1.89-.79-.35-2.07.12-2.7C-420.69,600.7-421.17,596.7-416.27,596.8Z" transform="translate(445.82 -556.42)" style="fill:#2d8ee9"/><path d="M-423.2,561.49c.57-1.1.8-2.8,2.52-3.07a1.32,1.32,0,0,1,1.42,1.58c-.39,1.37-.87,3-2.54,3.28C-422.57,563.41-423.29,562.7-423.2,561.49Z" transform="translate(445.82 -556.42)" style="fill:#febd2b"/><path d="M-427.17,558.73c-.1,1,.32,2.4-1.38,2.53s-1.56-1.24-1.54-2.3-.43-2.42,1.31-2.53S-427.21,557.62-427.17,558.73Z" transform="translate(445.82 -556.42)" style="fill:#feb30a"/><path d="M-436.71,558.41c1.6.43,2.06,1.88,2.53,3.18a1.23,1.23,0,0,1-1.28,1.61c-1.79-.1-2.1-1.78-2.56-3.06C-438.33,559.27-437.59,558.71-436.71,558.41Z" transform="translate(445.82 -556.42)" style="fill:#feba1f"/><path d="M-443.2,575.13c-1.09-.2-2.56.42-2.62-1.32s1.27-1.53,2.37-1.52,2.39,0,2.29,1.61C-441.24,575.32-442.46,574.92-443.2,575.13Z" transform="translate(445.82 -556.42)" style="fill:#feb000"/><path d="M-438.93,580.92c-1.34,1.28-2.42,2.3-4,2.06a1.06,1.06,0,0,1-.85-1.47,3.67,3.67,0,0,1,3.45-2.23C-439.88,579.28-439.4,580.35-438.93,580.92Z" transform="translate(445.82 -556.42)" style="fill:#feb819"/><path d="M-442.18,564.42c1,.74,2.92.69,2.9,2.58a1.28,1.28,0,0,1-1.79,1.12c-1.16-.49-2.67-.81-2.83-2.37C-444,565-443.42,564.19-442.18,564.42Z" transform="translate(445.82 -556.42)" style="fill:#feb612"/><path d="M-416,590.8c-4.41,0-8.83,0-13.24,0a5,5,0,0,1-5.29-3.55c-.77-2.31.42-4.26,2.61-5.13,1.5-.6,1.47-2,2.28-2.86,5.14-5.26,11.41-9,18-12,2.19-1,4.95.12,6.74,2,3.93,4.16,4.75,10,8.07,14.72,2,2.88-1.62,6.66-5.94,6.79S-411.58,590.8-416,590.8Z" transform="translate(445.82 -556.42)" style="fill:#e5e6e7"/><path d="M-433.78,579.28c-1.46-3.06-3.19-6-.47-9.4,1.83-2.26,4-2.86,6.82-2.75,2.44.1,3.45,2.24,5.3,3.13A19.46,19.46,0,0,0-433.78,579.28Z" transform="translate(445.82 -556.42)" style="fill:#fdee01"/></svg>