<svg id="_365" data-name="365" xmlns="http://www.w3.org/2000/svg" viewBox="0 0 52.42 49.22"><title>365</title><path d="M-407.31,457.53c10.6-7.52,17.87-5.16,22.18,7.33.49,1.42,1.58,2,2.48,2.87a8.65,8.65,0,0,1,2,9.55,8,8,0,0,1-7.39,5.65c-9.82.21-19.67.39-29.49,0-6.05-.26-8.05-6.08-4.89-12.7l2-1.59a19.45,19.45,0,0,1,11.65-9Zm4.69,22.58c4.58,0,9.16.14,13.73-.05,4-.16,7.44-4,5.49-6.74-3.33-4.67-4.19-10.54-8.06-14.72-1.77-1.91-4.53-3-6.73-2a59.7,59.7,0,0,0-18,12c-.81.82-.74,2.29-2.26,2.88a4,4,0,0,0-2.65,5.11,5,5,0,0,0,5.28,3.57C-411.45,480.07-407,480.12-402.62,480.11Z" transform="translate(432.41 -445.76)" style="fill:#939597"/><path d="M-407.31,457.53c-.47.68-.94,1.37-1.42,2.05-1.84-.89-2.85-3-5.3-3.13-2.77-.11-5,.48-6.81,2.75-2.72,3.37-1,6.34.46,9.4l-2,1.59c-3.92-6-3.61-11.2.89-14.79S-411.7,452.71-407.31,457.53Z" transform="translate(432.41 -445.76)" style="fill:#feb307"/><path d="M-403.29,493.82c-3.51,1.38-2.63-2.51-4.3-3,.85-1.6,1-3.62,3.49-4,2.9-.45,4.89,1,4.81,3.42C-399.34,491.61-399.41,496.08-403.29,493.82Z" transform="translate(432.41 -445.76)" style="fill:#d4d5d6"/><path d="M-391.36,493.74c-3.61,1.83-2.72-2.49-4.44-3.07,1.16-1.29.89-3.59,3.6-3.87,3-.33,4.62,1.29,4.73,3.53C-387.41,491.34-387.54,495.82-391.36,493.74Z" transform="translate(432.41 -445.76)" style="fill:#d4d5d6"/><path d="M-414.76,486.25C-416,488.7-417,490.83-418,493c-.6,1.26-1.43,2.55-2.9,1.74s-.1-2.16.4-2.81C-419,489.9-419.5,485.77-414.76,486.25Z" transform="translate(432.41 -445.76)" style="fill:#298de8"/><path d="M-408.74,486.16c-1.51,3-2.7,5.3-3.85,7.64a1.76,1.76,0,0,1-2.43,1c-1.34-.68-.37-1.75.13-2.39C-413.23,490.22-413.74,486-408.74,486.16Z" transform="translate(432.41 -445.76)" style="fill:#2d8ee9"/><path d="M-405.81,449.44c-.64,1.18-.89,2.88-2.59,3.16a1.29,1.29,0,0,1-1.39-1.6c.39-1.37.83-3,2.52-3.27C-406.5,447.61-405.83,448.37-405.81,449.44Z" transform="translate(432.41 -445.76)" style="fill:#febd2b"/><path d="M-415.73,445.77c1.49-.13,2.06.52,1.94,1.68s.72,2.73-1.24,3.11c-1.28.24-1.76-.57-1.64-1.68S-417.35,446.23-415.73,445.77Z" transform="translate(432.41 -445.76)" style="fill:#feb30a"/><path d="M-424.68,449.48c0-1,.63-1.83,1.41-1.68,1.62.29,2.11,1.86,2.52,3.2a1.26,1.26,0,0,1-1.38,1.54C-423.87,452.34-424,450.62-424.68,449.48Z" transform="translate(432.41 -445.76)" style="fill:#feba1f"/><path d="M-427.71,463.08c-.13,1.66-1.46,1.3-2.47,1.31s-2.06.31-2.21-1.08c-.18-1.61,1-1.74,2.16-1.7S-427.91,461.44-427.71,463.08Z" transform="translate(432.41 -445.76)" style="fill:#feb000"/><path d="M-425.8,469.8c0,1.72-1.6,1.86-2.64,2.44-.77.41-1.78.23-1.92-.79-.27-2,1.57-2.22,2.77-2.85C-426.61,468.09-426.23,469.1-425.8,469.8Z" transform="translate(432.41 -445.76)" style="fill:#feb819"/><path d="M-428.76,453.74c1,.73,2.91.7,2.89,2.59a1.29,1.29,0,0,1-1.8,1.11c-1.16-.49-2.67-.82-2.82-2.37C-430.57,454.26-430,453.51-428.76,453.74Z" transform="translate(432.41 -445.76)" style="fill:#feb612"/><path d="M-402.62,480.11c-4.41,0-8.83,0-13.24,0a5,5,0,0,1-5.28-3.57,4,4,0,0,1,2.65-5.11c1.52-.59,1.45-2.06,2.26-2.88a59.7,59.7,0,0,1,18-12c2.2-1,5,.12,6.73,2,3.87,4.18,4.73,10,8.06,14.72,1.95,2.72-1.53,6.58-5.49,6.74C-393.46,480.25-398,480.11-402.62,480.11Z" transform="translate(432.41 -445.76)" style="fill:#e5e6e7"/><path d="M-420.38,468.6c-1.45-3.06-3.18-6-.46-9.4,1.83-2.27,4-2.86,6.81-2.75,2.45.1,3.46,2.24,5.3,3.13A19.45,19.45,0,0,0-420.38,468.6Z" transform="translate(432.41 -445.76)" style="fill:#fdee01"/></svg>