<svg id="_368" data-name="368" xmlns="http://www.w3.org/2000/svg" viewBox="0 0 52.43 48.67"><title>368</title><path d="M-335,568.21c10.6-7.52,17.88-5.15,22.18,7.33.49,1.42,1.58,2,2.49,2.88a8.65,8.65,0,0,1,2,9.54,7.93,7.93,0,0,1-7.39,5.65c-9.82.22-19.67.4-29.48,0-6.06-.26-8.06-6.08-4.9-12.7l2-1.59a19.5,19.5,0,0,1,11.65-9Zm4.69,22.58c4.58,0,9.16.15,13.73,0,4-.16,7.44-4,5.49-6.74-3.32-4.67-4.19-10.53-8.06-14.72-1.77-1.91-4.53-3-6.73-2a60,60,0,0,0-18,12c-.82.82-.74,2.29-2.27,2.88a4,4,0,0,0-2.64,5.11,5,5,0,0,0,5.27,3.58C-339.17,590.75-334.75,590.8-330.34,590.79Z" transform="translate(360.14 -556.42)" style="fill:#939597"/><path d="M-348.09,579.28l-2,1.59c-3.92-6-3.61-11.2.89-14.79s9.79-2.68,14.18,2.13l-1.41,2c-1.85-.89-2.86-3-5.3-3.13-2.78-.11-5,.49-6.82,2.75C-351.28,573.25-349.55,576.22-348.09,579.28Z" transform="translate(360.14 -556.42)" style="fill:#feb307"/><path d="M-330.74,604.5c-3.7,1.23-3.08-2.48-4.62-3.29,1.41-1,.85-3.76,3.4-3.87,2.82-.12,5,1.22,5,3.83C-326.95,602.45-327.4,606.61-330.74,604.5Z" transform="translate(360.14 -556.42)" style="fill:#d4d5d6"/><path d="M-335,558.35c.87.3,1.7.82,1.41,1.71-.44,1.35-.86,3-2.59,3.2a1.27,1.27,0,0,1-1.33-1.63C-337.07,560.27-336.63,558.79-335,558.35Z" transform="translate(360.14 -556.42)" style="fill:#febd2b"/><path d="M-341.47,558.85c-.07,1.08.2,2.42-1.5,2.42s-1.43-1.39-1.43-2.43-.32-2.44,1.43-2.42S-341.54,557.77-341.47,558.85Z" transform="translate(360.14 -556.42)" style="fill:#feb30a"/><path d="M-351.17,558.41c1.77.33,2.15,1.85,2.67,3.12a1.23,1.23,0,0,1-1.21,1.66c-1.86,0-2.09-1.74-2.6-3C-352.68,559.32-351.91,558.79-351.17,558.41Z" transform="translate(360.14 -556.42)" style="fill:#feba1f"/><path d="M-357.74,575.11c-1-.14-2.46.34-2.4-1.44.05-1.27,1.05-1.42,2.05-1.37s2.41-.34,2.61,1.28C-355.26,575.41-356.77,574.92-357.74,575.11Z" transform="translate(360.14 -556.42)" style="fill:#feb000"/><path d="M-353.44,580.71c-.6,1.57-2,2.06-3.42,2.34a1.08,1.08,0,0,1-1.29-1.13c.11-1.84,1.76-2.22,3.06-2.68C-354.15,578.9-353.82,580-353.44,580.71Z" transform="translate(360.14 -556.42)" style="fill:#feb819"/><path d="M-353.49,567c-.43.74-.94,1.6-1.87,1.14-1.19-.6-3.11-.73-2.74-2.81a1.17,1.17,0,0,1,1.9-.77C-355.18,565.17-353.62,565.32-353.49,567Z" transform="translate(360.14 -556.42)" style="fill:#feb612"/><path d="M-330.34,590.79c-4.41,0-8.83,0-13.24,0a5,5,0,0,1-5.27-3.58,4,4,0,0,1,2.64-5.11c1.53-.59,1.45-2.06,2.27-2.88a60,60,0,0,1,18-12c2.2-1,5,.12,6.73,2,3.87,4.19,4.74,10.05,8.06,14.72,1.95,2.73-1.53,6.58-5.49,6.74C-321.18,590.94-325.76,590.79-330.34,590.79Z" transform="translate(360.14 -556.42)" style="fill:#e5e6e7"/><path d="M-348.09,579.28c-1.46-3.06-3.19-6-.47-9.4,1.83-2.26,4-2.86,6.82-2.75,2.44.1,3.45,2.24,5.3,3.13A19.5,19.5,0,0,0-348.09,579.28Z" transform="translate(360.14 -556.42)" style="fill:#fdee01"/></svg>