<svg id="_371" data-name="371" xmlns="http://www.w3.org/2000/svg" viewBox="0 0 52.42 48.43"><title>371</title><path d="M-491.45,535.27c10.6-7.52,17.87-5.16,22.17,7.33.5,1.42,1.59,2,2.49,2.87a8.66,8.66,0,0,1,2,9.55,8,8,0,0,1-7.39,5.65c-9.83.21-19.67.39-29.49,0-6.05-.26-8.05-6.08-4.89-12.7l2-1.59a19.45,19.45,0,0,1,11.65-9Zm4.91,22.59c4.41,0,8.82,0,13.24,0a5.61,5.61,0,0,0,5.71-3.82c1-2.66.45-5.35-2.13-6.9-1.93-1.17-2.38-2.6-2.61-4.72-.58-5.51-5.69-9.93-10.66-7.93-6,2.39-11.16,6.69-16.62,10.26-.58.38-.81,1.4-1,2.18a2.88,2.88,0,0,1-1.73,2.14c-2.4,1-3.72,2.89-2.82,5.43s3.14,3.48,5.91,3.4C-495,557.77-490.79,557.86-486.54,557.86Z" transform="translate(516.55 -523.49)" style="fill:#939597"/><path d="M-504.52,546.34l-2,1.59c-3.92-6-3.61-11.2.89-14.79s9.79-2.69,14.18,2.13c-.47.68-.94,1.37-1.42,2.05-1.84-.89-2.85-3-5.3-3.13-2.77-.11-5,.49-6.81,2.75C-507.7,540.31-506,543.28-504.52,546.34Z" transform="translate(516.55 -523.49)" style="fill:#feb307"/><path d="M-493,564.93c3.57-1.58,2.28,2.55,3.91,3.09-1.57.83,0,3.82-3.37,3.9-3.08.07-4.88-1.42-4.95-3.49C-497.46,566.72-496.37,563.42-493,564.93Z" transform="translate(516.55 -523.49)" style="fill:#d4d5d6"/><path d="M-481.3,565c4.06-2.34,2.06,3,4.07,3.19-2,.25.18,3.9-3.61,3.69-3.23-.19-4.29-1.71-4.77-3.73C-485.76,567.56-484.94,563-481.3,565Z" transform="translate(516.55 -523.49)" style="fill:#d4d5d6"/><path d="M-492.56,530.39c-.91-.27-1.66-.81-1.35-1.73.45-1.33.8-3,2.58-3.16a1.29,1.29,0,0,1,1.32,1.65C-490.46,528.49-490.91,530-492.56,530.39Z" transform="translate(516.55 -523.49)" style="fill:#febd2b"/><path d="M-499,523.51c1.64.31,1,1.85,1.05,3s-.29,2-1.59,1.81c-2-.26-1.18-1.91-1.29-3S-500.67,523.34-499,523.51Z" transform="translate(516.55 -523.49)" style="fill:#feb30a"/><path d="M-507.2,525.5a4.51,4.51,0,0,1,2.32,3.35,1.26,1.26,0,0,1-1.5,1.42c-1.66-.34-2.08-1.92-2.41-3.27C-509,526.24-508.24,525.57-507.2,525.5Z" transform="translate(516.55 -523.49)" style="fill:#feba1f"/><path d="M-514,542.17c-1-.18-2.45.44-2.51-1.3s1.27-1.53,2.37-1.52,2.38-.05,2.29,1.61C-512,542.39-513.17,542-514,542.17Z" transform="translate(516.55 -523.49)" style="fill:#feb000"/><path d="M-509.66,548c-1.34,1.27-2.42,2.3-4,2.06a1.07,1.07,0,0,1-.86-1.47,3.68,3.68,0,0,1,3.46-2.23C-510.62,546.34-510.13,547.41-509.66,548Z" transform="translate(516.55 -523.49)" style="fill:#feb819"/><path d="M-509.82,533.87c-.81,1.45-1.64,1.74-2.65,1s-2.74-.94-2-2.78c.37-.92,1.26-.91,2.06-.43C-511.37,532.32-510,532.68-509.82,533.87Z" transform="translate(516.55 -523.49)" style="fill:#feb612"/><path d="M-486.54,557.86c-4.25,0-8.51-.09-12.75,0-2.77.08-5-.81-5.91-3.4s.42-4.44,2.82-5.43a2.88,2.88,0,0,0,1.73-2.14c.23-.78.46-1.8,1-2.18,5.46-3.57,10.66-7.87,16.62-10.26,5-2,10.08,2.42,10.66,7.93.23,2.12.68,3.55,2.61,4.72,2.58,1.55,3.11,4.24,2.13,6.9a5.61,5.61,0,0,1-5.71,3.82C-477.72,557.83-482.13,557.86-486.54,557.86Z" transform="translate(516.55 -523.49)" style="fill:#e5e6e7"/><path d="M-504.52,546.34c-1.45-3.06-3.18-6-.46-9.4,1.83-2.26,4-2.86,6.81-2.75,2.45.1,3.46,2.24,5.3,3.13A19.45,19.45,0,0,0-504.52,546.34Z" transform="translate(516.55 -523.49)" style="fill:#fdee01"/></svg>