<svg id="_374" data-name="374" xmlns="http://www.w3.org/2000/svg" viewBox="0 0 52.45 48.12"><title>374</title><path d="M-543.4,540.54c10.59-7.52,17.87-5.16,22.17,7.33.49,1.42,1.58,2,2.49,2.88a8.64,8.64,0,0,1,2,9.54,8,8,0,0,1-7.39,5.65c-9.83.22-19.68.4-29.49,0-6.06-.26-8.06-6.08-4.89-12.7l2-1.59a19.49,19.49,0,0,1,11.65-9Zm4.69,22.58c4.57,0,9.16.14,13.73,0,4-.16,7.43-4,5.49-6.74-3.33-4.67-4.19-10.53-8.07-14.72-1.76-1.91-4.53-3-6.73-2a59.78,59.78,0,0,0-18,12c-.81.82-.74,2.29-2.26,2.88a4,4,0,0,0-2.65,5.11,5,5,0,0,0,5.27,3.58C-547.54,563.08-543.13,563.13-538.71,563.12Z" transform="translate(568.54 -528.75)" style="fill:#939597"/><path d="M-556.47,551.61l-2,1.59c-3.93-6-3.61-11.2.89-14.79s9.78-2.69,14.18,2.13l-1.42,2.05c-1.85-.89-2.85-3-5.3-3.13-2.78-.11-5,.49-6.81,2.75C-559.65,545.58-557.92,548.55-556.47,551.61Z" transform="translate(568.54 -528.75)" style="fill:#feb307"/><path d="M-539.43,576.87c-1.77-.36-3.12-1.37-3.24-3.14a3.12,3.12,0,0,1,3.25-3.47,3.11,3.11,0,0,1,3.23,3.49C-536.32,575.54-537.68,576.51-539.43,576.87Z" transform="translate(568.54 -528.75)" style="fill:#d3d4d5"/><path d="M-541.91,532.53c-.73,1.14-.88,2.93-2.68,3.05a1.25,1.25,0,0,1-1.27-1.67c.47-1.32.8-3,2.59-3.13C-542.45,530.72-541.87,531.49-541.91,532.53Z" transform="translate(568.54 -528.75)" style="fill:#febd2b"/><path d="M-549.85,531.18c-.07,1.08.2,2.42-1.5,2.42s-1.43-1.39-1.43-2.43-.32-2.44,1.44-2.42S-549.91,530.09-549.85,531.18Z" transform="translate(568.54 -528.75)" style="fill:#feb30a"/><path d="M-559.26,530.73a4.48,4.48,0,0,1,2.42,3.33,1.26,1.26,0,0,1-1.44,1.49c-1.69-.27-2.08-1.89-2.45-3.22C-561,531.51-560.18,530.93-559.26,530.73Z" transform="translate(568.54 -528.75)" style="fill:#feba1f"/><path d="M-563.84,546.47c-.61,1.51-2,.83-3.19.92-.87.07-1.61-.33-1.49-1.33.23-1.91,1.77-1.38,2.95-1.42S-563.77,545.08-563.84,546.47Z" transform="translate(568.54 -528.75)" style="fill:#feb000"/><path d="M-564.56,555.33c-1.38.21-2.09-.36-2-1.24.16-1.53,1.65-1.91,2.78-2.45a1.23,1.23,0,0,1,1.77,1.1C-561.78,554.81-564,554.47-564.56,555.33Z" transform="translate(568.54 -528.75)" style="fill:#feb819"/><path d="M-561.78,539.08c-.36.78-.82,1.71-1.72,1.41-1.3-.44-3-.71-3-2.63a1.11,1.11,0,0,1,1.28-1.17C-563.87,537.08-562.47,537.61-561.78,539.08Z" transform="translate(568.54 -528.75)" style="fill:#feb612"/><path d="M-538.71,563.12c-4.42,0-8.83,0-13.25,0a5,5,0,0,1-5.27-3.58,4,4,0,0,1,2.65-5.11c1.52-.59,1.45-2.06,2.26-2.88a59.78,59.78,0,0,1,18-12c2.2-1,5,.12,6.73,2,3.88,4.19,4.74,10,8.07,14.72,1.94,2.73-1.54,6.58-5.49,6.74C-529.55,563.26-534.14,563.12-538.71,563.12Z" transform="translate(568.54 -528.75)" style="fill:#e5e6e7"/><path d="M-556.47,551.61c-1.45-3.06-3.18-6-.46-9.4,1.83-2.26,4-2.86,6.81-2.75,2.45.1,3.45,2.24,5.3,3.13A19.49,19.49,0,0,0-556.47,551.61Z" transform="translate(568.54 -528.75)" style="fill:#fdee01"/></svg>