<svg id="_377" data-name="377" xmlns="http://www.w3.org/2000/svg" viewBox="0 0 52.42 48.05"><title>377</title><path d="M-404.9,626c10.59-7.53,17.87-5.16,22.17,7.32.49,1.43,1.58,2,2.49,2.88a8.65,8.65,0,0,1,2,9.54,7.93,7.93,0,0,1-7.38,5.66c-9.83.21-19.68.39-29.49,0-6.06-.27-8.06-6.09-4.89-12.7l2-1.59a19.47,19.47,0,0,1,11.65-9Zm4.92,22.58c4.41,0,8.82,0,13.24,0a5.61,5.61,0,0,0,5.7-3.83c1-2.67.44-5.36-2.15-6.91-1.95-1.16-2.36-2.61-2.59-4.72-.62-5.66-6-10-11.18-7.9-5.69,2.33-10.22,7.06-15.84,9.87-.69.35-1,1.65-1.3,2.57a3,3,0,0,1-1.75,2.13c-2.39,1-3.71,2.89-2.79,5.44.84,2.34,2.8,3.43,5.41,3.37C-408.81,648.48-404.4,648.55-400,648.54Z" transform="translate(430.01 -614.16)" style="fill:#939597"/><path d="M-418,637l-2,1.59c-3.93-6-3.62-11.21.88-14.79s9.79-2.69,14.18,2.13l-1.41,2c-1.85-.88-2.86-3-5.3-3.12-2.78-.12-5,.48-6.82,2.75C-421.16,631-419.42,634-418,637Z" transform="translate(430.01 -614.16)" style="fill:#feb307"/><path d="M-403.55,659.47c-.78,1.67-1.87,3.22-4,2.61-1.58-.45-3-1.74-2.51-3.62s1.8-3.3,3.91-2.7A3.36,3.36,0,0,1-403.55,659.47Z" transform="translate(430.01 -614.16)" style="fill:#d3d4d5"/><path d="M-391.59,659c-.73,2-1.76,3.55-3.89,3.18a3.13,3.13,0,0,1-2.79-3.43,3.19,3.19,0,0,1,3.23-3.05C-393,655.67-392,657.22-391.59,659Z" transform="translate(430.01 -614.16)" style="fill:#d3d4d5"/><path d="M-403.25,617.86c-1.05,1.29-1,3.26-3,3.09a1.24,1.24,0,0,1-1-1.81c.6-1.21.75-3.07,2.73-2.9C-403.64,616.32-403.5,617.24-403.25,617.86Z" transform="translate(430.01 -614.16)" style="fill:#febd2b"/><path d="M-411.35,616.72c0,1.12.09,2.41-1.63,2.29s-1.27-1.54-1.3-2.55-.24-2.43,1.55-2.29S-411.46,615.68-411.35,616.72Z" transform="translate(430.01 -614.16)" style="fill:#feb30a"/><path d="M-421,616.17c1.68.32,2.06,1.84,2.58,3.1a1.22,1.22,0,0,1-1.21,1.66c-1.86,0-2.09-1.73-2.6-3C-422.54,617.09-421.84,616.5-421,616.17Z" transform="translate(430.01 -614.16)" style="fill:#feba1f"/><path d="M-425.3,631.5c-.13,1.67-1.47,1.3-2.48,1.32s-2.06.3-2.21-1.08c-.18-1.61,1-1.74,2.17-1.71S-425.51,629.86-425.3,631.5Z" transform="translate(430.01 -614.16)" style="fill:#feb000"/><path d="M-423.4,638.22c0,1.73-1.59,1.87-2.64,2.44-.76.42-1.78.24-1.92-.78-.27-2,1.58-2.23,2.77-2.85C-424.2,636.52-423.83,637.53-423.4,638.22Z" transform="translate(430.01 -614.16)" style="fill:#feb819"/><path d="M-425.15,626c-1.05-.71-2.88-.73-2.9-2.68a1.11,1.11,0,0,1,1.28-1.16c1.39.39,3,.85,3.39,2.43C-423.22,625.16-424,626-425.15,626Z" transform="translate(430.01 -614.16)" style="fill:#feb612"/><path d="M-400,648.54c-4.42,0-8.83-.06-13.25,0-2.61.06-4.57-1-5.41-3.37-.92-2.55.4-4.44,2.79-5.44a3,3,0,0,0,1.75-2.13c.3-.92.61-2.22,1.3-2.57,5.62-2.81,10.15-7.54,15.84-9.87,5.14-2.09,10.56,2.24,11.18,7.9.23,2.11.64,3.56,2.59,4.72,2.59,1.55,3.12,4.24,2.15,6.91a5.61,5.61,0,0,1-5.7,3.83C-391.16,648.52-395.57,648.54-400,648.54Z" transform="translate(430.01 -614.16)" style="fill:#e5e6e7"/><path d="M-418,637c-1.45-3.07-3.19-6-.47-9.4,1.84-2.27,4-2.87,6.82-2.75,2.44.1,3.45,2.24,5.3,3.12A19.47,19.47,0,0,0-418,637Z" transform="translate(430.01 -614.16)" style="fill:#fdee01"/></svg>