<svg id="_386" data-name="386" xmlns="http://www.w3.org/2000/svg" viewBox="0 0 52.43 49.03"><title>386</title><path d="M-419.42,593.6c9.68-7.51,18.81-4.68,21.92,6.94.45,1.7,1.63,2.3,2.6,3.31a8.73,8.73,0,0,1,2,9.54,8.28,8.28,0,0,1-7.86,5.69c-3.43.15-6.88,0-10.32,0,.28-.92.55-1.84.83-2.75,2.95,0,5.9,0,8.85-.15,2.64-.14,4.87-1.31,5.72-3.91s.24-5.32-2.33-6.9c-1.73-1.05-2.25-2.31-2.45-4.31-.6-5.84-5.78-10.28-10.94-8.19-5.84,2.36-11,6.55-16.26,10.12-1.52,1-.79,3.74-3.19,4.61a3.9,3.9,0,0,0-2.54,5.16,5.1,5.1,0,0,0,5.37,3.48c3.94-.07,7.87,0,11.81,0l-.91,2.75c-3.27,0-6.53.14-9.8.12-8.61,0-11.62-5-7.74-12.82l2-1.58A19.88,19.88,0,0,1-421,595.64Z" transform="translate(444.69 -581.86)" style="fill:#353534"/><path d="M-432.69,604.72l-2,1.58c-3.9-6-3.58-11.27.91-14.83s9.56-2.68,14.32,2.13l-1.59,2c-1.86-.86-2.86-3-5.31-3.1-2.78-.1-5,.5-6.81,2.76C-435.86,598.67-434,601.64-432.69,604.72Z" transform="translate(444.69 -581.86)" style="fill:#fdb306"/><path d="M-417.11,619l.91-2.75c.88-1.5,1.8-3,2.63-4.5.6-1.13,1.48-1.9,2.64-1.18s0,1.64-.25,2.45c-.38,1.32-2.26,3,.94,3.3-.28.91-.55,1.83-.83,2.75-.87,3,.84,6.54-1.88,9.35-1.08,1.11-1.28,3.13-4,2.25,2.83-3.2-.83-7.25,1.74-10.71C-414.82,619.39-416.45,619.33-417.11,619Z" transform="translate(444.69 -581.86)" style="fill:#fcb209"/><path d="M-420.55,588.79c-1.06-.32-1.81-.86-1.5-1.77.45-1.34.8-3,2.58-3.17a1.3,1.3,0,0,1,1.32,1.66C-418.55,586.88-419.16,588.24-420.55,588.79Z" transform="translate(444.69 -581.86)" style="fill:#febd2b"/><path d="M-428.2,581.87c1.86-.13,2.23.7,2.13,1.78s.65,2.74-1.34,3c-1.38.2-1.59-.78-1.55-1.8S-429.43,582.26-428.2,581.87Z" transform="translate(444.69 -581.86)" style="fill:#feb30a"/><path d="M-432.93,587.15c-.19,1-.76,1.65-1.62,1.46-1.64-.36-2.06-1.94-2.38-3.28a1.28,1.28,0,0,1,1.51-1.43C-433.86,584.33-433.54,585.93-432.93,587.15Z" transform="translate(444.69 -581.86)" style="fill:#feba1f"/><path d="M-442.56,597.7c1.06.07,2.43-.24,2.53,1.37s-1.37,1.4-2.38,1.41c-.85,0-2.06.35-2.25-1C-444.89,597.88-443.79,597.67-442.56,597.7Z" transform="translate(444.69 -581.86)" style="fill:#feb000"/><path d="M-438.07,606.46a4.43,4.43,0,0,1-3.55,2,1.1,1.1,0,0,1-1.12-1.32c.4-1.63,1.91-2.22,3.31-2.52C-438.71,604.46-438.1,605.39-438.07,606.46Z" transform="translate(444.69 -581.86)" style="fill:#feb819"/><path d="M-439.84,593.61c-1.05-.7-2.87-.72-2.89-2.67a1.11,1.11,0,0,1,1.28-1.16c1.39.39,3,.84,3.39,2.43C-437.9,592.83-438.71,593.66-439.84,593.61Z" transform="translate(444.69 -581.86)" style="fill:#feb612"/><path d="M-410.24,616.32c-3.2-.29-1.32-2-.94-3.3.23-.81,1.43-1.72.25-2.45s-2,0-2.64,1.18c-.83,1.52-1.75,3-2.63,4.5-3.94,0-7.87-.09-11.81,0a5.1,5.1,0,0,1-5.37-3.48,3.9,3.9,0,0,1,2.54-5.16c2.4-.87,1.67-3.58,3.19-4.61,5.3-3.57,10.42-7.76,16.26-10.12,5.16-2.09,10.34,2.35,10.94,8.19.2,2,.72,3.26,2.45,4.31,2.57,1.58,3.22,4.17,2.33,6.9s-3.08,3.77-5.72,3.91C-404.34,616.32-407.29,616.28-410.24,616.32Z" transform="translate(444.69 -581.86)" style="fill:#7f8184"/><path d="M-432.69,604.72c-1.36-3.08-3.17-6.05-.44-9.42,1.84-2.26,4-2.86,6.81-2.76,2.45.09,3.45,2.24,5.31,3.1A19.88,19.88,0,0,0-432.69,604.72Z" transform="translate(444.69 -581.86)" style="fill:#fded00"/></svg>