<svg id="_389" data-name="389" xmlns="http://www.w3.org/2000/svg" viewBox="0 0 44.11 41.47"><title>389</title><path d="M-324.88,621.4c-3.93,0-7.85.17-11.77.1a7,7,0,0,1-7.06-5.07c-1-3.21.63-5.63,2.24-8.5,3.82-6.77,11.34-8.49,16.52-13.39,6.39-6,17.34-2,19.44,6.56a9.57,9.57,0,0,0,3,5.29c2.8,2.59,3.21,6.08,1.94,9.52a8.3,8.3,0,0,1-7.93,5.58c-3.42.14-6.86,0-10.3,0,.27-.91.55-1.82.82-2.73l8.84-.11a6,6,0,0,0,6.07-4.78,5,5,0,0,0-2.68-6.18c-1.91-.92-2.33-2.23-2.5-4.23-.5-6-6.56-10.59-11.84-8s-9.6,7-15,9.65c-1.83.9-1.36,4.19-3.83,5.37-2,1-2.37,3.08-1.74,5.14s2.32,3,4.52,3.05c4.09,0,8.18,0,12.28.07Z" transform="translate(344.03 -591.65)" style="fill:#353535"/><path d="M-318,618.72c-.27.91-.55,1.82-.82,2.73s-1.59,1.49-.81,2.91c1.77,3.22-1.14,8.28-5.34,8.75,3.22-3.32-.5-7.71,2.35-11l-2.24-.74c.31-.91.63-1.81.95-2.72.89-1.54,1.84-3.06,2.67-4.64.54-1,1.39-1.63,2.36-1.15,1.3.65.23,1.61,0,2.48C-319.22,616.61-321.44,618.44-318,618.72Z" transform="translate(344.03 -591.65)" style="fill:#fcb005"/><path d="M-318,618.72c-3.42-.28-1.2-2.11-.88-3.35.23-.87,1.3-1.83,0-2.48-1-.48-1.82.12-2.36,1.15-.83,1.58-1.78,3.1-2.67,4.64-4.1,0-8.19-.06-12.28-.07-2.2,0-3.86-.91-4.52-3.05s-.26-4.19,1.74-5.14c2.47-1.18,2-4.47,3.83-5.37,5.43-2.66,9.76-7.08,15-9.65s11.34,2,11.84,8c.17,2,.59,3.31,2.5,4.23a5,5,0,0,1,2.68,6.18,6,6,0,0,1-6.07,4.78Z" transform="translate(344.03 -591.65)" style="fill:#7f8184"/></svg>