<svg id="_392" data-name="392" xmlns="http://www.w3.org/2000/svg" viewBox="0 0 52.45 49.06"><title>392</title><path d="M-316.65,611.82c9.69-7.51,18.77-4.67,22,6.92a3.94,3.94,0,0,0,1.41,2.4c3.75,2.86,4.72,6.7,2.95,10.9-1.82,4.35-5.64,5.6-10.1,5.31-1-.06-2,0-2.95-.06.27-.92.55-1.84.82-2.76.82,0,1.64-.12,2.46-.09,3.2.1,6.06-.74,7.19-4S-293,624.59-296,623c-1.72-.92-1.39-2.34-1.58-3.76-.79-5.82-5.84-10.27-11-8.18-5.83,2.36-10.94,6.56-16.26,10.11-1.44,1-.7,3.57-2.75,4.38-2.44,1-3.8,2.86-3,5.4s3.06,3.55,5.86,3.49c5.4-.11,10.82,0,16.23,0l-.91,2.75c-4.9,0-9.81.14-14.71.13-8.63,0-11.64-5-7.75-12.82l1.95-1.58a19.93,19.93,0,0,1,11.69-9.09Z" transform="translate(341.91 -600.05)" style="fill:#353534"/><path d="M-316.65,611.82l-1.58,2c-1.86-.85-2.87-3-5.31-3.09-2.78-.11-5,.5-6.81,2.76-2.74,3.36-.92,6.34.43,9.42l-1.95,1.58c-3.91-6-3.59-11.27.91-14.83S-321.4,607-316.65,611.82Z" transform="translate(341.91 -600.05)" style="fill:#fdb307"/><path d="M-309.41,637.21l.91-2.75c.88-1.5,1.8-3,2.63-4.5.6-1.12,1.48-1.9,2.64-1.18s0,1.65-.25,2.46c-.38,1.31-2.26,3,.93,3.29-.27.92-.55,1.84-.82,2.76-.87,3.05.84,6.55-1.89,9.34-1.07,1.1-1.26,3.15-4,2.25,2.82-3.2-.84-7.24,1.73-10.7C-307.12,637.6-308.75,637.55-309.41,637.21Z" transform="translate(341.91 -600.05)" style="fill:#fdb209"/><path d="M-318.54,648.08c-3.33,2.09-2.94-2-4.48-3.1,1.16-1.29.87-3.63,3.6-3.87,3-.26,4.37,1.25,4.74,3.57C-314.6,645.15-314.62,649.59-318.54,648.08Z" transform="translate(341.91 -600.05)" style="fill:#d4d5d6"/><path d="M-317.36,602.06c1.35-.06,2.14.61,2,1.36-.23,1.42-.78,2.93-2.34,3.44a1.25,1.25,0,0,1-1.61-1.34A5.47,5.47,0,0,1-317.36,602.06Z" transform="translate(341.91 -600.05)" style="fill:#febd2b"/><path d="M-323.26,602.6c0,1.13.09,2.41-1.63,2.29s-1.26-1.54-1.29-2.55-.25-2.44,1.55-2.28S-323.37,601.57-323.26,602.6Z" transform="translate(341.91 -600.05)" style="fill:#feb30a"/><path d="M-330.15,605.4c-.22.92-.77,1.64-1.65,1.42-1.63-.39-2.06-2-2.36-3.31a1.28,1.28,0,0,1,1.54-1.39C-331.07,602.58-330.75,604.16-330.15,605.4Z" transform="translate(341.91 -600.05)" style="fill:#feba1f"/><path d="M-339.4,618.74c-1-.18-2.45.44-2.51-1.31s1.27-1.52,2.37-1.51,2.38,0,2.29,1.61C-337.33,619-338.53,618.59-339.4,618.74Z" transform="translate(341.91 -600.05)" style="fill:#feb000"/><path d="M-335.3,624.1c0,1.74-1.59,1.86-2.63,2.44-.76.43-1.78.26-1.93-.77-.28-2,1.57-2.23,2.76-2.86C-336.11,622.39-335.74,623.4-335.3,624.1Z" transform="translate(341.91 -600.05)" style="fill:#feb819"/><path d="M-338.27,608c1,.74,2.91.7,2.9,2.59a1.29,1.29,0,0,1-1.8,1.12c-1.16-.49-2.67-.82-2.82-2.37C-340.08,608.57-339.51,607.82-338.27,608Z" transform="translate(341.91 -600.05)" style="fill:#feb612"/><path d="M-302.55,634.53c-3.19-.28-1.31-2-.93-3.29.23-.81,1.43-1.73.25-2.46s-2,.06-2.64,1.18c-.83,1.53-1.75,3-2.63,4.5-5.41,0-10.83-.11-16.23,0-2.8.06-5-.9-5.86-3.49s.52-4.43,3-5.4c2.05-.81,1.31-3.41,2.75-4.38,5.32-3.55,10.43-7.75,16.26-10.11,5.17-2.09,10.22,2.36,11,8.18.19,1.42-.14,2.84,1.58,3.76,3,1.57,4.24,4.27,3.13,7.45s-4,4.07-7.19,4C-300.91,634.41-301.73,634.5-302.55,634.53Z" transform="translate(341.91 -600.05)" style="fill:#7f8184"/><path d="M-329.92,622.94c-1.35-3.08-3.17-6.06-.43-9.42,1.83-2.26,4-2.87,6.81-2.76,2.44.09,3.45,2.24,5.31,3.09A19.93,19.93,0,0,0-329.92,622.94Z" transform="translate(341.91 -600.05)" style="fill:#fded00"/></svg>