<svg id="_395" data-name="395" xmlns="http://www.w3.org/2000/svg" viewBox="0 0 44.06 41.48"><title>395</title><path d="M-330.12,519.19c-5.24,0-10.47,0-15.7.15-3.63.07-6.57-1.24-7.88-4.65s.65-6.07,2.4-9.25c3.73-6.79,11.18-8.21,16.19-13.08,6.3-6.12,17.24-2.07,19.48,6.5.45,1.73.5,3.37,2.18,4.66,3.4,2.6,4.08,6.33,2.67,10.16s-4.7,5.69-8.89,5.64l-4.41-.09c.27-.9.55-1.81.82-2.72a18.31,18.31,0,0,1,2.45-.09c3.52.31,6.19-.95,7.38-4.35s-.35-5.74-3.38-7.14c-1.79-.83-1.43-2.31-1.59-3.73-.68-6.2-7-10.74-12.37-7.87-4.91,2.63-8.93,6.86-14.26,9.12-2,.85-1.32,4.28-3.73,5.46-2.2,1.09-2.84,3.17-2.13,5.45.83,2.65,3,3.08,5.5,3.06,5.41,0,10.81,0,16.22.05Z" transform="translate(354.14 -489.42)" style="fill:#353535"/><path d="M-330.12,519.19c.31-.91.63-1.82.95-2.72.89-1.55,1.84-3.06,2.67-4.64.54-1,1.39-1.63,2.36-1.15,1.3.64.23,1.61,0,2.48-.32,1.24-2.55,3.06.88,3.35-.27.91-.55,1.82-.82,2.72s-1.59,1.5-.81,2.92c1.77,3.22-1.14,8.28-5.34,8.75,3.22-3.32-.51-7.71,2.35-11Z" transform="translate(354.14 -489.42)" style="fill:#fcb005"/><path d="M-339.09,530.43c-3.41.82-4.08-2.23-4.14-3.9,0-1.2,1-3.46,4.07-3.66,3.67-.22,2.32,3.45,4.41,3.92C-336.85,527.22-335.57,531.76-339.09,530.43Z" transform="translate(354.14 -489.42)" style="fill:#d6d7d8"/><path d="M-323.26,516.51c-3.43-.29-1.2-2.11-.88-3.35.23-.87,1.3-1.84,0-2.48-1-.48-1.82.12-2.36,1.15-.83,1.58-1.78,3.09-2.67,4.64-5.41,0-10.81-.09-16.22-.05-2.47,0-4.67-.41-5.5-3.06-.71-2.28-.07-4.36,2.13-5.45,2.41-1.18,1.71-4.61,3.73-5.46,5.33-2.26,9.35-6.49,14.26-9.12,5.34-2.87,11.69,1.67,12.37,7.87.16,1.42-.2,2.9,1.59,3.73,3,1.4,4.56,3.8,3.38,7.14s-3.86,4.66-7.38,4.35A18.31,18.31,0,0,0-323.26,516.51Z" transform="translate(354.14 -489.42)" style="fill:#7f8184"/></svg>