<svg id="_113" data-name="113" xmlns="http://www.w3.org/2000/svg" viewBox="0 0 15.71 19.51"><title>113</title><path d="M-463,499.43c-5.47,6.29-5.48,9-.21,15.36-4.7,3.15-9.24,2.88-12.75-.78a9.91,9.91,0,0,1-.59-13C-473.31,497-468.69,496.32-463,499.43Zm-4.4,14.74c-3.62-4.86-3-9.24-.4-13.88-5.1.18-7.8,2.41-7.86,6.8S-473,513.73-467.38,514.17Z" transform="translate(478.69 -497.46)" style="fill:#0676db"/><path d="M-467.38,514.17c-5.58-.44-8.32-2.67-8.26-7.08s2.76-6.62,7.86-6.8C-470.41,504.93-471,509.31-467.38,514.17Z" transform="translate(478.69 -497.46)" style="fill:#f8fbfd"/></svg>