<svg id="_116" data-name="116" xmlns="http://www.w3.org/2000/svg" viewBox="0 0 50.31 42.15"><title>116</title><path d="M-507.58,519.09c-4.58,0-9.16-.07-13.74,0-3.74.07-6.09-1.62-7.55-5-1.37-3.22.28-5.43,1.77-8.05,4.26-7.46,12.44-10,18.62-15,5.79-4.67,16.08.08,17.9,7.57a8.18,8.18,0,0,0,2.62,4.89c3.11,2.66,3.43,6.54,2.08,9.92a8.75,8.75,0,0,1-8.46,5.66Zm-.46-3c4.42,0,8.84.15,13.26,0s8.11-3.79,6.14-6.69c-3.21-4.74-4.11-10.64-8.08-14.81-1.8-1.9-4.57-3-6.76-2-6.49,3-12.7,6.59-17.83,11.71-.84.84-.53,2.49-2.15,3a4,4,0,0,0-3,5c.69,2.48,2.73,3.92,5.6,3.85C-516.56,516.07-512.3,516.14-508,516.13Z" transform="translate(535.43 -476.96)" style="fill:#d1d2d3"/><path d="M-519.59,478.91c-5.24,6.53-5.31,7.23-1,14.4,1.71,2.83-1.11,2.67-2.13,2.93-4.32,1.09-8.15.07-10.79-3.75s-2.6-7.76.12-11.4,6.34-5,10.79-3.58A30.43,30.43,0,0,1-519.59,478.91Zm-4.66.82c-5.14.59-7.78,2.68-8.09,6.75-.26,3.4,1.62,5.86,4.94,6.94a6.28,6.28,0,0,0,2.29-.17,6.54,6.54,0,0,0-.42-1.69C-527.61,487.71-526.7,484.05-524.25,479.73Z" transform="translate(535.43 -476.96)" style="fill:#0776db"/><path d="M-524.25,479.73c-2.45,4.32-3.36,8-1.28,11.83a6.54,6.54,0,0,1,.42,1.69,6.28,6.28,0,0,1-2.29.17c-3.32-1.08-5.2-3.54-4.94-6.94C-532,482.41-529.39,480.32-524.25,479.73Z" transform="translate(535.43 -476.96)" style="fill:#f6fafd"/></svg>