<svg id="_119" data-name="119" xmlns="http://www.w3.org/2000/svg" viewBox="0 0 50.22 29.79"><title>119</title><path d="M-404.89,528.93c2-2.2,4.32-4.11,7.39-4.51,1.92-.25,2.73-1.58,3.76-2.84,3.38-4.12,7.9-5.33,12.84-4.12a11.72,11.72,0,0,1,8.82,9c.5,2,1,3.54,2.7,4.92,3,2.45,3.36,6.06,2.19,9.46a8.15,8.15,0,0,1-7.82,5.78c-9.51.16-19,.24-28.53,0-5.43-.15-7.95-4.46-6.75-10.58.43-.9.85-1.8,1.28-2.69l2.25-1.36A4.94,4.94,0,0,0-404.89,528.93Zm15.68,14.86c4.42,0,8.84.11,13.25,0s8-3.89,5.94-6.78c-3.29-4.68-4.15-10.55-8.06-14.72-1.78-1.89-4.55-3-6.74-2-6.6,3-12.86,6.77-18,12-.81.83-.76,2.28-2.27,2.87a4,4,0,0,0-2.63,5.12,5,5,0,0,0,5.29,3.56C-398,543.74-393.62,543.79-389.21,543.79Z" transform="translate(416.79 -517.01)" style="fill:#939598"/><path d="M-409,533.37c-.43.89-.85,1.79-1.28,2.69-5.7-3.2-7.62-7.24-5.88-12.35a9.6,9.6,0,0,1,11.26-6.45c2.44.51,5.34,1,1.81,4.36-2,1.9-2.44,4.57-1.79,7.31a4.94,4.94,0,0,1-1.87,3.08c-2.16-3.9-1.59-7.73.88-11.82-4.46-.3-6.8,1.64-7.65,5.13C-414.47,529.19-412.66,531.88-409,533.37Z" transform="translate(416.79 -517.01)" style="fill:#0777db"/><path d="M-389.21,543.79c-4.41,0-8.83,0-13.24,0a5,5,0,0,1-5.29-3.56,4,4,0,0,1,2.63-5.12c1.51-.59,1.46-2,2.27-2.87,5.16-5.24,11.42-9,18-12,2.19-1,5,.12,6.74,2,3.91,4.17,4.77,10,8.06,14.72,2,2.89-1.63,6.65-5.94,6.78S-384.79,543.79-389.21,543.79Z" transform="translate(416.79 -517.01)" style="fill:#e5e6e7"/><path d="M-409,533.37c-3.65-1.49-5.46-4.18-4.52-8,.85-3.49,3.19-5.43,7.65-5.13-2.47,4.09-3,7.92-.88,11.82Z" transform="translate(416.79 -517.01)" style="fill:#f7fafd"/></svg>