<svg id="_122" data-name="122" xmlns="http://www.w3.org/2000/svg" viewBox="0 0 43.94 29.95"><title>122</title><path d="M-541.31,511.29c-4.26,0-8.53,0-12.79,0-3.65,0-6.57-1.45-7.75-4.9-1.12-3.29.64-5.86,2.34-8.91,3.8-6.76,11.23-8.35,16.31-13.2,6.37-6.08,17.28-2.06,19.41,6.67a8.72,8.72,0,0,0,2.69,4.92c3,2.7,3.47,6.28,2.11,9.93s-4.35,5.3-8.06,5.43C-531.79,511.41-536.56,511.28-541.31,511.29Zm.21-2.94c4.57,0,9.15,0,13.72,0,3.25,0,5.22-1.92,6-4.82a5,5,0,0,0-2.73-6.15c-1.92-.94-2.29-2.26-2.45-4.24-.5-5.92-5.9-10.3-11.3-8.11-5.71,2.31-10.17,7.15-15.78,10-1.67.85-1.12,3.95-3.53,4.94s-2.47,3.35-1.79,5.47,2.43,2.91,4.61,2.9C-549.92,508.34-545.51,508.36-541.1,508.35Z" transform="translate(562.2 -481.38)" style="fill:#939598"/><path d="M-541.1,508.36c-4.41,0-8.82,0-13.24,0-2.18,0-3.95-.79-4.61-2.9s-.65-4.46,1.79-5.47,1.86-4.09,3.53-4.94c5.61-2.88,10.07-7.72,15.78-10,5.4-2.19,10.8,2.19,11.3,8.11.16,2,.53,3.3,2.45,4.24a5,5,0,0,1,2.73,6.15c-.79,2.9-2.76,4.8-6,4.82C-531.95,508.38-536.53,508.35-541.1,508.36Z" transform="translate(562.2 -481.38)" style="fill:#e5e6e7"/></svg>