<svg id="_143" data-name="143" xmlns="http://www.w3.org/2000/svg" viewBox="0 0 43.75 39.84"><title>143</title><path d="M-451.68,542.38c-4.42,0-8.84.07-13.26,0-3.42-.07-6.24-1.77-7.21-5s.55-5.84,2.39-8.9c4.06-6.72,11.5-8.61,16.75-13.55,5.89-5.55,16.68-1.44,18.75,6.71a9.64,9.64,0,0,0,2.85,5.32c2.94,2.68,3.27,6.3,2,9.94s-4.49,5.18-8.05,5.39C-442.17,542.59-446.93,542.38-451.68,542.38Zm.64-3h13.29c3.32,0,5.21-2.11,6-4.88a4.81,4.81,0,0,0-2.73-6.11c-1.92-.88-2.4-2.22-2.54-4.25-.33-5.2-4.43-9.33-9.37-8.22-7.3,1.64-12.71,7.08-18.47,11.57-1,.79-.82,2.77-2.47,3.42-2.58,1-2.55,3.28-2,5.39.64,2.42,2.59,3.13,5,3.1C-459.9,539.39-455.47,539.44-451,539.43Z" transform="translate(472.45 -512.4)" style="fill:#d1d2d3"/><path d="M-450.73,552.24c-4.59,0-9.17,0-13.75,0-1.08,0-2.56.27-2.71-1.33s1.35-1.57,2.44-1.57q14,0,28,0c1.1,0,2.59-.14,2.47,1.55s-1.6,1.34-2.69,1.35C-441.57,552.26-446.15,552.24-450.73,552.24Z" transform="translate(472.45 -512.4)" style="fill:#d1d2d3"/></svg>