<svg id="_176" data-name="176" xmlns="http://www.w3.org/2000/svg" viewBox="0 0 50.18 53.78"><title>176</title><path d="M-283.09,384.23h-13.25A7.33,7.33,0,0,1-303.8,379c-1.18-3.2.57-5.39,2-8,3.94-7.08,11.7-9.23,17.35-14.08,6.48-5.58,16.86-1.35,19,7.12a8.79,8.79,0,0,0,2.69,4.88c3,2.7,3.43,6.39,2,9.92a8.44,8.44,0,0,1-8.09,5.4C-273.61,384.28-278.35,384.23-283.09,384.23Zm.61-2.93c4.42,0,8.83,0,13.25,0a5.64,5.64,0,0,0,5.74-3.78c1-2.65.5-5.33-2.07-6.92-1.87-1.17-2.43-2.54-2.65-4.69-.58-5.69-6-10.1-11.1-8-5.79,2.43-10.88,6.59-16.14,10.19-1.49,1-.8,3.7-3.2,4.57a3.87,3.87,0,0,0-2.45,5.18,4.88,4.88,0,0,0,4.89,3.4C-291.63,381.28-287,381.3-282.48,381.3Z" transform="translate(310.15 -342.21)" style="fill:#939598"/><path d="M-294.52,344.34c-5.09,6-5.27,7.84-1.09,14,2.11,3.09-.95,2.83-2.14,3.19A9.67,9.67,0,0,1-309,356.67,9.77,9.77,0,0,1-307.14,345C-303.59,341.52-299.7,341.28-294.52,344.34Zm-5,1.12c-5.14.32-7.94,2.93-7.75,6.88s3.19,6.25,7.74,5.94C-302.38,354.05-301.92,349.77-299.52,345.46Z" transform="translate(310.15 -342.21)" style="fill:#0776db"/><path d="M-289.45,395.8c1.73-2.93,1-7.93,6.93-8.76C-285.22,390.48-284.95,394.88-289.45,395.8Z" transform="translate(310.15 -342.21)" style="fill:#298de8"/><path d="M-277.73,387.47c-1.34,3.19-1.69,7.17-5.59,8.52C-282.34,392.53-282.17,388.57-277.73,387.47Z" transform="translate(310.15 -342.21)" style="fill:#2d8ee9"/><path d="M-282.48,381.3c-4.57,0-9.15,0-13.73,0a4.88,4.88,0,0,1-4.89-3.4,3.87,3.87,0,0,1,2.45-5.18c2.4-.87,1.71-3.55,3.2-4.57,5.26-3.6,10.35-7.76,16.14-10.19,5.11-2.14,10.52,2.27,11.1,8,.22,2.15.78,3.52,2.65,4.69,2.57,1.59,3.07,4.27,2.07,6.92a5.64,5.64,0,0,1-5.74,3.78C-273.65,381.27-278.06,381.3-282.48,381.3Z" transform="translate(310.15 -342.21)" style="fill:#e5e6e7"/><path d="M-299.52,345.46c-2.4,4.31-2.86,8.59,0,12.82-4.55.31-7.56-2.08-7.74-5.94S-304.66,345.78-299.52,345.46Z" transform="translate(310.15 -342.21)" style="fill:#f5f9fd"/></svg>