<svg id="_179" data-name="179" xmlns="http://www.w3.org/2000/svg" viewBox="0 0 50.27 53.49"><title>179</title><path d="M-476.22,537.26h-13.25a7.31,7.31,0,0,1-7.46-5.21c-1.18-3.19.57-5.39,2-8,3.94-7.09,11.71-9.23,17.35-14.09,6.48-5.57,16.86-1.35,19,7.12a8.75,8.75,0,0,0,2.7,4.88c3,2.71,3.42,6.39,2,9.92a8.43,8.43,0,0,1-8.09,5.4C-466.74,537.32-471.48,537.26-476.22,537.26Zm.48-2.92c4.41,0,8.83.1,13.24,0s8-3.91,5.94-6.79c-3.32-4.68-4.14-10.57-8.07-14.72-1.79-1.89-4.55-3-6.74-2-6.6,3-12.87,6.77-18,12-.8.82-.77,2.26-2.27,2.86a4,4,0,0,0-2.62,5.13,5,5,0,0,0,5.3,3.54C-484.57,534.29-480.15,534.34-475.74,534.34Z" transform="translate(503.37 -495.17)" style="fill:#939598"/><path d="M-492.68,514.86c-5.17-.08-8.11-2.2-9.77-5.91a9.09,9.09,0,0,1,1.77-10.45,9.16,9.16,0,0,1,10.21-2.78c2.26.74,3.56,1.35,1.16,3.76-2.84,2.84-3.06,6.28-1.16,9.91.72,1.36,3.36,2.09,2.25,3.81S-491.62,514.91-492.68,514.86Zm.34-16.65c-6,.92-8.66,3.85-8,7.91.66,3.79,3.52,5.72,7.59,5C-495.52,507-495.08,502.81-492.34,498.21Z" transform="translate(503.37 -495.17)" style="fill:#0776db"/><path d="M-476.21,548c-3.68,1.51-3-2.46-4.57-3.18,1.25-1.2.94-3.84,3.34-3.94,2.63-.1,4.94,1.06,5,3.77C-472.39,545.39-472.4,550.46-476.21,548Z" transform="translate(503.37 -495.17)" style="fill:#d4d5d6"/><path d="M-475.74,534.34c-4.41,0-8.83-.05-13.24,0a5,5,0,0,1-5.3-3.54,4,4,0,0,1,2.62-5.13c1.5-.6,1.47-2,2.27-2.86,5.15-5.26,11.42-9,18-12,2.19-1,4.95.12,6.74,2,3.93,4.15,4.75,10,8.07,14.72,2,2.88-1.63,6.65-5.94,6.79S-471.33,534.34-475.74,534.34Z" transform="translate(503.37 -495.17)" style="fill:#e5e6e7"/><path d="M-492.34,498.21c-2.74,4.6-3.18,8.75-.36,12.87-4.07.76-6.93-1.17-7.59-5C-501,502.06-498.34,499.13-492.34,498.21Z" transform="translate(503.37 -495.17)" style="fill:#f5f9fd"/></svg>