<svg id="_182" data-name="182" xmlns="http://www.w3.org/2000/svg" viewBox="0 0 50.16 53.97"><title>182</title><path d="M-537.35,547.85h-13.73a7.27,7.27,0,0,1-7.25-4.81c-1.4-3.34.35-5.67,1.92-8.5,3.95-7.1,11.74-9.18,17.38-14.06,6.45-5.58,16.84-1.29,18.92,7.21a8.61,8.61,0,0,0,2.73,4.85c2.87,2.57,3.31,6.11,2.08,9.49a8.5,8.5,0,0,1-8.31,5.8C-528.19,547.91-532.77,547.85-537.35,547.85Zm.11-2.93c4.42,0,8.83,0,13.24,0a5.67,5.67,0,0,0,6-4.16c.79-2.52.24-5-2.12-6.5a5.41,5.41,0,0,1-2.73-4.66c-.53-5.73-5.88-10.15-11-8-5.81,2.39-10.9,6.56-16.18,10.13-1.51,1-.78,3.74-3.18,4.6a3.9,3.9,0,0,0-2.54,5.14,5.07,5.07,0,0,0,5.33,3.5C-546.07,544.87-541.65,544.92-537.24,544.92Z" transform="translate(564.82 -505.81)" style="fill:#939598"/><path d="M-549.34,508c-5,6.45-5.15,7.33-.82,14.06,1.79,2.79-.89,2.64-2,3a9.62,9.62,0,0,1-11.37-4.46,9.78,9.78,0,0,1,1.77-12.09C-558.12,505.1-554.08,504.93-549.34,508Zm-4.52.73c-5.15.3-7.65,2.58-8,6.6-.29,3.39,1.62,5.86,4.94,6.93a6.28,6.28,0,0,0,2.29-.17,6.53,6.53,0,0,0-.41-1.69C-557.11,516.51-556.21,512.85-553.86,508.69Z" transform="translate(564.82 -505.81)" style="fill:#0776db"/><path d="M-531.85,558.61c-3.66,1.24-3.07-2.44-4.59-3.29,1.43-1,.84-3.75,3.41-3.86,2.82-.11,5,1.22,5,3.83C-528,556.55-528.47,560.7-531.85,558.61Z" transform="translate(564.82 -505.81)" style="fill:#d4d5d6"/><path d="M-543.55,551.06c-1.2,2.45-2.27,4.58-3.29,6.73-.6,1.25-1.44,2.54-2.91,1.73s-.1-2.16.41-2.81C-547.78,554.7-548.3,550.58-543.55,551.06Z" transform="translate(564.82 -505.81)" style="fill:#298de8"/><path d="M-543.07,559.71c-.91-.06-1.68-.4-1.27-1.13,1.48-2.61,1.79-6,4.73-7.64.34-.19,1.07.34,1.62.53-1.3,2.61-2.57,5.24-3.94,7.82C-542.1,559.6-542.79,559.62-543.07,559.71Z" transform="translate(564.82 -505.81)" style="fill:#2d8ee9"/><path d="M-537.24,544.92c-4.41,0-8.83,0-13.24,0a5.07,5.07,0,0,1-5.33-3.5,3.9,3.9,0,0,1,2.54-5.14c2.4-.86,1.67-3.57,3.18-4.6,5.28-3.57,10.37-7.74,16.18-10.13,5.13-2.11,10.48,2.31,11,8a5.41,5.41,0,0,0,2.73,4.66c2.36,1.51,2.91,4,2.12,6.5a5.67,5.67,0,0,1-6,4.16C-528.41,544.9-532.82,544.92-537.24,544.92Z" transform="translate(564.82 -505.81)" style="fill:#e5e6e7"/><path d="M-553.86,508.69c-2.35,4.16-3.25,7.82-1.17,11.67a6.53,6.53,0,0,1,.41,1.69,6.28,6.28,0,0,1-2.29.17c-3.32-1.07-5.23-3.54-4.94-6.93C-561.51,511.27-559,509-553.86,508.69Z" transform="translate(564.82 -505.81)" style="fill:#f5f9fd"/></svg>