<svg id="_185" data-name="185" xmlns="http://www.w3.org/2000/svg" viewBox="0 0 43.94 39.68"><title>185</title><path d="M-451.67,556.46c-4.26,0-8.53,0-12.79,0-3.64,0-6.57-1.44-7.75-4.89-1.12-3.29.64-5.86,2.35-8.91,3.79-6.76,11.22-8.36,16.31-13.21,6.37-6.07,17.28-2.05,19.4,6.68a8.73,8.73,0,0,0,2.7,4.92c3,2.7,3.46,6.28,2.11,9.93s-4.36,5.29-8.06,5.43C-442.15,556.59-446.91,556.46-451.67,556.46Zm.51-2.94c4.57,0,9.15.07,13.72,0,3-.06,4.86-1.92,5.65-4.61a5,5,0,0,0-2.5-6.24,4.45,4.45,0,0,1-2.63-4.14c-.48-6.08-5.67-10.52-11.09-8.3-5.81,2.37-10.92,6.58-16.16,10.23-1.46,1-.95,3.72-3.19,4.63-2.44,1-2.63,3.22-2,5.4.68,2.39,2.62,3.1,5,3.08C-460,553.51-455.57,553.54-451.16,553.52Z" transform="translate(472.56 -526.55)" style="fill:#939598"/><path d="M-453,562.77c-.63,1.4-.91,3.14-2.85,3.44-.92.14-1.66-.36-1.33-1.35.44-1.33.88-2.82,2.52-3.22C-453.84,561.42-453.15,561.68-453,562.77Z" transform="translate(472.56 -526.55)" style="fill:#dfdfdf"/><path d="M-447.18,563c-.68,1.38-1,3.17-3,3.25-.94,0-1.47-.61-1.05-1.58.55-1.29.94-2.81,2.67-3C-447.64,561.48-447.08,561.91-447.18,563Z" transform="translate(472.56 -526.55)" style="fill:#dfdfdf"/><path d="M-441.23,562.77c-.62,1.4-.91,3.14-2.84,3.44-.92.14-1.66-.36-1.33-1.35.44-1.33.87-2.82,2.51-3.22C-442,561.42-441.33,561.68-441.23,562.77Z" transform="translate(472.56 -526.55)" style="fill:#dfdfdf"/><path d="M-460.81,566.16c-1.11-1.62-2.65-2.81-1.61-4.4a2.17,2.17,0,0,1,3,.14C-458.28,563.61-460,564.62-460.81,566.16Z" transform="translate(472.56 -526.55)" style="fill:#e0e0e0"/><path d="M-451.16,553.53c-4.41,0-8.82,0-13.23,0-2.35,0-4.29-.69-5-3.08-.63-2.18-.44-4.41,2-5.4,2.24-.91,1.73-3.61,3.19-4.63,5.24-3.65,10.35-7.86,16.16-10.23,5.42-2.22,10.61,2.22,11.09,8.3a4.45,4.45,0,0,0,2.63,4.14,5,5,0,0,1,2.5,6.24c-.79,2.69-2.64,4.55-5.65,4.61C-442,553.59-446.59,553.52-451.16,553.53Z" transform="translate(472.56 -526.55)" style="fill:#e5e6e7"/></svg>