<svg id="_200" data-name="200" xmlns="http://www.w3.org/2000/svg" viewBox="0 0 50.28 53.84"><title>200</title><path d="M-501.7,516.65c-3.93,0-7.86.18-11.78.1a7.18,7.18,0,0,1-7.12-5c-1.24-3.36.61-5.63,2.2-8.45,3.79-6.76,11.26-8.61,16.48-13.46,6.45-6,17.19-2.18,19.55,6.43.57,2.09,1.07,3.8,2.83,5.32,2.89,2.5,3.31,6,2.06,9.47a8.27,8.27,0,0,1-7.87,5.67c-3.43.15-6.87,0-10.31,0,.28-.92.55-1.84.83-2.75,2.95,0,5.9,0,8.85-.15,2.64-.14,4.87-1.31,5.72-3.91s.24-5.32-2.33-6.89c-1.73-1.06-2.25-2.32-2.45-4.32-.6-5.84-5.78-10.28-10.94-8.19-5.84,2.37-11,6.55-16.26,10.12-1.52,1-.79,3.75-3.19,4.61A3.9,3.9,0,0,0-518,510.4a5.11,5.11,0,0,0,5.37,3.48c3.94-.07,7.87,0,11.81,0Z" transform="translate(527.09 -474.7)" style="fill:#353535"/><path d="M-516.45,494.36c-4.89.1-8-2-9.74-5.93A9.07,9.07,0,0,1-524.36,478a9.18,9.18,0,0,1,10.23-2.73c2.38.78,3.35,1.45,1.07,3.79-3,3-3.07,6.62-.82,10.32.7,1.13,3.1,1.75,1.93,3.39C-513,494.2-515.06,494.4-516.45,494.36Zm.41-3.19c-3.33-4.59-2.55-8.88-.21-13.52-5,.3-7.44,2.63-7.81,6.87C-524.38,488.26-521.43,490.8-516,491.17Z" transform="translate(527.09 -474.7)" style="fill:#0776db"/><path d="M-501.7,516.65l.91-2.75c.88-1.5,1.8-3,2.63-4.5.6-1.13,1.48-1.9,2.64-1.18s0,1.64-.25,2.45c-.38,1.32-2.26,3,.94,3.3-.28.91-.55,1.83-.83,2.75-.88,3,.84,6.55-1.89,9.35-1.07,1.1-1.26,3.15-4,2.25,2.83-3.2-.85-7.25,1.73-10.71C-499.41,517-501,517-501.7,516.65Z" transform="translate(527.09 -474.7)" style="fill:#fcb108"/><path d="M-494.83,514c-3.2-.28-1.32-2-.94-3.3.23-.81,1.43-1.72.25-2.45s-2,0-2.64,1.18c-.83,1.52-1.75,3-2.63,4.5-3.94,0-7.87-.09-11.81,0A5.11,5.11,0,0,1-518,510.4a3.9,3.9,0,0,1,2.54-5.16c2.4-.86,1.67-3.58,3.19-4.61,5.3-3.57,10.42-7.75,16.26-10.12,5.16-2.09,10.34,2.35,10.94,8.19.2,2,.72,3.26,2.45,4.32,2.57,1.57,3.22,4.17,2.33,6.89s-3.08,3.77-5.72,3.91C-488.93,514-491.88,513.93-494.83,514Z" transform="translate(527.09 -474.7)" style="fill:#7f8184"/><path d="M-516,491.17c-5.39-.37-8.34-2.91-8-6.65.37-4.24,2.83-6.57,7.81-6.87C-518.59,482.29-519.37,486.58-516,491.17Z" transform="translate(527.09 -474.7)" style="fill:#f5f9fd"/></svg>