<svg id="_227" data-name="227" xmlns="http://www.w3.org/2000/svg" viewBox="0 0 43.94 41.22"><title>227</title><path d="M-533.55,505.64c-4.26,0-8.53,0-12.79,0-3.65,0-6.57-1.45-7.75-4.89s.64-5.87,2.35-8.91c3.79-6.76,11.22-8.36,16.3-13.21,6.37-6.07,17.28-2.05,19.41,6.67a8.67,8.67,0,0,0,2.7,4.92c3,2.7,3.46,6.29,2.1,9.94s-4.35,5.29-8,5.42C-524,505.77-528.79,505.64-533.55,505.64Zm.28-2.93c4.57,0,9.15,0,13.72,0,3.25,0,5.21-2,6-4.87a5,5,0,0,0-2.81-6.12c-2-.93-2.22-2.34-2.39-4.27-.51-5.86-6-10.26-11.37-8-5.69,2.35-10.17,7.15-15.75,10.08-1.64.86-1.12,4-3.55,4.92-2.22.87-2.32,3-1.85,5a4.09,4.09,0,0,0,4.32,3.27C-542.42,502.73-537.85,502.7-533.27,502.71Z" transform="translate(554.44 -475.73)" style="fill:#939598"/><path d="M-539.59,516.73c-3.26,1-4.15-2.46-4-3.49.2-1.71.84-4,4.24-4s2.42,3.18,4.24,4C-537.07,513.83-536.25,517.94-539.59,516.73Z" transform="translate(554.44 -475.73)" style="fill:#d6d7d8"/><path d="M-525.07,509.53c2.12.88,6-1.33,6.14,1.76.08,2.3-3.91,1.24-6,1.13S-531,514-531,511C-531,508.41-527.11,510.39-525.07,509.53Z" transform="translate(554.44 -475.73)" style="fill:#d0d1d2"/><path d="M-531.08,515.61c3.18-1.55,6.41-1.19,9.69-.17C-524.51,517-527.79,516.59-531.08,515.61Z" transform="translate(554.44 -475.73)" style="fill:#d0d1d2"/><path d="M-533.27,502.7c-4.58,0-9.15,0-13.72,0a4.09,4.09,0,0,1-4.32-3.27c-.47-2-.37-4.16,1.85-5,2.43-1,1.91-4.06,3.55-4.92,5.58-2.93,10.06-7.73,15.75-10.08,5.36-2.22,10.86,2.18,11.37,8,.17,1.93.42,3.34,2.39,4.27a5,5,0,0,1,2.81,6.12c-.75,2.9-2.71,4.84-6,4.87C-524.12,502.74-528.7,502.71-533.27,502.7Z" transform="translate(554.44 -475.73)" style="fill:#e5e6e7"/></svg>