<svg id="_230" data-name="230" xmlns="http://www.w3.org/2000/svg" viewBox="0 0 43.95 41.31"><title>230</title><path d="M-463.88,506.06c-4.43,0-8.86,0-13.29,0-3.45,0-6.19-1.58-7.3-4.81s.55-5.88,2.28-8.94c3.81-6.72,11.22-8.36,16.3-13.21,6.21-5.92,17-2.26,19.33,6.11a10.91,10.91,0,0,0,3.12,5.77c2.8,2.57,3.12,6.1,1.85,9.56-1.33,3.61-4.33,5.34-8,5.48C-454.37,506.19-459.13,506.05-463.88,506.06Zm.43-2.94c4.58,0,9.15.06,13.73,0,3-.06,4.86-1.92,5.65-4.61a5,5,0,0,0-2.49-6.24,4.46,4.46,0,0,1-2.64-4.13c-.47-6.09-5.66-10.53-11.08-8.32-5.82,2.38-10.92,6.58-16.16,10.23-1.47,1-1,3.73-3.19,4.63-2.44,1-2.63,3.22-2,5.4.68,2.39,2.61,3.11,5,3.09C-472.27,503.11-467.86,503.13-463.45,503.12Z" transform="translate(484.83 -476.18)" style="fill:#939598"/><path d="M-475.75,517.15c-3.42.88-4.05-2.23-4.14-3.88-.06-1.19.95-3.47,4.06-3.66,3.64-.22,2.34,3.42,4.42,3.89C-473.51,514-472.2,518.5-475.75,517.15Z" transform="translate(484.83 -476.18)" style="fill:#d6d7d8"/><path d="M-464.2,517.3c-2.9,1-2.88-2.26-4.22-3.77,1.48-1.12,1-3.64,4.13-3.92,3.52-.32,2.78,2.92,4.61,3.64C-461,514.58-460.9,517.38-464.2,517.3Z" transform="translate(484.83 -476.18)" style="fill:#d6d7d8"/><path d="M-449.55,513.12c-2-.9-5.9,1.34-6-1.74-.06-2.46,3.79-1.16,5.82-1.16,2.21,0,6.29-1.29,6.3,1.24C-443.39,514.35-447.4,512.27-449.55,513.12Z" transform="translate(484.83 -476.18)" style="fill:#d0d1d2"/><path d="M-455.57,515.84c3.26-1,6.48-1.35,9.65.31C-449.16,516.82-452.4,517.47-455.57,515.84Z" transform="translate(484.83 -476.18)" style="fill:#d0d1d2"/><path d="M-463.45,503.13c-4.41,0-8.82,0-13.23,0-2.35,0-4.28-.7-5-3.09-.62-2.18-.43-4.41,2-5.4,2.23-.9,1.72-3.61,3.19-4.63,5.24-3.65,10.34-7.85,16.16-10.23,5.42-2.21,10.61,2.23,11.08,8.32a4.46,4.46,0,0,0,2.64,4.13,5,5,0,0,1,2.49,6.24c-.79,2.69-2.65,4.55-5.65,4.61C-454.3,503.18-458.87,503.12-463.45,503.13Z" transform="translate(484.83 -476.18)" style="fill:#e5e6e7"/></svg>