<svg id="_248" data-name="248" xmlns="http://www.w3.org/2000/svg" viewBox="0 0 43.75 39.84"><title>248</title><path d="M-531.84,554.09c-4.42,0-8.84.07-13.26,0-3.43-.07-6.25-1.76-7.23-4.93s.53-5.85,2.36-8.91c4-6.75,11.52-8.6,16.75-13.55,5.88-5.56,16.67-1.48,18.77,6.67a9.67,9.67,0,0,0,2.83,5.32c2.95,2.68,3.3,6.29,2.06,9.94s-4.48,5.19-8,5.41C-522.33,554.31-527.09,554.09-531.84,554.09Zm.26-2.94c4.43,0,8.86-.06,13.29,0,3.55.06,5.58-2.06,6.43-5a4.9,4.9,0,0,0-2.89-6.07c-1.69-.77-2.26-1.92-2.42-3.81-.53-6.31-5.85-10.72-11.43-8.42s-10,7.08-15.56,9.83c-1.63.81-1,3.88-3,4.79-2.73,1.18-2.95,3.42-2.25,5.74.8,2.65,3.09,3,5.57,3C-539.78,551.09-535.68,551.15-531.58,551.15Z" transform="translate(552.64 -524.12)" style="fill:#d1d2d3"/><path d="M-530.79,556.11c4.58,0,9.16,0,13.74,0,1.11,0,2.6-.13,2.57,1.48S-516,559-517.1,559q-14,0-28,0c-1,0-2.16.06-2.29-1.23-.18-1.72,1.23-1.66,2.34-1.67C-540.27,556.09-535.53,556.11-530.79,556.11Z" transform="translate(552.64 -524.12)" style="fill:#d2d2d3"/><path d="M-531.08,564c-4.58,0-9.16,0-13.75,0-1.1,0-2.59.13-2.57-1.48s1.52-1.43,2.62-1.44q14,0,28,0c1,0,2.16-.06,2.29,1.24.18,1.71-1.22,1.65-2.34,1.66C-521.59,564-526.34,563.94-531.08,564Z" transform="translate(552.64 -524.12)" style="fill:#d1d2d3"/></svg>