<svg id="_260" data-name="260" xmlns="http://www.w3.org/2000/svg" viewBox="0 0 43.75 39.89"><title>260</title><path d="M-505.89,590.38c-4.42,0-8.84.07-13.26,0-3.43-.07-6.25-1.77-7.21-5s.55-5.84,2.39-8.9c4.05-6.72,11.5-8.61,16.75-13.55,5.89-5.55,16.68-1.44,18.75,6.71a9.58,9.58,0,0,0,2.85,5.32c2.94,2.68,3.27,6.3,2,9.94s-4.49,5.18-8,5.39C-496.38,590.59-501.14,590.38-505.89,590.38Zm.4-2.94c4.43,0,8.86-.05,13.28,0,3.32,0,5.29-1.9,6.19-4.67a5,5,0,0,0-2.86-6.47c-1.74-.8-2.16-2-2.31-3.88-.48-5.91-5.39-10.56-10.52-8.3-6.41,2.83-13,6.28-17.63,12.07-.77,1-1.07,2.27-2.39,2.88-2.55,1.17-2.31,3.47-1.7,5.51s2.44,2.89,4.65,2.86C-514.35,587.4-509.92,587.43-505.49,587.44Z" transform="translate(526.66 -560.4)" style="fill:#d1d2d3"/><path d="M-501.86,600.24c-3.26,0-6.52,0-9.78,0-.83,0-2.18.52-2.28-1a1.72,1.72,0,0,1,1.83-1.86q11-.07,22,0c.89,0,1.67.46,1.62,1.42-.06,1.28-1.14,1.43-2.14,1.43-3.75,0-7.5,0-11.25,0Z" transform="translate(526.66 -560.4)" style="fill:#d1d2d3"/><path d="M-500.28,595.31c-3.1,0-6.2,0-9.3,0-.79,0-1.77,0-1.78-1.14a1.58,1.58,0,0,1,1.56-1.59c6.69-.07,13.37-.07,20.06-.06a1.24,1.24,0,0,1,1.26,1.24c0,1.33-1,1.53-2,1.54C-493.75,595.32-497,595.3-500.28,595.31Z" transform="translate(526.66 -560.4)" style="fill:#d2d3d4"/><path d="M-518.09,600.1c-1.42-2.57-3.89-4.88-2.77-7.07.82-1.61,4-.68,6.5-.37A24.53,24.53,0,0,1-518.09,600.1Z" transform="translate(526.66 -560.4)" style="fill:#d4d5d6"/></svg>