<svg id="_263" data-name="263" xmlns="http://www.w3.org/2000/svg" viewBox="0 0 43.95 39.81"><title>263</title><path d="M-436.21,580c-4.43,0-8.86,0-13.29,0-3.45,0-6.18-1.59-7.3-4.82s.56-5.87,2.29-8.93c3.8-6.73,11.21-8.37,16.29-13.21,6.21-5.92,17-2.27,19.33,6.1a10.94,10.94,0,0,0,3.12,5.78c2.8,2.57,3.12,6.09,1.85,9.55-1.33,3.62-4.32,5.34-8,5.49C-426.7,580.17-431.46,580-436.21,580Zm.23-2.93c4.57,0,9.15,0,13.72,0,3.25,0,5.2-2,5.95-4.89a5,5,0,0,0-2.83-6.12c-2-.92-2.21-2.34-2.38-4.27-.45-5.39-5-9.78-9.92-8.11-6.84,2.29-12.9,6.66-18.1,11.86-.83.83-.78,2.38-2.25,3-2.42,1-2.81,3.07-2.24,5.31.68,2.69,2.79,3.32,5.3,3.29C-444.48,577.08-440.23,577.11-436,577.1Z" transform="translate(457.16 -550.16)" style="fill:#939598"/><path d="M-443.11,585.66c-1.26,1.74-1.13,4-3.38,4.25-.78.1-1.89-.09-1.33-1.18.74-1.44.8-3.67,3.18-3.69A4.69,4.69,0,0,1-443.11,585.66Z" transform="translate(457.16 -550.16)" style="fill:#3492e9"/><path d="M-437.58,586.26c-1,1.24-.81,3.55-3.15,3.67-.83,0-1.78-.25-1.14-1.35.82-1.4.83-3.65,3.29-3.55C-437.87,585.06-437.38,585.33-437.58,586.26Z" transform="translate(457.16 -550.16)" style="fill:#3492e9"/><path d="M-436.32,589.43c1.1-1.66.8-4.38,3.71-4.37,1.16,0,1.21.77.72,1.61C-432.85,588.31-433.15,591-436.32,589.43Z" transform="translate(457.16 -550.16)" style="fill:#3492e9"/><path d="M-428.75,590c-.65-.14-1.69-.05-1.41-.85.56-1.57.77-3.57,2.84-4,.67-.16,2-.16,1.51,1C-426.39,587.59-426.63,589.61-428.75,590Z" transform="translate(457.16 -550.16)" style="fill:#3492e9"/><path d="M-436,577.11c-4.25,0-8.5,0-12.75,0-2.51,0-4.62-.6-5.3-3.29-.57-2.24-.18-4.34,2.24-5.31,1.47-.59,1.42-2.14,2.25-3,5.2-5.2,11.26-9.57,18.1-11.86,5-1.67,9.47,2.72,9.92,8.11.17,1.93.39,3.35,2.38,4.27a5,5,0,0,1,2.83,6.12c-.75,2.9-2.7,4.85-5.95,4.89C-426.83,577.14-431.41,577.1-436,577.11Z" transform="translate(457.16 -550.16)" style="fill:#e5e6e7"/></svg>