<svg id="_266" data-name="266" xmlns="http://www.w3.org/2000/svg" viewBox="0 0 43.94 39.88"><title>266</title><path d="M-552,550.25c-4.26,0-8.53,0-12.79,0-3.65,0-6.57-1.44-7.75-4.89-1.12-3.29.64-5.86,2.35-8.91,3.79-6.76,11.22-8.36,16.3-13.21,6.37-6.07,17.28-2,19.41,6.67a8.73,8.73,0,0,0,2.7,4.93c3,2.7,3.46,6.28,2.1,9.93s-4.35,5.29-8,5.43C-542.52,550.38-547.28,550.25-552,550.25Zm.51-2.94c4.57,0,9.15.07,13.72,0,3-.06,4.86-1.92,5.65-4.62a5,5,0,0,0-2.5-6.23,4.45,4.45,0,0,1-2.63-4.14c-.48-6.08-5.68-10.52-11.09-8.31-5.82,2.38-10.92,6.58-16.16,10.24-1.46,1-1,3.72-3.19,4.63-2.45,1-2.63,3.22-2,5.4.68,2.39,2.62,3.1,5,3.08C-560.35,547.3-555.94,547.33-551.53,547.31Z" transform="translate(572.93 -520.34)" style="fill:#939598"/><path d="M-561.95,560.22c-1.54-.16-2.16-.55-1.54-1.56.79-1.28.81-3.27,2.9-3.41.8-.06,1.81.14,1.27,1.26C-560,558-560.32,560-561.95,560.22Z" transform="translate(572.93 -520.34)" style="fill:#3492e9"/><path d="M-558.07,559.82c1.15-1.84.88-4.48,3.76-4.56.75,0,1.35.45.94,1.14C-554.32,558-554.33,560.8-558.07,559.82Z" transform="translate(572.93 -520.34)" style="fill:#3492e9"/><path d="M-552.08,559.64c1.09-1.65.8-4.37,3.71-4.37,1.16,0,1.21.77.72,1.61C-548.61,558.53-548.91,561.22-552.08,559.64Z" transform="translate(572.93 -520.34)" style="fill:#3492e9"/><path d="M-541.53,556.48c-1,1.24-.8,3.55-3.15,3.66-.83,0-1.78-.25-1.14-1.34.82-1.4.83-3.66,3.29-3.55C-541.82,555.28-541.33,555.55-541.53,556.48Z" transform="translate(572.93 -520.34)" style="fill:#3492e9"/><path d="M-551.53,547.32c-4.41,0-8.82,0-13.23,0-2.35,0-4.29-.69-5-3.08-.63-2.18-.45-4.41,2-5.4,2.23-.91,1.73-3.61,3.19-4.63,5.24-3.66,10.34-7.86,16.16-10.24,5.41-2.21,10.61,2.23,11.09,8.31a4.45,4.45,0,0,0,2.63,4.14,5,5,0,0,1,2.5,6.23c-.79,2.7-2.64,4.56-5.65,4.62C-542.38,547.38-547,547.31-551.53,547.32Z" transform="translate(572.93 -520.34)" style="fill:#e5e6e7"/></svg>