<svg id="_281" data-name="281" xmlns="http://www.w3.org/2000/svg" viewBox="0 0 43.95 39.67"><title>281</title><path d="M-464.59,582.86c-4.43,0-8.86,0-13.29,0-3.45,0-6.18-1.58-7.3-4.81s.56-5.88,2.29-8.94c3.8-6.72,11.21-8.36,16.29-13.21,6.21-5.92,17-2.26,19.33,6.11a10.91,10.91,0,0,0,3.12,5.77c2.8,2.57,3.12,6.1,1.85,9.56s-4.32,5.34-8,5.48C-455.08,583-459.84,582.85-464.59,582.86Zm.23-2.93c4.57,0,9.15,0,13.72,0,3.25,0,5.2-2,5.95-4.89a5,5,0,0,0-2.83-6.11c-2-.93-2.21-2.35-2.38-4.28-.45-5.39-5-9.78-9.92-8.11-6.84,2.29-12.9,6.67-18.1,11.86-.83.84-.78,2.39-2.25,3-2.42,1-2.81,3.07-2.24,5.31.68,2.69,2.79,3.32,5.3,3.29C-472.86,579.9-468.61,579.94-464.36,579.93Z" transform="translate(485.54 -552.98)" style="fill:#939598"/><path d="M-469.17,592.65c-1-.2-1.37-.77-.95-1.69.57-1.29,1-2.81,2.73-3,.92-.08,1.63.42,1.25,1.42C-466.69,590.87-467.15,592.52-469.17,592.65Z" transform="translate(485.54 -552.98)" style="fill:#dfdfdf"/><path d="M-460.2,589.43c-.66,1.34-1,3.14-3,3.18-1,0-1.42-.65-1-1.6.56-1.29,1-2.81,2.7-3C-460.61,587.89-460,588.32-460.2,589.43Z" transform="translate(485.54 -552.98)" style="fill:#dfdfdf"/><path d="M-457.28,592.65c-1-.16-1.47-.66-1.05-1.63.56-1.29.95-2.81,2.69-3,.93-.11,1.67.37,1.33,1.36C-454.82,590.82-455.3,592.46-457.28,592.65Z" transform="translate(485.54 -552.98)" style="fill:#dfdfdf"/><path d="M-475.85,588.24c1.28-.56,2.88-.9,3.57.17.88,1.34-.36,2.59-1.53,3.82A5.34,5.34,0,0,1-475.85,588.24Z" transform="translate(485.54 -552.98)" style="fill:#e0e0e0"/><path d="M-464.36,579.93c-4.25,0-8.5,0-12.75,0-2.51,0-4.62-.6-5.3-3.29-.57-2.24-.18-4.34,2.24-5.31,1.47-.58,1.42-2.13,2.25-3,5.2-5.19,11.26-9.57,18.1-11.86,5-1.67,9.47,2.72,9.92,8.11.17,1.93.39,3.35,2.38,4.28a5,5,0,0,1,2.83,6.11c-.75,2.9-2.7,4.86-5.95,4.89C-455.21,580-459.79,579.93-464.36,579.93Z" transform="translate(485.54 -552.98)" style="fill:#e5e6e7"/></svg>