<svg id="_284" data-name="284" xmlns="http://www.w3.org/2000/svg" viewBox="0 0 43.95 39.67"><title>284</title><path d="M-214.28,384.08c-4.43,0-8.86,0-13.29,0-3.45,0-6.19-1.58-7.3-4.81s.55-5.88,2.28-8.93c3.81-6.73,11.21-8.37,16.3-13.22,6.21-5.91,17-2.26,19.33,6.11a10.94,10.94,0,0,0,3.12,5.78c2.8,2.57,3.12,6.09,1.84,9.55-1.33,3.62-4.32,5.34-8,5.48C-204.77,384.22-209.53,384.08-214.28,384.08Zm.19-2.93c4.57,0,9.14,0,13.72,0,3.24,0,5.21-2,6-4.86a5,5,0,0,0-2.78-6.13c-2-.93-2.25-2.3-2.42-4.25-.51-5.88-6-10.3-11.34-8.07-5.68,2.37-10.2,7.12-15.76,10.06-1.65.87-1.11,4-3.55,4.93-2.22.86-2.35,3-1.87,5,.58,2.44,2.41,3.32,4.78,3.32Z" transform="translate(235.24 -354.21)" style="fill:#939598"/><path d="M-224.77,393.87c-1-.2-1.37-.76-.95-1.69.57-1.29,1-2.81,2.73-3,.92-.08,1.63.42,1.25,1.43C-222.29,392.1-222.75,393.75-224.77,393.87Z" transform="translate(235.24 -354.21)" style="fill:#dfdfdf"/><path d="M-215.81,390.7c-.67,1.32-1,3.12-3,3.13-1,0-1.38-.7-1-1.63.57-1.29,1-2.82,2.72-3C-216.18,389.12-215.59,389.57-215.81,390.7Z" transform="translate(235.24 -354.21)" style="fill:#dfdfdf"/><path d="M-212.6,393.86c-1,0-1.74-.42-1.38-1.43.47-1.32.89-2.81,2.56-3.18.88-.2,1.79.17,1.54,1.14C-210.27,391.9-210.8,393.5-212.6,393.86Z" transform="translate(235.24 -354.21)" style="fill:#dfdfdf"/><path d="M-203.93,390.54c-.67,1.36-1,3.15-3,3.3-.92.07-1.55-.5-1.14-1.51.53-1.31.93-2.81,2.63-3.1C-204.47,389.06-203.89,389.46-203.93,390.54Z" transform="translate(235.24 -354.21)" style="fill:#dfdfdf"/><path d="M-200.65,393.83c-1.12.05-1.84-.35-1.53-1.34.44-1.33.88-2.82,2.51-3.23.85-.22,1.81.05,1.6,1.07C-198.4,391.85-199,393.42-200.65,393.83Z" transform="translate(235.24 -354.21)" style="fill:#dfdfdf"/><path d="M-229.59,393.51c-.9-1.37-2.48-2.55-1.4-4.14a2.16,2.16,0,0,1,3,.16C-226.95,391.2-228.32,392.36-229.59,393.51Z" transform="translate(235.24 -354.21)" style="fill:#e0e0e0"/><path d="M-214.09,381.15h-13.24c-2.37,0-4.2-.88-4.78-3.32-.48-2-.35-4.16,1.87-5,2.44-1,1.9-4.06,3.55-4.93,5.56-2.94,10.08-7.69,15.76-10.06,5.36-2.23,10.83,2.19,11.34,8.07.17,2,.46,3.32,2.42,4.25a5,5,0,0,1,2.78,6.13c-.77,2.9-2.74,4.83-6,4.86C-204.95,381.18-209.52,381.15-214.09,381.15Z" transform="translate(235.24 -354.21)" style="fill:#e5e6e7"/></svg>