<svg id="_293" data-name="293" xmlns="http://www.w3.org/2000/svg" viewBox="0 0 50.18 54.52"><title>293</title><path d="M-586.9,546.15h-13.73a7.26,7.26,0,0,1-7.25-4.81c-1.4-3.33.35-5.66,1.92-8.49,4-7.11,11.75-9.19,17.38-14.06,6.45-5.59,16.84-1.29,18.92,7.2a8.69,8.69,0,0,0,2.73,4.86c2.87,2.57,3.31,6.11,2.08,9.49a8.48,8.48,0,0,1-8.31,5.79C-577.74,546.22-582.32,546.15-586.9,546.15Zm.11-2.92c4.42,0,8.83,0,13.24,0a5.67,5.67,0,0,0,5.95-4.15,5.35,5.35,0,0,0-2.12-6.51,5.43,5.43,0,0,1-2.73-4.65c-.53-5.73-5.88-10.16-11-8-5.81,2.39-10.9,6.55-16.18,10.13-1.51,1-.78,3.73-3.18,4.59a3.91,3.91,0,0,0-2.54,5.15,5.09,5.09,0,0,0,5.33,3.5C-595.62,543.17-591.2,543.23-586.79,543.23Z" transform="translate(614.38 -504.13)" style="fill:#939598"/><path d="M-598.75,506.27c-5.09,6-5.27,7.83-1.09,14,2.11,3.09-.95,2.84-2.14,3.2a9.68,9.68,0,0,1-11.23-4.82,9.78,9.78,0,0,1,1.84-11.7C-607.82,503.45-603.93,503.21-598.75,506.27Zm-4.58.91c-6,.75-8.74,3.69-8.09,7.74.61,3.77,3.45,5.74,7.62,5.14C-606.49,515.94-606.37,511.79-603.33,507.18Z" transform="translate(614.38 -504.13)" style="fill:#0776db"/><path d="M-593.68,557.72c1.73-2.93,1-7.92,6.93-8.75C-589.45,552.41-589.19,556.81-593.68,557.72Z" transform="translate(614.38 -504.13)" style="fill:#298de8"/><path d="M-581.93,549.41c-1.65,3-1.29,7.48-6.72,9.24C-586.57,554.46-586.4,550.49-581.93,549.41Z" transform="translate(614.38 -504.13)" style="fill:#2d8ee9"/><path d="M-586.79,543.23c-4.41,0-8.83-.06-13.24,0a5.09,5.09,0,0,1-5.33-3.5,3.91,3.91,0,0,1,2.54-5.15c2.4-.86,1.67-3.57,3.18-4.59,5.28-3.58,10.37-7.74,16.18-10.13,5.13-2.12,10.48,2.31,11,8a5.43,5.43,0,0,0,2.73,4.65,5.35,5.35,0,0,1,2.12,6.51,5.67,5.67,0,0,1-5.95,4.15C-578,543.2-582.37,543.23-586.79,543.23Z" transform="translate(614.38 -504.13)" style="fill:#e5e6e7"/><path d="M-603.33,507.18c-3,4.61-3.16,8.76-.47,12.88-4.17.6-7-1.37-7.62-5.14C-612.07,510.87-609.3,507.93-603.33,507.18Z" transform="translate(614.38 -504.13)" style="fill:#f6fafd"/></svg>