<svg id="_296" data-name="296" xmlns="http://www.w3.org/2000/svg" viewBox="0 0 43.94 41.86"><title>296</title><path d="M-492.89,579.62c-4.27,0-8.53,0-12.79,0-3.65,0-6.57-1.45-7.75-4.9-1.12-3.29.64-5.86,2.34-8.91,3.8-6.76,11.23-8.35,16.31-13.2,6.37-6.08,17.28-2.06,19.41,6.67a8.72,8.72,0,0,0,2.69,4.92c3,2.7,3.47,6.28,2.11,9.93s-4.35,5.3-8.06,5.43C-483.37,579.74-488.14,579.61-492.89,579.62Zm.49-2.94c4.57,0,9.14.06,13.72,0,3,0,4.86-1.9,5.66-4.59s0-5-2.48-6.23c-2.1-1.05-2.48-2.5-2.66-4.63-.46-5.61-5.84-10-11-7.85-5.81,2.41-10.92,6.58-16.17,10.23-1.47,1-1,3.73-3.19,4.63-2.44,1-2.64,3.21-2,5.39.68,2.4,2.6,3.12,4.95,3.1C-501.23,576.66-496.82,576.69-492.4,576.68Z" transform="translate(513.78 -549.71)" style="fill:#939598"/><path d="M-492.54,582.56l-4,7.94a1.79,1.79,0,0,1-2.47.87c-1.4-.68-.29-1.75.14-2.34C-497.3,586.81-497.65,582.84-492.54,582.56Z" transform="translate(513.78 -549.71)" style="fill:#3392e9"/><path d="M-487.18,584c-1.34,2.3-2.68,4.85-4.3,7.22-.35.52-2.45.54-2.11-.52.9-2.86,2-5.82,4.29-7.91C-488.8,582.34-487.43,582.23-487.18,584Z" transform="translate(513.78 -549.71)" style="fill:#3392e9"/><path d="M-492.4,576.68c-4.42,0-8.83,0-13.24,0-2.35,0-4.27-.7-4.95-3.1-.62-2.18-.42-4.4,2-5.39,2.23-.9,1.72-3.61,3.19-4.63,5.25-3.65,10.36-7.82,16.17-10.23,5.21-2.16,10.59,2.24,11,7.85.18,2.13.56,3.58,2.66,4.63,2.47,1.23,3.25,3.65,2.48,6.23s-2.66,4.54-5.66,4.59C-483.26,576.74-487.83,576.68-492.4,576.68Z" transform="translate(513.78 -549.71)" style="fill:#e5e6e7"/></svg>