<svg id="_299" data-name="299" xmlns="http://www.w3.org/2000/svg" viewBox="0 0 50.18 54.52"><title>299</title><path d="M-585.2,559.14h-13.74a7.28,7.28,0,0,1-7.25-4.81c-1.4-3.33.35-5.66,1.93-8.49,4-7.11,11.74-9.19,17.37-14.07,6.46-5.58,16.84-1.28,18.92,7.21a8.71,8.71,0,0,0,2.74,4.86c2.86,2.57,3.3,6.11,2.07,9.49a8.47,8.47,0,0,1-8.31,5.79C-576,559.2-580.62,559.14-585.2,559.14Zm.11-2.93c4.41,0,8.82,0,13.24,0a5.68,5.68,0,0,0,6-4.16,5.35,5.35,0,0,0-2.12-6.5,5.42,5.42,0,0,1-2.74-4.65c-.53-5.74-5.88-10.16-11-8-5.8,2.39-10.9,6.55-16.18,10.13-1.51,1-.77,3.73-3.17,4.59a3.91,3.91,0,0,0-2.55,5.15,5.1,5.1,0,0,0,5.34,3.5C-593.92,556.16-589.51,556.22-585.09,556.21Z" transform="translate(612.69 -517.12)" style="fill:#939598"/><path d="M-597.06,519.25c-5.09,6-5.26,7.84-1.08,14,2.11,3.09-1,2.84-2.14,3.2a9.7,9.7,0,0,1-11.24-4.82,9.78,9.78,0,0,1,1.84-11.7C-606.13,516.44-602.24,516.2-597.06,519.25Zm-4.57.92c-6,.74-8.74,3.69-8.09,7.74.6,3.77,3.44,5.73,7.61,5.14C-604.8,528.93-604.68,524.78-601.63,520.17Z" transform="translate(612.69 -517.12)" style="fill:#0776db"/><path d="M-592,570.71c1.74-2.93,1-7.92,6.93-8.75C-587.75,565.4-587.49,569.8-592,570.71Z" transform="translate(612.69 -517.12)" style="fill:#298de8"/><path d="M-580.24,562.4c-1.64,3-1.28,7.47-6.72,9.24C-584.88,567.45-584.7,563.48-580.24,562.4Z" transform="translate(612.69 -517.12)" style="fill:#2d8ee9"/><path d="M-585.09,556.21c-4.42,0-8.83-.05-13.24,0a5.1,5.1,0,0,1-5.34-3.5,3.91,3.91,0,0,1,2.55-5.15c2.4-.86,1.66-3.57,3.17-4.59,5.28-3.58,10.38-7.74,16.18-10.13,5.13-2.12,10.48,2.3,11,8a5.42,5.42,0,0,0,2.74,4.65,5.35,5.35,0,0,1,2.12,6.5,5.68,5.68,0,0,1-6,4.16C-576.27,556.19-580.68,556.21-585.09,556.21Z" transform="translate(612.69 -517.12)" style="fill:#e5e6e7"/><path d="M-601.63,520.17c-3,4.61-3.17,8.76-.48,12.88-4.17.59-7-1.37-7.61-5.14C-610.37,523.86-607.61,520.91-601.63,520.17Z" transform="translate(612.69 -517.12)" style="fill:#f6fafd"/></svg>