<svg id="_302" data-name="302" xmlns="http://www.w3.org/2000/svg" viewBox="0 0 43.95 41.83"><title>302</title><path d="M-507.51,571c-4.43,0-8.86,0-13.28,0-3.45,0-6.19-1.58-7.3-4.81s.55-5.88,2.28-8.93c3.81-6.73,11.21-8.37,16.29-13.22,6.21-5.92,17-2.26,19.33,6.11a11,11,0,0,0,3.12,5.77c2.8,2.57,3.12,6.1,1.85,9.56-1.33,3.62-4.32,5.34-8,5.48C-498,571.13-502.75,571-507.51,571Zm.44-2.94c4.57,0,9.15.06,13.72,0,3-.06,4.86-1.92,5.66-4.61a5,5,0,0,0-2.5-6.24,4.48,4.48,0,0,1-2.64-4.13c-.47-6.08-5.66-10.53-11.08-8.32-5.81,2.38-10.92,6.58-16.16,10.23-1.46,1-.95,3.73-3.19,4.63-2.44,1-2.63,3.22-2,5.4.68,2.39,2.62,3.11,5,3.09C-515.9,568.05-511.48,568.08-507.07,568.06Z" transform="translate(528.46 -541.12)" style="fill:#939598"/><path d="M-512.91,582.88c-.57-.11-1.65,0-1.35-.81,1.14-2.8,2-5.78,4.35-7.91a1.43,1.43,0,0,1,2.09.46C-507.3,575.58-511.82,582.79-512.91,582.88Z" transform="translate(528.46 -541.12)" style="fill:#3392e9"/><path d="M-501.32,574l-4,7.93a1.78,1.78,0,0,1-2.46.87c-1.4-.68-.3-1.75.13-2.34C-506.07,578.19-506.42,574.22-501.32,574Z" transform="translate(528.46 -541.12)" style="fill:#3392e9"/><path d="M-507.07,568.07c-4.41,0-8.83,0-13.24,0-2.34,0-4.28-.7-5-3.09-.62-2.18-.43-4.41,2-5.4,2.24-.9,1.73-3.61,3.19-4.63,5.24-3.65,10.35-7.85,16.16-10.23,5.42-2.21,10.61,2.24,11.08,8.32a4.48,4.48,0,0,0,2.64,4.13,5,5,0,0,1,2.5,6.24c-.8,2.69-2.66,4.55-5.66,4.61C-497.92,568.12-502.5,568.06-507.07,568.07Z" transform="translate(528.46 -541.12)" style="fill:#e5e6e7"/></svg>