<svg id="_305" data-name="305" xmlns="http://www.w3.org/2000/svg" viewBox="0 0 50.29 54.01"><title>305</title><path d="M-485.79,563.24c-4.42,0-8.83,0-13.25,0a7.45,7.45,0,0,1-7.48-5.22c-1.21-3.18.56-5.38,2-8,3.94-7.07,11.69-9.23,17.34-14.08,6.57-5.63,16.6-1.5,18.93,7.13.53,1.93,1,3.52,2.69,4.9,3,2.44,3.38,6,2.21,9.42a8.43,8.43,0,0,1-8.25,5.86C-476.31,563.32-481,563.24-485.79,563.24Zm.58-2.93c4.42,0,8.83,0,13.25,0a5.65,5.65,0,0,0,5.74-3.77c1-2.66.5-5.33-2.07-6.93-1.87-1.17-2.43-2.53-2.65-4.69-.58-5.69-6-10.1-11.09-8-5.8,2.43-10.89,6.59-16.15,10.2-1.49,1-.8,3.69-3.2,4.56a3.87,3.87,0,0,0-2.45,5.18,4.88,4.88,0,0,0,4.89,3.4C-494.36,560.29-489.78,560.31-485.21,560.31Z" transform="translate(512.99 -521.15)" style="fill:#939598"/><path d="M-497.14,523.1c-5.25,6.53-5.32,7.22-1,14.4,1.7,2.83-1.12,2.67-2.14,2.93-4.32,1.09-8.15.07-10.78-3.75s-2.61-7.76.12-11.4,6.33-5,10.79-3.57A28.87,28.87,0,0,1-497.14,523.1Zm-5.13,1.37c-5.12.32-7.92,2.93-7.73,6.88s3.19,6.25,8,5.93C-505.46,533.06-504.42,528.78-502.27,524.47Z" transform="translate(512.99 -521.15)" style="fill:#0776db"/><path d="M-491.57,566.42c-1.31,2.63-2.48,4.9-3.57,7.21-.58,1.23-1.53,1.91-2.69,1.28s-.25-1.78.23-2.4C-495.94,570.38-496.5,566.1-491.57,566.42Z" transform="translate(512.99 -521.15)" style="fill:#298de8"/><path d="M-485.58,566.35c-1.5,3-2.7,5.29-3.84,7.63a1.76,1.76,0,0,1-2.42,1c-1.37-.66-.4-1.73.09-2.38C-490.08,570.43-490.58,566.24-485.58,566.35Z" transform="translate(512.99 -521.15)" style="fill:#2d8ee9"/><path d="M-486.4,574.75c1.81-2.91,1.12-7.82,7.18-8.75C-482.12,569.45-481.65,574.18-486.4,574.75Z" transform="translate(512.99 -521.15)" style="fill:#2d8ee9"/><path d="M-480.48,574.76c1.77-3,1.13-7.79,7.15-8.79C-476.19,569.47-475.76,574.15-480.48,574.76Z" transform="translate(512.99 -521.15)" style="fill:#2d8ee9"/><path d="M-485.21,560.31c-4.57,0-9.15,0-13.73,0a4.88,4.88,0,0,1-4.89-3.4,3.87,3.87,0,0,1,2.45-5.18c2.4-.87,1.71-3.55,3.2-4.56,5.26-3.61,10.35-7.77,16.15-10.2,5.1-2.14,10.51,2.27,11.09,8,.22,2.16.78,3.52,2.65,4.69,2.57,1.6,3.07,4.27,2.07,6.93a5.65,5.65,0,0,1-5.74,3.77C-476.38,560.28-480.79,560.31-485.21,560.31Z" transform="translate(512.99 -521.15)" style="fill:#e5e6e7"/><path d="M-502.27,524.47c-2.15,4.31-3.19,8.59.26,12.81-4.8.32-7.8-2.07-8-5.93S-507.39,524.79-502.27,524.47Z" transform="translate(512.99 -521.15)" style="fill:#f5f9fd"/></svg>