<svg id="_308" data-name="308" xmlns="http://www.w3.org/2000/svg" viewBox="0 0 43.94 41.88"><title>308</title><path d="M-479.9,557.59c-4.27,0-8.53,0-12.79,0-3.65,0-6.57-1.44-7.75-4.89-1.12-3.29.63-5.86,2.34-8.91,3.79-6.76,11.22-8.36,16.31-13.21,6.37-6.07,17.28-2.05,19.41,6.68a8.72,8.72,0,0,0,2.69,4.92c3,2.7,3.47,6.28,2.11,9.93s-4.35,5.29-8.06,5.43C-470.39,557.72-475.15,557.59-479.9,557.59Zm.46-2.94c4.58,0,9.15.06,13.73,0,3,0,4.86-1.89,5.68-4.58a4.93,4.93,0,0,0-2.47-6.23c-2.08-1.05-2.49-2.48-2.67-4.63-.46-5.62-5.74-9.9-11.05-7.89-5.92,2.24-10.47,7.25-16.15,10.27-1.52.8-1,3.7-3.19,4.61-2.44,1-2.66,3.19-2.05,5.38.67,2.4,2.59,3.14,4.94,3.12C-488.26,554.64-483.85,554.67-479.44,554.65Z" transform="translate(500.8 -527.68)" style="fill:#939598"/><path d="M-485.46,560.54l-4,7.93a1.8,1.8,0,0,1-2.47.88c-1.4-.69-.29-1.76.14-2.35C-490.22,564.78-490.57,560.81-485.46,560.54Z" transform="translate(500.8 -527.68)" style="fill:#3392e9"/><path d="M-479.59,560.46c-1.41,2.91-2.47,5.07-3.51,7.24-.62,1.28-1.61,2.37-3,1.61-1.56-.87,0-2.11.42-2.78C-484.23,564.41-484.39,560.71-479.59,560.46Z" transform="translate(500.8 -527.68)" style="fill:#3392e9"/><path d="M-473.56,560.32c-1.6,3.21-2.76,5.5-3.89,7.81-.59,1.2-1.64,1.76-2.75,1.18-1.33-.69-.19-1.75.22-2.37C-478.47,564.66-478.53,560.93-473.56,560.32Z" transform="translate(500.8 -527.68)" style="fill:#3392e9"/><path d="M-473.39,569.46c-.58-.07-1.28.09-1.45-.79s3.9-7.94,4.81-8a2.16,2.16,0,0,1,1.67.52C-467.78,562-472.33,569.36-473.39,569.46Z" transform="translate(500.8 -527.68)" style="fill:#3392e9"/><path d="M-479.44,554.66c-4.41,0-8.82,0-13.23,0-2.35,0-4.27-.72-4.94-3.12-.61-2.19-.39-4.4,2.05-5.38,2.23-.91,1.67-3.81,3.19-4.61,5.68-3,10.23-8,16.15-10.27,5.31-2,10.59,2.27,11.05,7.89.18,2.15.59,3.58,2.67,4.63a4.93,4.93,0,0,1,2.47,6.23c-.82,2.69-2.68,4.53-5.68,4.58C-470.29,554.71-474.86,554.65-479.44,554.66Z" transform="translate(500.8 -527.68)" style="fill:#e5e6e7"/></svg>