<svg id="_311" data-name="311" xmlns="http://www.w3.org/2000/svg" viewBox="0 0 43.94 41.77"><title>311</title><path d="M-502.35,588.65c-4.26,0-8.52,0-12.79,0-3.64,0-6.57-1.44-7.75-4.89-1.12-3.29.64-5.86,2.35-8.91,3.79-6.76,11.22-8.36,16.31-13.21,6.37-6.07,17.28-2,19.4,6.67a8.79,8.79,0,0,0,2.7,4.93c3,2.7,3.46,6.28,2.11,9.93s-4.36,5.29-8.06,5.43C-492.83,588.78-497.59,588.65-502.35,588.65Zm.47-2.94c4.57,0,9.15.06,13.72,0,3-.05,4.87-1.89,5.68-4.58a4.94,4.94,0,0,0-2.46-6.24c-2.08-1-2.5-2.47-2.67-4.62-.46-5.62-5.75-9.91-11.06-7.89-5.91,2.23-10.46,7.24-16.15,10.26-1.51.81-.95,3.71-3.18,4.61-2.44,1-2.66,3.2-2,5.39.67,2.4,2.59,3.14,4.94,3.12C-510.7,585.7-506.29,585.73-501.88,585.71Z" transform="translate(523.24 -558.74)" style="fill:#939598"/><path d="M-508.91,592c-.65,3-2.29,5.38-3.83,8.33-1.51-2.95-3.15-5.33-3.8-8.33A21.5,21.5,0,0,1-508.91,592Z" transform="translate(523.24 -558.74)" style="fill:#ddd"/><path d="M-502.63,592.92c-1.35,2.47-1.95,5.26-4.07,7.12-.7.62-2.39.62-2.12-.57.63-2.77,1.7-5.55,4-7.44C-504,591.35-503,591.79-502.63,592.92Z" transform="translate(523.24 -558.74)" style="fill:#dfdfdf"/><path d="M-501.36,600.51c-1.5-.27-2.06-.88-1.52-1.75,1.47-2.37,1.53-5.74,4.65-6.92a1,1,0,0,1,1.29,1.36C-498.22,595.83-498.92,598.92-501.36,600.51Z" transform="translate(523.24 -558.74)" style="fill:#dfdfdf"/><path d="M-495.45,600.51c-1.5-.27-2.07-.88-1.53-1.75,1.47-2.37,1.54-5.74,4.66-6.91A1,1,0,0,1-491,593.2C-492.32,595.83-493,598.92-495.45,600.51Z" transform="translate(523.24 -558.74)" style="fill:#dfdfdf"/><path d="M-501.88,585.72c-4.41,0-8.82,0-13.23,0-2.35,0-4.27-.72-4.94-3.12-.61-2.19-.39-4.4,2-5.39,2.23-.9,1.67-3.8,3.18-4.61,5.69-3,10.24-8,16.15-10.26,5.31-2,10.6,2.27,11.06,7.89.17,2.15.59,3.57,2.67,4.62a4.94,4.94,0,0,1,2.46,6.24c-.81,2.69-2.67,4.53-5.68,4.58C-492.73,585.77-497.31,585.71-501.88,585.72Z" transform="translate(523.24 -558.74)" style="fill:#e5e6e7"/></svg>