<svg id="_314" data-name="314" xmlns="http://www.w3.org/2000/svg" viewBox="0 0 43.94 41.77"><title>314</title><path d="M-508,573.41c-4.27,0-8.53,0-12.8,0-3.64,0-6.57-1.45-7.74-4.9-1.13-3.29.63-5.86,2.34-8.91,3.79-6.76,11.22-8.35,16.31-13.21,6.37-6.07,17.28-2,19.41,6.68a8.72,8.72,0,0,0,2.69,4.92c3,2.7,3.47,6.28,2.11,9.93s-4.35,5.3-8.06,5.43C-498.48,573.53-503.24,573.4-508,573.41Zm.46-2.94c4.58,0,9.15,0,13.72,0,3-.06,4.87-1.89,5.69-4.58s0-5-2.47-6.24c-2.08-1-2.49-2.48-2.67-4.63-.46-5.62-5.74-9.9-11.05-7.89-5.92,2.24-10.47,7.25-16.15,10.27-1.52.8-1,3.7-3.19,4.61-2.44,1-2.66,3.19-2.05,5.38.67,2.4,2.59,3.14,4.94,3.12C-516.35,570.45-511.94,570.48-507.53,570.47Z" transform="translate(528.89 -543.49)" style="fill:#939598"/><path d="M-514.55,576.72c-.66,3-2.3,5.38-3.83,8.32-1.52-2.95-3.16-5.32-3.81-8.32A21.32,21.32,0,0,1-514.55,576.72Z" transform="translate(528.89 -543.49)" style="fill:#ddd"/><path d="M-508.28,577.67c-1.35,2.48-2,5.27-4.06,7.13-.71.62-2.4.61-2.13-.58.63-2.77,1.7-5.54,4-7.44C-509.62,576.1-508.69,576.55-508.28,577.67Z" transform="translate(528.89 -543.49)" style="fill:#dfdfdf"/><path d="M-507,585.26c-1.51-.27-2.07-.87-1.53-1.75,1.47-2.37,1.54-5.74,4.66-6.91a1,1,0,0,1,1.28,1.35C-503.87,580.58-504.57,583.67-507,585.26Z" transform="translate(528.89 -543.49)" style="fill:#dfdfdf"/><path d="M-501.1,585.26c-1.5-.27-2.06-.87-1.52-1.75,1.47-2.37,1.53-5.74,4.66-6.91a1,1,0,0,1,1.28,1.35C-498,580.58-498.66,583.67-501.1,585.26Z" transform="translate(528.89 -543.49)" style="fill:#dfdfdf"/><path d="M-507.53,570.47c-4.41,0-8.82,0-13.23,0-2.35,0-4.27-.72-4.94-3.12-.61-2.19-.39-4.4,2.05-5.38,2.23-.91,1.67-3.81,3.19-4.61,5.68-3,10.23-8,16.15-10.27,5.31-2,10.59,2.27,11.05,7.89.18,2.15.59,3.58,2.67,4.63,2.47,1.24,3.24,3.66,2.47,6.24s-2.68,4.52-5.69,4.58C-498.38,570.52-502.95,570.47-507.53,570.47Z" transform="translate(528.89 -543.49)" style="fill:#e5e6e7"/></svg>