<svg id="_317" data-name="317" xmlns="http://www.w3.org/2000/svg" viewBox="0 0 43.94 41.86"><title>317</title><path d="M-535.1,538.39c-4.26,0-8.53,0-12.79,0-3.65,0-6.57-1.44-7.75-4.89-1.12-3.29.64-5.86,2.35-8.91,3.79-6.76,11.22-8.36,16.31-13.21,6.36-6.07,17.28-2.05,19.4,6.68a8.67,8.67,0,0,0,2.7,4.92c3,2.7,3.46,6.28,2.11,9.93s-4.36,5.29-8.06,5.43C-525.58,538.52-530.34,538.39-535.1,538.39Zm.47-2.94c4.57,0,9.15.06,13.72,0,3,0,4.87-1.89,5.68-4.58a4.93,4.93,0,0,0-2.46-6.23c-2.08-1-2.5-2.48-2.67-4.63-.46-5.62-5.75-9.9-11.06-7.89-5.91,2.24-10.46,7.25-16.15,10.27-1.52.8-.95,3.7-3.19,4.61-2.44,1-2.66,3.19-2,5.38.67,2.4,2.59,3.14,4.94,3.12C-543.46,535.44-539,535.47-534.63,535.45Z" transform="translate(555.99 -508.48)" style="fill:#939598"/><path d="M-529.45,549.64c-2.9,1-2.88-2.27-4.21-3.78,1.47-1.12.95-3.63,4.12-3.92,3.53-.32,2.78,2.93,4.62,3.64C-526.25,546.91-526.15,549.71-529.45,549.64Z" transform="translate(555.99 -508.48)" style="fill:#d6d7d8"/><path d="M-540.71,541.39c-1.46,2.94-2.62,5.23-3.75,7.54-.59,1.2-1.64,1.76-2.75,1.18-1.34-.69-.21-1.77.22-2.37C-545.41,545.52-545.71,541.58-540.71,541.39Z" transform="translate(555.99 -508.48)" style="fill:#3392e9"/><path d="M-542.31,550.08c1.42-2.8,2.64-5.2,3.85-7.61a1.82,1.82,0,0,1,2.43-1c1.53.62.42,1.73,0,2.28C-537.76,546-537.19,550.41-542.31,550.08Z" transform="translate(555.99 -508.48)" style="fill:#3392e9"/><path d="M-534.63,535.46c-4.41,0-8.83,0-13.24,0-2.35,0-4.27-.72-4.94-3.12-.61-2.19-.39-4.4,2-5.38,2.24-.91,1.67-3.81,3.19-4.61,5.69-3,10.24-8,16.15-10.27,5.31-2,10.6,2.27,11.06,7.89.17,2.15.59,3.58,2.67,4.63a4.93,4.93,0,0,1,2.46,6.23c-.81,2.69-2.67,4.53-5.68,4.58C-525.48,535.51-530.06,535.45-534.63,535.46Z" transform="translate(555.99 -508.48)" style="fill:#e5e6e7"/></svg>