<svg id="_320" data-name="320" xmlns="http://www.w3.org/2000/svg" viewBox="0 0 43.95 42.02"><title>320</title><path d="M-581.91,559.14c-4.42,0-8.85,0-13.28,0-3.45,0-6.19-1.58-7.3-4.81s.55-5.88,2.28-8.93c3.81-6.73,11.21-8.37,16.3-13.22,6.2-5.92,17-2.26,19.33,6.11a10.84,10.84,0,0,0,3.12,5.77c2.79,2.57,3.11,6.1,1.84,9.56-1.33,3.62-4.32,5.34-8,5.48C-572.39,559.28-577.15,559.14-581.91,559.14Zm.22-2.93c4.57,0,9.15,0,13.72,0,3.25,0,5.21-2,6-4.88a5,5,0,0,0-2.81-6.12c-2-.93-2.22-2.33-2.39-4.27-.51-5.86-6-10.26-11.37-8-5.69,2.36-10.17,7.15-15.75,10.08-1.64.86-1.12,4-3.55,4.92-2.22.87-2.32,3-1.85,5a4.08,4.08,0,0,0,4.32,3.26C-590.84,556.23-586.27,556.2-581.69,556.21Z" transform="translate(602.86 -529.26)" style="fill:#939598"/><path d="M-576.43,562.86c3.5-.29,3.23,2.73,4.65,4-1.94.58-1,4-4.59,3.66-3.13-.3-2.73-2.72-4.17-3.88C-579,565.39-579.58,561.42-576.43,562.86Z" transform="translate(602.86 -529.26)" style="fill:#d6d7d8"/><path d="M-595.09,570.83c1.42-2.8,2.64-5.2,3.85-7.61a1.82,1.82,0,0,1,2.43-1c1.53.62.42,1.73,0,2.28C-590.54,566.73-590,571.15-595.09,570.83Z" transform="translate(602.86 -529.26)" style="fill:#3392e9"/><path d="M-589.39,571.28c1.6-3.2,2.76-5.49,3.88-7.8.6-1.21,1.65-1.76,2.76-1.17,1.31.7.18,1.75-.24,2.38C-584.49,567-584.43,570.71-589.39,571.28Z" transform="translate(602.86 -529.26)" style="fill:#3392e9"/><path d="M-581.69,556.2c-4.58,0-9.15,0-13.72,0a4.08,4.08,0,0,1-4.32-3.26c-.47-2-.37-4.17,1.85-5,2.43-1,1.91-4.06,3.55-4.92,5.58-2.93,10.06-7.72,15.75-10.08,5.36-2.22,10.86,2.18,11.37,8,.17,1.94.42,3.34,2.39,4.27a5,5,0,0,1,2.81,6.12c-.75,2.9-2.71,4.84-6,4.88C-572.54,556.24-577.12,556.21-581.69,556.2Z" transform="translate(602.86 -529.26)" style="fill:#e5e6e7"/></svg>