<svg id="_323" data-name="323" xmlns="http://www.w3.org/2000/svg" viewBox="0 0 50.27 53.49"><title>323</title><path d="M-509,560.42h-13.25a7.33,7.33,0,0,1-7.46-5.22c-1.18-3.19.57-5.39,2-8,3.94-7.08,11.7-9.23,17.35-14.09,6.48-5.57,16.85-1.34,19,7.12a8.76,8.76,0,0,0,2.69,4.88c3,2.71,3.43,6.39,2,9.93a8.45,8.45,0,0,1-8.09,5.4C-499.49,560.47-504.23,560.41-509,560.42Zm.48-2.93c4.41,0,8.83.1,13.24,0s8-3.91,5.93-6.79c-3.31-4.68-4.14-10.56-8.07-14.72-1.78-1.89-4.55-3-6.73-2-6.6,3-12.87,6.77-18,12-.81.83-.77,2.27-2.28,2.86A4,4,0,0,0-527,554a5.05,5.05,0,0,0,5.3,3.55C-517.32,557.44-512.91,557.49-508.49,557.49Z" transform="translate(536.12 -518.32)" style="fill:#939598"/><path d="M-525.43,538c-5.17-.09-8.11-2.2-9.77-5.92a9.07,9.07,0,0,1,1.77-10.45,9.16,9.16,0,0,1,10.21-2.78c2.25.74,3.56,1.35,1.15,3.77-2.83,2.83-3,6.27-1.15,9.9.71,1.37,3.36,2.09,2.25,3.81S-524.37,538.07-525.43,538Zm.34-16.65c-6,.91-8.66,3.84-7.95,7.9.66,3.8,3.51,5.72,7.59,5C-528.27,530.12-527.83,526-525.09,521.37Z" transform="translate(536.12 -518.32)" style="fill:#0776db"/><path d="M-509,571.14c-3.68,1.52-3-2.46-4.57-3.18,1.25-1.2.94-3.84,3.34-3.93,2.63-.11,4.94,1.05,5,3.76C-505.15,568.54-505.16,573.61-509,571.14Z" transform="translate(536.12 -518.32)" style="fill:#d4d5d6"/><path d="M-508.49,557.49c-4.42,0-8.83,0-13.24,0A5.05,5.05,0,0,1-527,554a4,4,0,0,1,2.61-5.13c1.51-.59,1.47-2,2.28-2.86,5.15-5.26,11.42-9,18-12,2.18-1,4.95.12,6.73,2,3.93,4.16,4.76,10,8.07,14.72,2.05,2.88-1.62,6.65-5.93,6.79S-504.08,557.49-508.49,557.49Z" transform="translate(536.12 -518.32)" style="fill:#e5e6e7"/><path d="M-525.09,521.37c-2.74,4.6-3.18,8.75-.36,12.86-4.08.76-6.93-1.16-7.59-5C-533.75,525.21-531.09,522.28-525.09,521.37Z" transform="translate(536.12 -518.32)" style="fill:#f5f9fd"/></svg>