<svg id="_326" data-name="326" xmlns="http://www.w3.org/2000/svg" viewBox="0 0 43.94 41.21"><title>326</title><path d="M-330.82,398.35c-4.26,0-8.53,0-12.79,0-3.65,0-6.57-1.45-7.75-4.9-1.12-3.29.64-5.86,2.34-8.91,3.8-6.76,11.23-8.35,16.31-13.2,6.37-6.08,17.28-2.06,19.41,6.67a8.72,8.72,0,0,0,2.69,4.92c3,2.7,3.47,6.28,2.11,9.93s-4.35,5.3-8.06,5.43C-321.3,398.47-326.07,398.34-330.82,398.35Zm.19-2.94c4.57,0,9.15,0,13.72,0,3.25,0,5.22-1.91,6-4.8a5,5,0,0,0-2.71-6.16c-1.91-.94-2.3-2.24-2.48-4.23-.54-6.29-6.68-10.62-12.23-8-5,2.42-8.62,7.32-14.26,9-.69.21-1.14,1.53-1.51,2.43-.56,1.36-1.05,2.59-2.6,3.3-2.41,1.1-2.46,3.35-1.8,5.47s2.42,2.93,4.61,2.91C-339.45,395.4-335,395.42-330.63,395.41Z" transform="translate(351.71 -368.44)" style="fill:#939598"/><path d="M-330.93,409.43c-3.21,1.07-4.14-2.36-4-3.43.16-1.68.73-4.08,4.16-4.06s2.47,3.16,4.31,3.92C-328.49,406.39-327.5,410.65-330.93,409.43Z" transform="translate(351.71 -368.44)" style="fill:#d6d7d7"/><path d="M-330.63,395.41c-4.41,0-8.82,0-13.23,0-2.19,0-3.95-.8-4.61-2.91s-.61-4.37,1.8-5.47c1.55-.71,2-1.94,2.6-3.3.37-.9.82-2.22,1.51-2.43,5.64-1.72,9.25-6.62,14.26-9,5.55-2.67,11.69,1.66,12.23,8,.18,2,.57,3.29,2.48,4.23a5,5,0,0,1,2.71,6.16c-.81,2.89-2.78,4.78-6,4.8C-321.48,395.43-326.06,395.41-330.63,395.41Z" transform="translate(351.71 -368.44)" style="fill:#e5e6e7"/></svg>