<svg id="_329" data-name="329" xmlns="http://www.w3.org/2000/svg" viewBox="0 0 50.27 53.49"><title>329</title><path d="M-577.87,487.57h-13.24a7.31,7.31,0,0,1-7.46-5.21c-1.18-3.2.56-5.39,2-8.05,3.94-7.08,11.7-9.23,17.34-14.08,6.48-5.57,16.86-1.35,19,7.12a8.73,8.73,0,0,0,2.69,4.88c3,2.71,3.43,6.39,2,9.92a8.46,8.46,0,0,1-8.09,5.4C-568.38,487.62-573.13,487.57-577.87,487.57Zm.48-2.93c4.42,0,8.83.11,13.24,0s8-3.9,5.94-6.79c-3.32-4.67-4.14-10.56-8.07-14.71-1.79-1.89-4.55-3-6.74-2-6.6,3-12.87,6.77-18,12-.81.82-.78,2.26-2.28,2.86a4,4,0,0,0-2.61,5.12,5,5,0,0,0,5.29,3.55C-586.22,484.59-581.8,484.64-577.39,484.64Z" transform="translate(605.02 -445.48)" style="fill:#939598"/><path d="M-594.32,465.17c-5.17-.08-8.11-2.2-9.78-5.92a9.09,9.09,0,0,1,1.77-10.45A9.16,9.16,0,0,1-592.11,446c2.25.74,3.56,1.35,1.15,3.76-2.83,2.84-3.06,6.27-1.15,9.91.71,1.36,3.36,2.09,2.24,3.8S-593.27,465.22-594.32,465.17Zm.33-16.65c-6,.92-8.65,3.84-8,7.9.66,3.8,3.52,5.73,7.59,5C-597.16,457.27-596.73,453.12-594,448.52Z" transform="translate(605.02 -445.48)" style="fill:#0776db"/><path d="M-577.85,498.29c-3.69,1.52-3-2.46-4.58-3.17,1.26-1.21.94-3.84,3.34-3.94,2.64-.1,4.94,1.05,5,3.76C-574,495.69-574,500.76-577.85,498.29Z" transform="translate(605.02 -445.48)" style="fill:#d4d5d6"/><path d="M-577.39,484.64c-4.41,0-8.83-.05-13.24,0a5,5,0,0,1-5.29-3.55,4,4,0,0,1,2.61-5.12c1.5-.6,1.47-2,2.28-2.86,5.14-5.26,11.41-9,18-12,2.19-1,4.95.12,6.74,2,3.93,4.15,4.75,10,8.07,14.71,2,2.89-1.62,6.66-5.94,6.79S-573,484.64-577.39,484.64Z" transform="translate(605.02 -445.48)" style="fill:#e5e6e7"/><path d="M-594,448.52c-2.74,4.6-3.17,8.75-.36,12.86-4.07.77-6.93-1.16-7.59-5C-602.64,452.36-600,449.44-594,448.52Z" transform="translate(605.02 -445.48)" style="fill:#f5f9fd"/></svg>