<svg id="_332" data-name="332" xmlns="http://www.w3.org/2000/svg" viewBox="0 0 43.94 41.21"><title>332</title><path d="M-554.3,509.59c-4.26,0-8.53,0-12.79,0-3.65,0-6.57-1.44-7.75-4.89-1.12-3.29.64-5.86,2.35-8.91,3.79-6.76,11.22-8.36,16.31-13.21,6.36-6.07,17.28-2,19.4,6.68a8.67,8.67,0,0,0,2.7,4.92c3,2.7,3.46,6.28,2.11,9.93s-4.36,5.29-8.06,5.43C-544.78,509.72-549.54,509.59-554.3,509.59Zm.19-2.93c4.58,0,9.15,0,13.72,0,3.25,0,5.22-1.9,6-4.8a5,5,0,0,0-2.71-6.16c-1.9-.93-2.3-2.24-2.47-4.22-.55-6.29-6.69-10.63-12.24-8-5,2.41-8.62,7.32-14.26,9-.69.21-1.14,1.54-1.51,2.43-.56,1.37-1,2.6-2.59,3.3-2.42,1.1-2.47,3.36-1.81,5.48s2.43,2.92,4.61,2.91C-562.93,506.65-558.52,506.66-554.11,506.66Z" transform="translate(575.19 -479.68)" style="fill:#939598"/><path d="M-554.4,520.67c-3.22,1.07-4.14-2.35-4-3.43.16-1.68.74-4.07,4.16-4s2.49,3.13,4.32,3.91C-552,517.64-551,521.9-554.4,520.67Z" transform="translate(575.19 -479.68)" style="fill:#d6d7d8"/><path d="M-554.11,506.66c-4.41,0-8.82,0-13.23,0-2.18,0-3.95-.8-4.61-2.91s-.61-4.38,1.81-5.48c1.55-.7,2-1.93,2.59-3.3.37-.89.82-2.22,1.51-2.43,5.64-1.71,9.26-6.62,14.26-9,5.55-2.68,11.69,1.66,12.24,8,.17,2,.57,3.29,2.47,4.22a5,5,0,0,1,2.71,6.16c-.81,2.9-2.78,4.79-6,4.8C-545,506.68-549.53,506.66-554.11,506.66Z" transform="translate(575.19 -479.68)" style="fill:#e5e6e7"/></svg>