<svg id="_335" data-name="335" xmlns="http://www.w3.org/2000/svg" viewBox="0 0 50.27 53.41"><title>335</title><path d="M-483.42,531.62h-13.24a7.31,7.31,0,0,1-7.46-5.22c-1.18-3.19.56-5.39,2-8,3.94-7.08,11.7-9.23,17.34-14.09,6.48-5.57,16.86-1.34,19,7.12a8.7,8.7,0,0,0,2.69,4.88c3,2.71,3.43,6.39,2,9.93a8.46,8.46,0,0,1-8.09,5.4C-473.93,531.67-478.68,531.61-483.42,531.62Zm.48-2.93c4.42,0,8.83.1,13.24,0s8-3.91,5.94-6.79c-3.32-4.68-4.14-10.56-8.07-14.72-1.79-1.89-4.55-3-6.73-2-6.61,3-12.88,6.77-18,12-.81.83-.77,2.27-2.28,2.86a4,4,0,0,0-2.61,5.13,5,5,0,0,0,5.29,3.55C-491.77,528.64-487.35,528.69-482.94,528.69Z" transform="translate(510.57 -489.52)" style="fill:#939598"/><path d="M-499.87,509.22c-5.17-.09-8.11-2.2-9.78-5.92a9.09,9.09,0,0,1,1.77-10.45,9.17,9.17,0,0,1,10.22-2.78c2.25.74,3.56,1.35,1.15,3.77-2.83,2.83-3.06,6.27-1.15,9.9.71,1.37,3.36,2.1,2.24,3.81S-498.8,509.33-499.87,509.22Zm.33-16.65c-6,.92-8.65,3.84-7.95,7.9.67,3.79,3.52,5.72,7.59,5C-502.71,501.32-502.28,497.17-499.54,492.57Z" transform="translate(510.57 -489.52)" style="fill:#0776db"/><path d="M-483.45,542.36c-3.64,1.5-2.91-2.48-4.53-3.2,1.26-1.2.94-3.84,3.34-3.93,2.64-.11,5,1.06,5,3.75C-479.6,539.93-479.82,544.51-483.45,542.36Z" transform="translate(510.57 -489.52)" style="fill:#d4d5d6"/><path d="M-482.94,528.69c-4.41,0-8.83-.05-13.24,0a5,5,0,0,1-5.29-3.55,4,4,0,0,1,2.61-5.13c1.51-.59,1.47-2,2.28-2.86,5.14-5.26,11.41-9,18-12,2.18-1,4.94.12,6.73,2,3.93,4.16,4.75,10,8.07,14.72,2,2.88-1.62,6.65-5.94,6.79S-478.52,528.69-482.94,528.69Z" transform="translate(510.57 -489.52)" style="fill:#e5e6e7"/><path d="M-499.54,492.57c-2.74,4.6-3.17,8.75-.36,12.86-4.07.76-6.92-1.17-7.59-5C-508.19,496.41-505.53,493.49-499.54,492.57Z" transform="translate(510.57 -489.52)" style="fill:#f6fafd"/></svg>