<svg id="_338" data-name="338" xmlns="http://www.w3.org/2000/svg" viewBox="0 0 43.94 41.21"><title>338</title><path d="M-543.71,549.69c-4.27,0-8.53,0-12.8,0-3.64,0-6.57-1.45-7.74-4.9-1.13-3.29.63-5.86,2.34-8.91,3.79-6.76,11.22-8.35,16.31-13.2,6.37-6.08,17.28-2.06,19.41,6.67a8.72,8.72,0,0,0,2.69,4.92c3,2.7,3.46,6.28,2.11,9.93s-4.36,5.3-8.06,5.43C-534.2,549.81-539,549.68-543.71,549.69Zm.59-2.93h13.24a6,6,0,0,0,6.07-4.74,5,5,0,0,0-2.61-6.19c-1.84-.94-2.38-2.15-2.54-4.19-.46-5.83-5.45-10.3-10.7-8.23-6,2.35-11.2,6.66-16.61,10.32-1.37.93-.79,3.51-2.8,4.34-2.64,1.1-3.06,3.32-2.32,5.71.82,2.64,3.07,3,5.53,3C-551.61,546.72-547.36,546.76-543.12,546.76Z" transform="translate(564.61 -519.78)" style="fill:#939598"/><path d="M-549.74,560.77c-3.22,1.07-4.11-2.35-4-3.45.13-1.7.78-4,4.18-4s2.49,3.12,4.3,3.92C-547.29,557.75-546.32,562-549.74,560.77Z" transform="translate(564.61 -519.78)" style="fill:#d6d7d8"/><path d="M-537.91,560.77c-3.22,1.07-4.15-2.36-4-3.43.17-1.67.73-4.07,4.16-4.06s2.44,3.19,4.32,3.92C-535.48,557.73-534.48,562-537.91,560.77Z" transform="translate(564.61 -519.78)" style="fill:#d6d7d8"/><path d="M-543.12,546.76c-4.24,0-8.49,0-12.74,0-2.46,0-4.71-.36-5.53-3-.74-2.39-.32-4.61,2.32-5.71,2-.83,1.43-3.41,2.8-4.34,5.41-3.66,10.64-8,16.61-10.32,5.25-2.07,10.24,2.4,10.7,8.23.16,2,.7,3.25,2.54,4.19a5,5,0,0,1,2.61,6.19,6,6,0,0,1-6.07,4.74Z" transform="translate(564.61 -519.78)" style="fill:#e5e6e7"/></svg>