<svg id="_350" data-name="350" xmlns="http://www.w3.org/2000/svg" viewBox="0 0 43.95 40.67"><title>350</title><path d="M-561.72,572.13c-4.43,0-8.86,0-13.29,0-3.44,0-6.18-1.58-7.29-4.81s.55-5.88,2.28-8.94c3.8-6.72,11.21-8.36,16.29-13.21,6.21-5.92,17-2.26,19.33,6.11a10.91,10.91,0,0,0,3.12,5.77c2.8,2.57,3.12,6.1,1.85,9.56s-4.32,5.34-8,5.48C-552.21,572.26-557,572.13-561.72,572.13Zm.43-2.94c4.58,0,9.15.06,13.73,0,3-.06,4.86-1.92,5.65-4.61a5,5,0,0,0-2.49-6.24,4.46,4.46,0,0,1-2.64-4.13c-.47-6.08-5.66-10.53-11.08-8.32-5.81,2.38-10.92,6.58-16.16,10.23-1.47,1-1,3.73-3.19,4.63-2.44,1-2.63,3.22-2,5.4.68,2.39,2.61,3.11,5,3.09C-570.11,569.18-565.7,569.2-561.29,569.19Z" transform="translate(582.67 -542.25)" style="fill:#939598"/><path d="M-558.88,579.71c0,1.86-.82,3.14-2.81,3.21-2.24.08-3.15-1.26-3.14-3.36,0-1.8.62-3.34,2.69-3.22C-560.22,576.44-558.77,577.43-558.88,579.71Z" transform="translate(582.67 -542.25)" style="fill:#d3d4d5"/><path d="M-561.29,569.2c-4.41,0-8.82,0-13.23,0-2.35,0-4.28-.7-5-3.09-.62-2.18-.43-4.41,2-5.4,2.24-.9,1.72-3.61,3.19-4.63,5.24-3.65,10.35-7.85,16.16-10.23,5.42-2.21,10.61,2.24,11.08,8.32a4.46,4.46,0,0,0,2.64,4.13,5,5,0,0,1,2.49,6.24c-.79,2.69-2.65,4.55-5.65,4.61C-552.14,569.25-556.71,569.19-561.29,569.2Z" transform="translate(582.67 -542.25)" style="fill:#e5e6e7"/></svg>