<svg id="_353" data-name="353" xmlns="http://www.w3.org/2000/svg" viewBox="0 0 50.18 54.52"><title>353</title><path d="M-566.71,590.77h-13.74a7.26,7.26,0,0,1-7.25-4.8c-1.4-3.34.35-5.67,1.93-8.5,3.95-7.11,11.74-9.19,17.37-14.06,6.46-5.59,16.84-1.29,18.92,7.2a8.71,8.71,0,0,0,2.74,4.86c2.86,2.57,3.3,6.11,2.07,9.49a8.49,8.49,0,0,1-8.31,5.8C-557.55,590.83-562.13,590.77-566.71,590.77Zm.11-2.93c4.41,0,8.82,0,13.24,0a5.67,5.67,0,0,0,6-4.15c.79-2.52.24-5-2.12-6.5a5.45,5.45,0,0,1-2.74-4.66c-.53-5.73-5.88-10.15-11-8-5.8,2.39-10.9,6.56-16.18,10.13-1.51,1-.77,3.73-3.17,4.59a3.91,3.91,0,0,0-2.55,5.15,5.1,5.1,0,0,0,5.34,3.5C-575.43,587.78-571,587.84-566.6,587.84Z" transform="translate(594.2 -548.74)" style="fill:#939598"/><path d="M-578.57,550.88c-5.09,6-5.26,7.83-1.08,14,2.11,3.09-1,2.84-2.14,3.2A9.69,9.69,0,0,1-593,563.21a9.77,9.77,0,0,1,1.84-11.69C-587.64,548.06-583.74,547.82-578.57,550.88Zm-4.58.91c-6,.75-8.73,3.69-8.08,7.75.6,3.76,3.44,5.73,7.62,5.13C-586.31,560.55-586.18,556.4-583.15,551.79Z" transform="translate(594.2 -548.74)" style="fill:#0776db"/><path d="M-573.43,602.38c1.67-3,.91-8,6.73-8.78C-569.09,597.15-569.23,601.25-573.43,602.38Z" transform="translate(594.2 -548.74)" style="fill:#298de8"/><path d="M-561.75,594c-1.64,3-1.28,7.48-6.72,9.24C-566.39,599.07-566.21,595.11-561.75,594Z" transform="translate(594.2 -548.74)" style="fill:#2d8ee9"/><path d="M-566.6,587.84c-4.42,0-8.83-.06-13.24,0a5.1,5.1,0,0,1-5.34-3.5,3.91,3.91,0,0,1,2.55-5.15c2.4-.86,1.66-3.56,3.17-4.59,5.28-3.57,10.38-7.74,16.18-10.13,5.13-2.11,10.48,2.31,11,8a5.45,5.45,0,0,0,2.74,4.66c2.36,1.51,2.91,4,2.12,6.5a5.67,5.67,0,0,1-6,4.15C-557.78,587.81-562.19,587.84-566.6,587.84Z" transform="translate(594.2 -548.74)" style="fill:#e5e6e7"/><path d="M-583.15,551.79c-3,4.61-3.16,8.76-.46,12.88-4.18.6-7-1.37-7.62-5.13C-591.88,555.48-589.12,552.54-583.15,551.79Z" transform="translate(594.2 -548.74)" style="fill:#f5f9fd"/></svg>