<svg id="_356" data-name="356" xmlns="http://www.w3.org/2000/svg" viewBox="0 0 50.2 53.92"><title>356</title><path d="M-498.37,539.94c-4.58,0-9.16,0-13.73,0a7.4,7.4,0,0,1-7.43-5.29c-1.18-3.19.65-5.37,2.11-8,3.91-7.13,11.74-9.17,17.36-14.06,6.36-5.52,16.35-1.54,18.72,6.77a11,11,0,0,0,3.22,5.7c2.81,2.55,3,6.21,1.6,9.54a8.5,8.5,0,0,1-8.12,5.35C-489.22,540-493.79,539.94-498.37,539.94Zm.1-2.93c4.41,0,8.82,0,13.24,0a5.68,5.68,0,0,0,5.95-4.16,5.34,5.34,0,0,0-2.13-6.5,5.43,5.43,0,0,1-2.73-4.65c-.53-5.74-5.88-10.16-11-8-5.8,2.39-10.9,6.55-16.18,10.13-1.51,1-.78,3.73-3.17,4.59a3.91,3.91,0,0,0-2.55,5.15,5.09,5.09,0,0,0,5.33,3.5C-507.1,537-502.69,537-498.27,537Z" transform="translate(525.85 -497.93)" style="fill:#939598"/><path d="M-510.37,500c-5,6.5-5.16,7.45-.84,14.06,1.81,2.78-.85,2.65-1.92,3a9.62,9.62,0,0,1-11.37-4.44,9.75,9.75,0,0,1,1.74-12.09C-519.22,497.25-515.11,497.06-510.37,500Zm-4.52.75c-5.16.3-7.65,2.58-8,6.6-.29,3.39,1.62,5.86,4.93,6.93a6.32,6.32,0,0,0,2.3-.17,7.21,7.21,0,0,0-.42-1.69C-518.15,508.61-517.24,504.94-514.89,500.78Z" transform="translate(525.85 -497.93)" style="fill:#0776db"/><path d="M-504.34,542.71c-1.58,3.15-2.81,5.54-4,7.95a1.77,1.77,0,0,1-2.41,1c-1.37-.66-.39-1.72.09-2.38C-509.06,547.12-509.38,543.38-504.34,542.71Z" transform="translate(525.85 -497.93)" style="fill:#298de8"/><path d="M-498.57,543.05c-1.5,3-2.7,5.29-3.84,7.63a1.77,1.77,0,0,1-2.42,1c-1.37-.67-.4-1.74.1-2.39C-503.07,547.13-503.57,542.94-498.57,543.05Z" transform="translate(525.85 -497.93)" style="fill:#2d8ee9"/><path d="M-492.69,543c-1.34,2.72-2.44,4.9-3.49,7.1-.54,1.13-1.3,2.13-2.59,1.6-1.91-.78-.37-2.06.1-2.69C-497.12,546.93-497.59,542.93-492.69,543Z" transform="translate(525.85 -497.93)" style="fill:#2d8ee9"/><path d="M-486.82,543.11c-1.31,2.64-2.48,4.91-3.57,7.22-.57,1.22-1.52,1.91-2.69,1.3s-.29-1.77.2-2.41C-491.22,547.09-491.77,542.82-486.82,543.11Z" transform="translate(525.85 -497.93)" style="fill:#2d8ee9"/><path d="M-498.27,537c-4.42,0-8.83,0-13.25,0a5.09,5.09,0,0,1-5.33-3.5,3.91,3.91,0,0,1,2.55-5.15c2.39-.86,1.66-3.57,3.17-4.59,5.28-3.58,10.38-7.74,16.18-10.13,5.13-2.12,10.48,2.3,11,8a5.43,5.43,0,0,0,2.73,4.65,5.34,5.34,0,0,1,2.13,6.5A5.68,5.68,0,0,1-485,537C-489.45,537-493.86,537-498.27,537Z" transform="translate(525.85 -497.93)" style="fill:#e5e6e7"/><path d="M-514.89,500.78c-2.35,4.16-3.26,7.83-1.18,11.67a7.21,7.21,0,0,1,.42,1.69,6.32,6.32,0,0,1-2.3.17c-3.31-1.07-5.22-3.54-4.93-6.93C-522.54,503.36-520,501.08-514.89,500.78Z" transform="translate(525.85 -497.93)" style="fill:#f5f9fd"/></svg>