<svg id="_359" data-name="359" xmlns="http://www.w3.org/2000/svg" viewBox="0 0 50.28 54.01"><title>359</title><path d="M-572.25,546.71c-4.59,0-9.18,0-13.77,0a7.23,7.23,0,0,1-7.23-4.86c-1.3-3.33.42-5.66,2-8.51,3.92-6.85,11.47-8.91,16.88-13.77,6.6-5.9,17.17-1.74,19.34,7a8.54,8.54,0,0,0,2.7,4.86c2.88,2.53,3.38,6,2.13,9.47a8.41,8.41,0,0,1-8.32,5.77C-563.07,546.77-567.66,546.71-572.25,546.71Zm-.43-2.93c4.6,0,9.19.08,13.78,0,2.83-.07,5.18-1.29,6-4.19.73-2.56.15-5-2.25-6.48-1.94-1.15-2.38-2.61-2.62-4.74-.72-6.27-7.24-10.41-12.65-7.53-4.64,2.48-8.1,7-13.47,8.56-.93.28-1.55,2-2.07,3.2s-.73,2-2,2.51c-2.24.87-3.45,2.8-2.75,5.09a5,5,0,0,0,5.25,3.63C-581.21,543.74-576.94,543.79-572.68,543.78Z" transform="translate(599.79 -504.63)" style="fill:#353535"/><path d="M-589.16,524.29c-4.88.1-8-2-9.73-5.93a9.1,9.1,0,0,1,1.82-10.45,9.23,9.23,0,0,1,10.23-2.73c2.39.79,3.35,1.46,1.08,3.8-3,3-3.07,6.62-.82,10.32.7,1.13,3.09,1.75,1.92,3.39C-585.68,524.13-587.76,524.33-589.16,524.29Zm.39-16.81c-6,1.27-8.68,4-7.94,7.77s2.9,6.34,7.79,5.81C-591.87,516.56-591.55,512.28-588.77,507.48Z" transform="translate(599.79 -504.63)" style="fill:#0776db"/><path d="M-584.23,549.84c-1.51,3-2.7,5.29-3.84,7.63a1.75,1.75,0,0,1-2.42,1c-1.35-.68-.36-1.75.13-2.39C-588.7,553.9-589.21,549.7-584.23,549.84Z" transform="translate(599.79 -504.63)" style="fill:#298de8"/><path d="M-578.34,549.8c-1.34,2.71-2.44,4.89-3.49,7.09-.54,1.14-1.31,2.13-2.6,1.59-1.89-.79-.35-2.06.12-2.7C-582.76,553.7-583.24,549.69-578.34,549.8Z" transform="translate(599.79 -504.63)" style="fill:#2d8ee9"/><path d="M-572.43,549.79c-1.34,2.72-2.44,4.89-3.49,7.1-.54,1.12-1.3,2.13-2.59,1.6-1.91-.79-.37-2.07.1-2.7C-576.85,553.7-577.33,549.7-572.43,549.79Z" transform="translate(599.79 -504.63)" style="fill:#2d8ee9"/><path d="M-566.37,549.59c-1.63,3.21-2.82,5.53-4,7.87a1.75,1.75,0,0,1-2.41,1c-1.37-.66-.39-1.71.09-2.38C-571.07,553.84-571.31,549.89-566.37,549.59Z" transform="translate(599.79 -504.63)" style="fill:#2d8ee9"/><path d="M-567.31,558.23c1.8-2.92,1.12-7.81,7.18-8.76C-563,552.93-562.57,557.65-567.31,558.23Z" transform="translate(599.79 -504.63)" style="fill:#2d8ee9"/><path d="M-561.39,558.24c1.77-3,1.12-7.79,7.15-8.79C-557.1,553-556.67,557.63-561.39,558.24Z" transform="translate(599.79 -504.63)" style="fill:#2d8ee9"/><path d="M-572.68,543.78c-4.26,0-8.53,0-12.79,0a5,5,0,0,1-5.25-3.63c-.7-2.29.51-4.22,2.75-5.09,1.29-.51,1.56-1.45,2-2.51s1.14-2.92,2.07-3.2c5.37-1.61,8.83-6.08,13.47-8.56,5.41-2.88,11.93,1.26,12.65,7.53.24,2.13.68,3.59,2.62,4.74,2.4,1.43,3,3.92,2.25,6.48-.83,2.9-3.18,4.12-6,4.19C-563.49,543.86-568.08,543.78-572.68,543.78Z" transform="translate(599.79 -504.63)" style="fill:#7f8184"/><path d="M-588.77,507.48c-2.78,4.8-3.1,9.08-.15,13.58-4.89.53-7-2-7.79-5.81S-594.77,508.75-588.77,507.48Z" transform="translate(599.79 -504.63)" style="fill:#f6fafd"/></svg>