<svg id="_362" data-name="362" xmlns="http://www.w3.org/2000/svg" viewBox="0 0 50.16 53.97"><title>362</title><path d="M-522.66,539.94H-536.4a7.28,7.28,0,0,1-7.25-4.81c-1.4-3.33.35-5.66,1.92-8.49,4-7.11,11.75-9.19,17.38-14.07,6.46-5.58,16.84-1.28,18.92,7.21a8.65,8.65,0,0,0,2.74,4.86c2.86,2.57,3.3,6.11,2.07,9.49a8.47,8.47,0,0,1-8.31,5.79C-513.51,540-518.09,539.94-522.66,539.94Zm.1-2.93c4.42,0,8.83,0,13.25,0a5.68,5.68,0,0,0,5.95-4.16,5.34,5.34,0,0,0-2.13-6.5,5.43,5.43,0,0,1-2.73-4.65c-.53-5.74-5.88-10.16-11-8-5.8,2.39-10.9,6.55-16.18,10.13-1.51,1-.78,3.73-3.17,4.59a3.9,3.9,0,0,0-2.55,5.15,5.09,5.09,0,0,0,5.33,3.5C-531.38,537-527,537-522.56,537Z" transform="translate(550.13 -497.9)" style="fill:#939598"/><path d="M-534.66,500.06c-5,6.45-5.15,7.33-.82,14.05,1.8,2.79-.89,2.64-1.95,3a9.62,9.62,0,0,1-11.37-4.46A9.77,9.77,0,0,1-547,500.58C-543.43,497.19-539.4,497-534.66,500.06Zm-4.51.72c-5.16.3-7.65,2.58-8,6.6-.29,3.39,1.62,5.86,4.94,6.93a6.27,6.27,0,0,0,2.29-.17,6.74,6.74,0,0,0-.41-1.69C-542.43,508.61-541.52,504.94-539.17,500.78Z" transform="translate(550.13 -497.9)" style="fill:#0776db"/><path d="M-517.17,550.71c-3.66,1.24-3.07-2.45-4.59-3.3,1.44-1,.85-3.75,3.41-3.85,2.82-.12,5,1.22,5,3.83C-513.34,548.64-513.79,552.8-517.17,550.71Z" transform="translate(550.13 -497.9)" style="fill:#d4d5d6"/><path d="M-528.87,543.15c-1.2,2.45-2.26,4.58-3.29,6.73-.6,1.25-1.44,2.55-2.91,1.74s-.09-2.16.41-2.81C-533.1,546.8-533.61,542.67-528.87,543.15Z" transform="translate(550.13 -497.9)" style="fill:#298de8"/><path d="M-528.39,551.81c-.91-.07-1.68-.4-1.26-1.13,1.47-2.62,1.78-6,4.72-7.64.34-.19,1.08.33,1.63.52-1.31,2.62-2.58,5.25-4,7.82C-527.41,551.69-528.11,551.71-528.39,551.81Z" transform="translate(550.13 -497.9)" style="fill:#2d8ee9"/><path d="M-522.56,537c-4.41,0-8.82,0-13.24,0a5.09,5.09,0,0,1-5.33-3.5,3.9,3.9,0,0,1,2.55-5.15c2.39-.86,1.66-3.57,3.17-4.59,5.28-3.58,10.38-7.74,16.18-10.13,5.13-2.12,10.48,2.3,11,8a5.43,5.43,0,0,0,2.73,4.65,5.34,5.34,0,0,1,2.13,6.5,5.68,5.68,0,0,1-5.95,4.16C-513.73,537-518.14,537-522.56,537Z" transform="translate(550.13 -497.9)" style="fill:#e5e6e7"/><path d="M-539.17,500.78c-2.35,4.16-3.26,7.83-1.18,11.67a6.74,6.74,0,0,1,.41,1.69,6.27,6.27,0,0,1-2.29.17c-3.32-1.07-5.23-3.54-4.94-6.93C-546.82,503.36-544.33,501.08-539.17,500.78Z" transform="translate(550.13 -497.9)" style="fill:#f5f9fd"/></svg>