<svg id="_365" data-name="365" xmlns="http://www.w3.org/2000/svg" viewBox="0 0 50.29 54.01"><title>365</title><path d="M-543.85,552.51h-13.24a7.46,7.46,0,0,1-7.55-5.11c-1.32-3.38.69-5.62,2.24-8.41,3.87-7,11.54-8.92,17-13.75,6.49-5.72,16.59-1.64,19,7,.53,1.89.88,3.54,2.62,4.94,3.19,2.56,3.53,6.3,2.15,9.84a8.36,8.36,0,0,1-8,5.51C-534.37,552.59-539.11,552.51-543.85,552.51Zm.48-2.93c4.41,0,8.83,0,13.24,0a5.65,5.65,0,0,0,5.75-3.77c1-2.66.5-5.33-2.07-6.93-1.88-1.17-2.43-2.53-2.65-4.69-.58-5.69-6-10.1-11.1-8-5.79,2.43-10.88,6.59-16.14,10.2-1.49,1-.8,3.69-3.21,4.56a3.88,3.88,0,0,0-2.45,5.18,4.9,4.9,0,0,0,4.9,3.4C-552.53,549.56-547.95,549.58-543.37,549.58Z" transform="translate(571.15 -510.42)" style="fill:#939598"/><path d="M-555.31,512.37c-5.24,6.53-5.31,7.23-1,14.4,1.71,2.83-1.11,2.67-2.13,2.93-4.32,1.09-8.15.08-10.79-3.75s-2.6-7.75.12-11.39,6.33-5,10.79-3.58A28.87,28.87,0,0,1-555.31,512.37Zm-5.1,1.37c-5.14.32-8,2.93-7.76,6.88s3.2,6.25,7.75,6C-563.27,522.33-562.81,518.05-560.41,513.74Z" transform="translate(571.15 -510.42)" style="fill:#0776db"/><path d="M-543.86,556.65c3.61-1.5,2.28,2.58,3.92,3.14-1.67.71,0,3.83-3.42,3.85-3.11,0-4.86-1.48-4.9-3.52C-548.29,558.52-547.33,554.92-543.86,556.65Z" transform="translate(571.15 -510.42)" style="fill:#d4d5d6"/><path d="M-532.19,556.69c3.92-1.66,2.4,2.74,4.07,3.4-2,.12.13,3.66-3.69,3.58-3.64-.08-3.55-2.29-4.92-3.83C-535.12,558.87-535.72,554.49-532.19,556.69Z" transform="translate(571.15 -510.42)" style="fill:#d4d5d6"/><path d="M-562.27,564c1.77-2.94,1.13-7.78,7.14-8.78C-558,558.74-557.57,563.4-562.27,564Z" transform="translate(571.15 -510.42)" style="fill:#298de8"/><path d="M-549.73,555.64c-1.2,2.48-2.19,4.54-3.2,6.57-.58,1.17-1.22,2.76-2.79,2-1.92-.87-.29-2.35.25-3.08C-554,559.19-554.45,555.36-549.73,555.64Z" transform="translate(571.15 -510.42)" style="fill:#2d8ee9"/><path d="M-543.37,549.58c-4.58,0-9.16,0-13.73,0a4.9,4.9,0,0,1-4.9-3.4,3.88,3.88,0,0,1,2.45-5.18c2.41-.87,1.72-3.54,3.21-4.56,5.26-3.61,10.35-7.77,16.14-10.2,5.11-2.14,10.52,2.27,11.1,8,.22,2.16.77,3.52,2.65,4.69,2.57,1.6,3.07,4.27,2.07,6.93a5.65,5.65,0,0,1-5.75,3.77C-534.54,549.55-539,549.58-543.37,549.58Z" transform="translate(571.15 -510.42)" style="fill:#e5e6e7"/><path d="M-560.41,513.74c-2.4,4.31-2.86,8.59,0,12.83-4.55.3-7.56-2.09-7.75-6S-565.55,514.06-560.41,513.74Z" transform="translate(571.15 -510.42)" style="fill:#f5f9fd"/></svg>