<svg id="_368" data-name="368" xmlns="http://www.w3.org/2000/svg" viewBox="0 0 50.18 53.7"><title>368</title><path d="M-558.8,630.86h-13.74a7.27,7.27,0,0,1-7.25-4.81c-1.4-3.33.35-5.66,1.92-8.5,4-7.1,11.75-9.18,17.38-14.06,6.45-5.58,16.84-1.28,18.92,7.21a8.66,8.66,0,0,0,2.73,4.85c2.87,2.57,3.31,6.12,2.08,9.5a8.49,8.49,0,0,1-8.31,5.79C-549.65,630.92-554.23,630.86-558.8,630.86Zm.18-2.93c4.42,0,8.83,0,13.24,0a5.65,5.65,0,0,0,5.75-3.77c1-2.66.5-5.33-2.07-6.93-1.87-1.17-2.43-2.53-2.65-4.69-.58-5.69-6-10.1-11.1-8-5.79,2.43-10.88,6.59-16.14,10.19-1.49,1-.8,3.7-3.2,4.57a3.87,3.87,0,0,0-2.45,5.18,4.88,4.88,0,0,0,4.89,3.4C-567.77,627.91-563.2,627.93-558.62,627.93Z" transform="translate(586.29 -588.84)" style="fill:#939598"/><path d="M-570.63,591c-4.49,4.52-5.81,9.07-.88,14.39,1.92,2.07-1.25,2.4-2.39,2.74a9.7,9.7,0,0,1-11.23-4.84,9.77,9.77,0,0,1,1.86-11.69C-579.72,588.16-575.8,587.92-570.63,591Zm-4.59.53c-5.14.59-7.78,2.69-8.09,6.77-.26,3.4,1.62,5.86,4.94,6.93a6.27,6.27,0,0,0,2.29-.17,6.53,6.53,0,0,0-.41-1.69C-578.57,599.52-577.66,595.86-575.22,591.53Z" transform="translate(586.29 -588.84)" style="fill:#0776db"/><path d="M-559,641.73c-3.83.89-3.41-2.46-4.83-3.45,1.53-.9.79-3.71,3.45-3.79,2.93-.1,4.94,1.15,4.93,3.89C-555.43,639.14-555.41,644.56-559,641.73Z" transform="translate(586.29 -588.84)" style="fill:#d4d5d6"/><path d="M-558.62,627.93c-4.58,0-9.15,0-13.73,0a4.88,4.88,0,0,1-4.89-3.4,3.87,3.87,0,0,1,2.45-5.18c2.4-.87,1.71-3.55,3.2-4.57,5.26-3.6,10.35-7.76,16.14-10.19,5.11-2.14,10.52,2.27,11.1,8,.22,2.16.78,3.52,2.65,4.69,2.57,1.6,3.07,4.27,2.07,6.93a5.65,5.65,0,0,1-5.75,3.77C-549.79,627.9-554.2,627.93-558.62,627.93Z" transform="translate(586.29 -588.84)" style="fill:#e5e6e7"/><path d="M-575.22,591.53c-2.44,4.33-3.35,8-1.27,11.84a6.53,6.53,0,0,1,.41,1.69,6.27,6.27,0,0,1-2.29.17c-3.32-1.07-5.2-3.53-4.94-6.93C-583,594.22-580.36,592.12-575.22,591.53Z" transform="translate(586.29 -588.84)" style="fill:#f5f9fd"/></svg>