<svg id="_371" data-name="371" xmlns="http://www.w3.org/2000/svg" viewBox="0 0 50.18 53.34"><title>371</title><path d="M-528,562h-13.25c-3.67,0-6.22-1.6-7.55-5.08s.67-5.63,2.22-8.43c3.88-7,11.56-8.89,17-13.75,6.22-5.55,16.54-1.69,18.91,6.43.65,2.22,1.22,4.09,3.09,5.75,2.84,2.54,3.14,6.17,1.8,9.53a8.41,8.41,0,0,1-8,5.51C-518.55,562-523.29,562-528,562Zm.39-2.92c4.42,0,8.83,0,13.24,0a5.65,5.65,0,0,0,5.95-4.15c.79-2.52.24-5-2.12-6.5a5.42,5.42,0,0,1-2.73-4.66c-.53-5.73-5.88-10.15-11-8-5.81,2.39-10.9,6.56-16.18,10.13-1.51,1-.78,3.73-3.18,4.59a3.91,3.91,0,0,0-2.54,5.15,5.07,5.07,0,0,0,5.33,3.5C-536.47,559-532,559-527.64,559Z" transform="translate(555.22 -519.94)" style="fill:#939598"/><path d="M-539.76,522.12c-5,6.33-5.09,7.18-.77,14,1.76,2.8-1,2.62-2,3a9.63,9.63,0,0,1-11.35-4.51,9.79,9.79,0,0,1,1.82-12.08C-548.49,519.22-544.36,519.07-539.76,522.12Zm-4.5.69c-5.15.29-7.65,2.58-8,6.59-.29,3.4,1.62,5.86,4.94,6.94a6.28,6.28,0,0,0,2.29-.17,6.53,6.53,0,0,0-.41-1.69C-547.51,530.63-546.61,527-544.26,522.81Z" transform="translate(555.22 -519.94)" style="fill:#0776db"/><path d="M-533.93,566.11c3.56-1.64,2.24,2.55,3.88,3.08-1.54.85,0,3.82-3.35,3.91-3,.08-4.88-1.37-5-3.45C-538.43,567.89-537.38,564.61-533.93,566.11Z" transform="translate(555.22 -519.94)" style="fill:#d4d5d6"/><path d="M-522.32,572.7c-3.62,1.58-2.86-2.48-4.5-3.17,1.22-1.25,1-3.95,3.32-4s5.12.82,5,3.69C-518.49,570.19-518.53,574.9-522.32,572.7Z" transform="translate(555.22 -519.94)" style="fill:#d4d5d6"/><path d="M-527.64,559c-4.41,0-8.83-.06-13.24,0a5.07,5.07,0,0,1-5.33-3.5,3.91,3.91,0,0,1,2.54-5.15c2.4-.86,1.67-3.56,3.18-4.59,5.28-3.57,10.37-7.74,16.18-10.13,5.13-2.11,10.48,2.31,11,8a5.42,5.42,0,0,0,2.73,4.66c2.36,1.51,2.91,4,2.12,6.5A5.65,5.65,0,0,1-514.4,559C-518.81,559-523.22,559-527.64,559Z" transform="translate(555.22 -519.94)" style="fill:#e5e6e7"/><path d="M-544.26,522.81c-2.35,4.16-3.25,7.82-1.17,11.67a6.53,6.53,0,0,1,.41,1.69,6.28,6.28,0,0,1-2.29.17c-3.32-1.08-5.23-3.54-4.94-6.94C-551.91,525.39-549.41,523.1-544.26,522.81Z" transform="translate(555.22 -519.94)" style="fill:#f5f9fd"/></svg>