<svg id="_374" data-name="374" xmlns="http://www.w3.org/2000/svg" viewBox="0 0 50.18 52.81"><title>374</title><path d="M-501.07,627.62h-13.24a7.31,7.31,0,0,1-7.46-5.22c-1.18-3.19.56-5.39,2-8,3.94-7.08,11.7-9.23,17.34-14.09,6.48-5.57,16.86-1.34,19,7.12a8.77,8.77,0,0,0,2.7,4.88c3,2.71,3.43,6.39,2,9.93a8.46,8.46,0,0,1-8.09,5.4C-491.58,627.67-496.33,627.61-501.07,627.62Zm.62-2.93c4.41,0,8.83,0,13.24,0a5.64,5.64,0,0,0,5.74-3.78c1-2.65.51-5.33-2.06-6.92-1.88-1.17-2.44-2.54-2.66-4.69-.58-5.69-6-10.1-11.09-8-5.79,2.42-10.88,6.59-16.15,10.19-1.49,1-.79,3.7-3.2,4.56a3.88,3.88,0,0,0-2.45,5.18,4.89,4.89,0,0,0,4.89,3.41C-509.61,624.67-505,624.68-500.45,624.69Z" transform="translate(528.12 -585.61)" style="fill:#939598"/><path d="M-512.47,587.77c-4.54,4.53-5.77,9.08-.85,14.41,1.83,2-1.29,2.38-2.46,2.72A9.72,9.72,0,0,1-527,600a9.81,9.81,0,0,1,1.91-11.69C-521.53,584.92-517.54,584.7-512.47,587.77Zm-4.74,14.28c-3.21-4.63-2.6-8.91-.3-13.25-5,.42-7.63,2.69-7.73,6.49S-522.63,601.58-517.21,602.05Z" transform="translate(528.12 -585.61)" style="fill:#0776db"/><path d="M-500.78,638.42c-2.21-.14-3.48-1.23-3.76-2.92-.34-2.09,1.09-3.43,3-3.68a3.11,3.11,0,0,1,3.41,2.8C-497.7,636.83-499.48,637.62-500.78,638.42Z" transform="translate(528.12 -585.61)" style="fill:#d3d4d5"/><path d="M-500.45,624.68c-4.58,0-9.16,0-13.74,0a4.89,4.89,0,0,1-4.89-3.41,3.88,3.88,0,0,1,2.45-5.18c2.41-.86,1.71-3.54,3.2-4.56,5.27-3.6,10.36-7.77,16.15-10.19,5.11-2.14,10.51,2.27,11.09,8,.22,2.15.78,3.52,2.66,4.69,2.57,1.59,3.07,4.27,2.06,6.92a5.64,5.64,0,0,1-5.74,3.78C-491.62,624.65-496,624.69-500.45,624.68Z" transform="translate(528.12 -585.61)" style="fill:#e5e6e7"/><path d="M-517.21,602.05c-5.42-.47-8.13-3-8-6.76s2.68-6.07,7.73-6.49C-519.81,593.14-520.42,597.42-517.21,602.05Z" transform="translate(528.12 -585.61)" style="fill:#f5f9fd"/></svg>