<svg id="_377" data-name="377" xmlns="http://www.w3.org/2000/svg" viewBox="0 0 50.28 52.77"><title>377</title><path d="M-608.92,589.07h-13.73a7.29,7.29,0,0,1-7.26-4.81c-1.4-3.33.35-5.66,1.93-8.5,4-7.1,11.74-9.18,17.38-14.06,6.45-5.58,16.83-1.28,18.91,7.21a8.71,8.71,0,0,0,2.74,4.86c2.86,2.57,3.3,6.11,2.08,9.49a8.5,8.5,0,0,1-8.31,5.79C-599.76,589.13-604.34,589.07-608.92,589.07Zm.11-2.93c4.41,0,8.83,0,13.24,0a5.68,5.68,0,0,0,6-4.16,5.33,5.33,0,0,0-2.12-6.5,5.39,5.39,0,0,1-2.73-4.65c-.53-5.74-5.89-10.16-11-8.05-5.81,2.4-10.9,6.56-16.18,10.14-1.52,1-.78,3.73-3.18,4.59a3.91,3.91,0,0,0-2.54,5.15,5.08,5.08,0,0,0,5.33,3.5C-617.64,586.09-613.23,586.15-608.81,586.14Z" transform="translate(636.51 -547.01)" style="fill:#939598"/><path d="M-620.93,549.25c-5,6.22-5.1,7-.71,14.06,1.52,2.45-.69,2.56-1.68,2.84-4.26,1.22-8.15.46-11-3.24s-3-7.6-.46-11.39,6.1-5.29,10.6-4.14A4.76,4.76,0,0,1-620.93,549.25Zm-4.5.67c-5.15.29-7.65,2.58-8,6.59-.29,3.39,1.62,5.86,4.94,6.93a6.28,6.28,0,0,0,2.29-.17,7.09,7.09,0,0,0-.42-1.69C-628.69,557.74-627.79,554.08-625.43,549.92Z" transform="translate(636.51 -547.01)" style="fill:#0776db"/><path d="M-612.08,596.54c-.73,2-1.76,3.55-3.88,3.19a3.13,3.13,0,0,1-2.81-3.42,3.21,3.21,0,0,1,3.23-3.06C-613.49,593.26-612.54,594.82-612.08,596.54Z" transform="translate(636.51 -547.01)" style="fill:#d3d4d5"/><path d="M-600.33,596.49c-.46,1.93-1.51,3.4-3.58,3.27a3.16,3.16,0,0,1-3.06-3.22,3.17,3.17,0,0,1,3-3.26C-601.88,593.11-600.83,594.59-600.33,596.49Z" transform="translate(636.51 -547.01)" style="fill:#d3d4d5"/><path d="M-608.81,586.14c-4.42,0-8.83,0-13.24,0a5.08,5.08,0,0,1-5.33-3.5,3.91,3.91,0,0,1,2.54-5.15c2.4-.86,1.66-3.57,3.18-4.59,5.28-3.58,10.37-7.74,16.18-10.14,5.12-2.11,10.48,2.31,11,8.05a5.39,5.39,0,0,0,2.73,4.65,5.33,5.33,0,0,1,2.12,6.5,5.68,5.68,0,0,1-6,4.16C-600,586.12-604.4,586.14-608.81,586.14Z" transform="translate(636.51 -547.01)" style="fill:#e5e6e7"/><path d="M-625.43,549.92c-2.36,4.16-3.26,7.82-1.18,11.66a7.09,7.09,0,0,1,.42,1.69,6.28,6.28,0,0,1-2.29.17c-3.32-1.07-5.23-3.54-4.94-6.93C-633.08,552.5-630.58,550.21-625.43,549.92Z" transform="translate(636.51 -547.01)" style="fill:#f6fafd"/></svg>