<svg id="_386" data-name="386" xmlns="http://www.w3.org/2000/svg" viewBox="0 0 50.17 53.77"><title>386</title><path d="M-474.6,534.3c-3.92,0-7.85.18-11.78.1a7.17,7.17,0,0,1-7.11-5c-1.24-3.36.61-5.63,2.19-8.45,3.8-6.76,11.27-8.61,16.48-13.46,6.46-6,17.2-2.18,19.55,6.43.57,2.09,1.08,3.8,2.84,5.32,2.89,2.5,3.31,6,2.05,9.47a8.26,8.26,0,0,1-7.86,5.67c-3.43.15-6.87,0-10.31,0,.27-.92.55-1.84.82-2.75,3,0,5.91,0,8.85-.15,2.64-.14,4.88-1.31,5.73-3.91s.24-5.32-2.33-6.89c-1.74-1.06-2.25-2.32-2.46-4.31-.6-5.84-5.77-10.29-10.94-8.2-5.83,2.37-10.95,6.55-16.26,10.13-1.52,1-.78,3.74-3.18,4.6a3.9,3.9,0,0,0-2.54,5.16,5.12,5.12,0,0,0,5.37,3.49c3.93-.08,7.87,0,11.81,0Z" transform="translate(499.87 -492.42)" style="fill:#353535"/><path d="M-484.41,494.57c-5,6.42-5.13,7.25-.8,14.06,1.78,2.79-.92,2.63-2,3a9.61,9.61,0,0,1-11.36-4.48,9.79,9.79,0,0,1,1.79-12.08Q-491.39,490-484.41,494.57ZM-488.57,509c-4-4.83-2.68-9.13-.71-13.5-5.42.75-8.25,3.43-7.65,7.28S-494.07,509.08-488.57,509Z" transform="translate(499.87 -492.42)" style="fill:#0776db"/><path d="M-474.6,534.3l.92-2.75c.88-1.5,1.8-3,2.62-4.5.61-1.13,1.48-1.9,2.65-1.18s0,1.64-.26,2.45c-.37,1.32-2.26,3,.94,3.3-.27.91-.55,1.83-.82,2.75-.87,3,.84,6.55-1.89,9.35-1.07,1.1-1.26,3.15-4,2.25,2.83-3.2-.84-7.25,1.73-10.7C-472.31,534.69-473.94,534.63-474.6,534.3Z" transform="translate(499.87 -492.42)" style="fill:#fcb209"/><path d="M-467.73,531.62c-3.2-.29-1.31-2-.94-3.3.23-.81,1.44-1.72.26-2.45s-2,0-2.65,1.18c-.82,1.52-1.74,3-2.62,4.5-3.94,0-7.88-.09-11.81,0a5.12,5.12,0,0,1-5.37-3.49,3.9,3.9,0,0,1,2.54-5.16c2.4-.86,1.66-3.58,3.18-4.6,5.31-3.58,10.43-7.76,16.26-10.13,5.17-2.09,10.34,2.36,10.94,8.2.21,2,.72,3.25,2.46,4.31,2.57,1.57,3.21,4.17,2.33,6.89s-3.09,3.77-5.73,3.91C-461.82,531.63-464.78,531.58-467.73,531.62Z" transform="translate(499.87 -492.42)" style="fill:#7f8184"/><path d="M-488.57,509c-5.5.1-7.75-2.31-8.36-6.22s2.23-6.53,7.65-7.28C-491.25,499.85-492.56,504.15-488.57,509Z" transform="translate(499.87 -492.42)" style="fill:#f5f9fd"/></svg>