<svg id="_389" data-name="389" xmlns="http://www.w3.org/2000/svg" viewBox="0 0 44.11 41.47"><title>389</title><path d="M-570.83,525.68c-3.93,0-7.85.17-11.77.1a7,7,0,0,1-7.06-5.06c-1-3.21.63-5.64,2.24-8.5,3.82-6.78,11.34-8.5,16.52-13.4,6.39-6,17.34-2,19.44,6.57a9.64,9.64,0,0,0,3,5.29c2.8,2.59,3.21,6.07,1.94,9.51a8.29,8.29,0,0,1-7.93,5.58c-3.42.14-6.86,0-10.3,0,.27-.91.55-1.82.82-2.73l8.84-.11a6,6,0,0,0,6.07-4.78,5,5,0,0,0-2.68-6.18c-1.91-.92-2.33-2.23-2.5-4.23-.5-6-6.56-10.58-11.84-8s-9.6,7-15,9.64c-1.83.9-1.36,4.2-3.83,5.37-2,1-2.37,3.09-1.74,5.14s2.32,3,4.52,3c4.09,0,8.18.05,12.28.07Z" transform="translate(589.98 -495.93)" style="fill:#353535"/><path d="M-564,523c-.27.91-.55,1.82-.82,2.73s-1.59,1.5-.81,2.92c1.77,3.21-1.14,8.27-5.34,8.75,3.22-3.33-.51-7.72,2.35-11l-2.24-.74c.31-.91.63-1.81,1-2.72.89-1.54,1.84-3.06,2.67-4.64.54-1,1.39-1.63,2.36-1.15,1.3.65.23,1.62,0,2.48C-565.17,520.9-567.39,522.72-564,523Z" transform="translate(589.98 -495.93)" style="fill:#fcb005"/><path d="M-564,523c-3.42-.28-1.2-2.1-.87-3.35.22-.86,1.29-1.83,0-2.48-1-.48-1.82.13-2.36,1.15-.83,1.58-1.78,3.1-2.67,4.64-4.1,0-8.19-.06-12.28-.07-2.2,0-3.86-.91-4.52-3s-.26-4.18,1.74-5.14c2.47-1.17,2-4.47,3.83-5.37,5.43-2.66,9.76-7.08,15-9.64s11.34,2,11.84,8c.17,2,.59,3.31,2.5,4.23a5,5,0,0,1,2.68,6.18,6,6,0,0,1-6.07,4.78Z" transform="translate(589.98 -495.93)" style="fill:#7f8184"/></svg>