<svg id="_392" data-name="392" xmlns="http://www.w3.org/2000/svg" viewBox="0 0 50.18 53.76"><title>392</title><path d="M-525,480.09c-5.4,0-10.8.11-16.2.12-3.63,0-6.31-1.49-7.61-5s1-5.83,2.5-8.79c3.59-6.87,11.13-8.27,16.18-13.1,6.55-6.27,17.34-2.12,19.71,6.85.36,1.36.06,2.8,1.55,3.89,3.81,2.77,4.73,6.67,3,10.88s-5.65,5.59-10.1,5.3c-1-.07-2-.05-3-.07.27-.92.55-1.84.82-2.76.82,0,1.64-.11,2.46-.09,3.2.1,6.06-.74,7.18-4s-.14-5.87-3.12-7.45c-1.72-.91-1.39-2.33-1.59-3.75-.78-5.83-5.83-10.28-11-8.19-5.83,2.37-10.94,6.56-16.26,10.12-1.44,1-.7,3.56-2.75,4.38-2.44,1-3.8,2.86-3,5.39s3.06,3.56,5.85,3.5c5.41-.11,10.83,0,16.24,0Z" transform="translate(555.23 -438.22)" style="fill:#353535"/><path d="M-539.57,440.38c-4.54,4.53-5.77,9.08-.86,14.41,1.83,2-1.28,2.38-2.45,2.72a9.71,9.71,0,0,1-11.21-4.89,9.79,9.79,0,0,1,1.91-11.68C-548.64,437.53-544.64,437.31-539.57,440.38Zm-5.12,14.25c-2.4-6-2.4-6-.23-13.5-4.52.22-7,2.56-7.37,6.78C-552.65,451.64-549.74,454.2-544.69,454.63Z" transform="translate(555.23 -438.22)" style="fill:#0776db"/><path d="M-518.15,477.4c-.27.92-.55,1.84-.82,2.76-.87,3,.84,6.55-1.89,9.35-1.07,1.1-1.26,3.15-4,2.25,2.82-3.2-.84-7.25,1.72-10.7.44-.58-1.19-.64-1.85-1,.3-.92.6-1.84.91-2.75.88-1.5,1.8-3,2.63-4.5.6-1.13,1.48-1.9,2.64-1.18s0,1.64-.26,2.45C-519.46,475.43-521.35,477.12-518.15,477.4Z" transform="translate(555.23 -438.22)" style="fill:#fdb209"/><path d="M-534,484.41c3.63-1.7,3.76,2.71,3.72,3-.34,2.56-1.48,4.44-4.8,4a3.67,3.67,0,0,1-3.28-3.88C-537.92,485.94-537.2,482.6-534,484.41Z" transform="translate(555.23 -438.22)" style="fill:#d4d5d6"/><path d="M-518.15,477.4c-3.2-.28-1.31-2-.94-3.29.23-.81,1.44-1.72.26-2.45s-2,0-2.64,1.18c-.83,1.52-1.75,3-2.63,4.5-5.41,0-10.83-.11-16.24,0-2.79.06-5-.9-5.85-3.5s.52-4.42,3-5.39c2.05-.82,1.31-3.42,2.75-4.38,5.32-3.56,10.43-7.75,16.26-10.12,5.17-2.09,10.22,2.36,11,8.19.2,1.42-.13,2.84,1.59,3.75,3,1.58,4.24,4.27,3.12,7.45s-4,4.07-7.18,4C-516.51,477.29-517.33,477.37-518.15,477.4Z" transform="translate(555.23 -438.22)" style="fill:#7f8184"/><path d="M-544.69,454.63c-5-.43-8-3-7.6-6.72.4-4.22,2.85-6.56,7.37-6.78C-547.09,448.64-547.09,448.64-544.69,454.63Z" transform="translate(555.23 -438.22)" style="fill:#f5f9fd"/></svg>